<svg xmlns="http://www.w3.org/2000/svg" width="1440" height="656" viewBox="0 0 1440 656">
  <path fill="#2A2F96" fill-rule="evenodd" d="M112.7026,398.614 C79.0036,398.618 47.4546,349.538 16.8586,301.947 C11.3376,293.358 5.6276,284.477 -0.0004,276.031 L0.8316,275.477 C6.4646,283.93 12.1766,292.814 17.6996,301.406 C50.8226,352.928 85.0736,406.205 121.4906,396.447 C157.9076,386.689 160.9326,323.425 163.8586,262.244 C166.8006,200.705 169.8436,137.07 206.9666,127.123 C244.0986,117.171 278.5436,170.765 311.8616,222.588 C344.9846,274.109 379.2366,327.382 415.6546,317.626 C452.0726,307.868 455.0966,244.603 458.0216,183.422 C460.9636,121.883 464.0066,58.249 501.1276,48.302 C538.2506,38.353 572.7056,91.944 606.0256,143.768 C639.1496,195.288 673.3996,248.565 709.8186,238.805 C746.2376,229.046 749.2626,165.782 752.1876,104.6 C754.0236,66.213 755.9216,26.519 766.0626,0.271 L766.9956,0.631 C756.9126,26.728 755.0186,66.341 753.1866,104.648 C750.2446,166.188 747.2016,229.823 710.0776,239.771 C672.9606,249.72 638.5026,196.132 605.1846,144.309 C572.0596,92.786 537.8036,39.513 501.3866,49.268 C464.9706,59.026 461.9456,122.289 459.0206,183.469 C456.0786,245.01 453.0356,308.645 415.9126,318.592 C412.8816,319.405 409.8626,319.793 406.8656,319.793 C373.1656,319.799 341.6176,270.719 311.0206,223.129 C277.8956,171.607 243.6456,118.331 207.2246,128.089 C170.8076,137.847 167.7826,201.111 164.8566,262.292 C161.9146,323.831 158.8716,387.466 121.7486,397.413 C118.7176,398.225 115.6996,398.614 112.7026,398.614 Z M995.1973,162.1501 C961.4953,162.1501 929.9463,113.0771 899.3483,65.4871 C884.5443,42.4611 869.2353,18.6501 853.9263,0.7761 L854.6863,0.1261 C870.0393,18.0521 885.3673,41.8921 900.1893,64.9461 C933.3143,116.4661 967.5613,169.7421 1003.9873,159.9831 C1040.4043,150.2251 1043.4293,86.9611 1046.3543,25.7791 C1046.7553,17.4251 1047.1673,8.7871 1047.6593,0.4211 L1048.6573,0.4801 C1048.1663,8.8401 1047.7533,17.4761 1047.3533,25.8271 C1044.4113,87.3671 1041.3683,151.0021 1004.2453,160.9481 C1001.2143,161.7611 998.1943,162.1501 995.1973,162.1501 Z M121.5298,431.4231 C87.8288,431.4231 56.2798,382.3501 25.6818,334.7591 C17.2818,321.6931 8.5948,308.1821 0.0068,295.9081 L0.8258,295.3351 C9.4258,307.6251 18.1178,321.1441 26.5238,334.2181 C59.6488,385.7391 93.9048,439.0111 130.3198,429.2561 C166.7378,419.4971 169.7628,356.2331 172.6888,295.0511 C175.6318,233.5121 178.6748,169.8781 215.7968,159.9311 C252.9198,149.9791 287.3738,203.5711 320.6918,255.3951 C353.8168,306.9161 388.0668,360.1921 424.4878,350.4331 C460.9058,340.6751 463.9308,277.4101 466.8568,216.2291 C469.7998,154.6901 472.8418,91.0561 509.9648,81.1091 C547.0878,71.1601 581.5418,124.7491 614.8598,176.5731 C647.9848,228.0941 682.2338,281.3701 718.6548,271.6111 C755.0718,261.8541 758.0958,198.5901 761.0218,137.4101 C763.9638,75.8701 767.0058,12.2351 804.1298,2.2881 C841.2518,-7.6589 875.7038,45.9281 909.0218,97.7511 C942.1478,149.2741 976.4118,202.5471 1012.8168,192.7911 C1049.2358,183.0331 1052.2608,119.7691 1055.1868,58.5881 C1056.1258,38.9541 1057.0968,18.6521 1059.1578,0.3951 L1060.1528,0.5071 C1058.0938,18.7321 1057.1238,39.0181 1056.1858,58.6351 C1053.2418,120.1751 1050.1988,183.8101 1013.0758,193.7571 C1010.0438,194.5691 1007.0258,194.9581 1004.0288,194.9591 C970.3268,194.9641 938.7788,145.8841 908.1808,98.2921 C875.0568,46.7711 840.8068,-6.5079 804.3878,3.2541 C767.9698,13.0121 764.9458,76.2771 762.0198,137.4581 C759.0778,198.9971 756.0358,262.6311 718.9138,272.5771 C715.8828,273.3901 712.8628,273.7781 709.8658,273.7791 C676.1658,273.7841 644.6158,224.7051 614.0188,177.1131 C580.8938,125.5921 546.6418,72.3161 510.2238,82.0751 C473.8058,91.8331 470.7808,155.0961 467.8558,216.2771 C464.9128,277.8171 461.8698,341.4521 424.7458,351.3991 C421.7148,352.2121 418.6958,352.6001 415.6978,352.6011 C381.9978,352.6061 350.4478,303.5271 319.8508,255.9351 C286.7268,204.4141 252.4738,151.1371 216.0558,160.8971 C179.6378,170.6541 176.6128,233.9181 173.6878,295.0981 C170.7448,356.6391 167.7018,420.2741 130.5778,430.2211 C127.5468,431.0341 124.5268,431.4231 121.5298,431.4231 Z M132.3726,472.0241 C98.6746,472.0291 67.1266,422.9491 36.5306,375.3581 C24.6066,356.8111 12.2776,337.6321 0.0196,321.6671 L0.8126,321.0581 C13.0956,337.0571 25.4366,356.2531 37.3716,374.8171 C70.4956,426.3391 104.7456,479.6181 141.1606,469.8571 C177.5786,460.0991 180.6026,396.8351 183.5286,335.6541 C186.4706,274.1151 189.5136,210.4801 226.6366,200.5331 C263.7596,190.5871 298.2136,244.1741 331.5316,295.9981 C364.6556,347.5191 398.9046,400.7941 435.3246,391.0361 C471.7426,381.2781 474.7676,318.0131 477.6926,256.8321 C480.6346,195.2941 483.6766,131.6591 520.7986,121.7131 C557.9216,111.7631 592.3766,165.3541 625.6966,217.1781 C658.8196,268.6981 693.0676,321.9751 729.4886,312.2151 C765.9076,302.4571 768.9326,239.1921 771.8576,178.0101 C774.8006,116.4711 777.8436,52.8371 814.9666,42.8911 C852.0916,32.9451 886.5436,86.5311 919.8626,138.3551 C952.9866,189.8761 987.2416,243.1491 1023.6566,233.3931 C1060.0746,223.6351 1063.1006,160.3731 1066.0266,99.1941 C1067.7406,63.3721 1069.5116,26.3311 1077.9776,0.2961 L1078.9286,0.6061 C1070.5036,26.5131 1068.7356,63.4861 1067.0256,99.2421 C1064.0816,160.7791 1061.0386,224.4121 1023.9156,234.3581 C986.7886,244.3081 952.3386,190.7181 919.0216,138.8961 C885.8966,87.3731 851.6386,34.1011 815.2256,43.8571 C778.8076,53.6141 775.7826,116.8781 772.8566,178.0581 C769.9146,239.5981 766.8716,303.2331 729.7476,313.1811 C726.7156,313.9931 723.6966,314.3821 720.6996,314.3821 C686.9996,314.3871 655.4516,265.3091 624.8546,217.7191 C591.7296,166.1961 557.4796,112.9231 521.0576,122.6791 C484.6406,132.4371 481.6166,195.6991 478.6916,256.8801 C475.7486,318.4201 472.7066,382.0551 435.5836,392.0021 C432.5516,392.8151 429.5336,393.2031 426.5366,393.2031 C392.8366,393.2081 361.2876,344.1301 330.6906,296.5391 C297.5666,245.0161 263.3106,191.7441 226.8946,201.4991 C190.4776,211.2571 187.4526,274.5211 184.5276,335.7021 C181.5846,397.2411 178.5426,460.8761 141.4196,470.8231 C138.3876,471.6351 135.3696,472.0241 132.3726,472.0241 Z M1298.1826,116.1399 C1264.4846,116.1399 1232.9356,67.0639 1202.3386,19.4729 C1198.3666,13.2919 1194.2576,6.9019 1190.2126,0.7249 L1191.0486,0.1769 C1195.0966,6.3579 1199.2056,12.7499 1203.1796,18.9319 C1236.3036,70.4539 1270.5566,123.7289 1306.9696,113.9729 C1339.8296,105.1679 1345.4066,53.0509 1348.3016,0.4239 L1349.2996,0.4779 C1346.3846,53.4719 1340.7346,105.9609 1307.2296,114.9389 C1304.1976,115.7509 1301.1796,116.1399 1298.1826,116.1399 Z M1449.9551,208.0876 L1450.8771,208.4766 C1439.8801,234.5406 1437.9221,275.4766 1436.0281,315.0646 C1433.0841,376.6036 1430.0401,440.2366 1392.9161,450.1846 C1389.8851,450.9966 1386.8671,451.3846 1383.8701,451.3856 C1350.1731,451.3896 1318.6241,402.3096 1288.0281,354.7176 C1254.9041,303.1946 1220.6501,249.9136 1184.2401,259.6766 C1147.8211,269.4346 1144.7971,332.6986 1141.8711,393.8806 C1138.9291,455.4206 1135.8871,519.0556 1098.7641,529.0026 C1095.7311,529.8146 1092.7121,530.2036 1089.7151,530.2036 C1056.0151,530.2086 1024.4661,481.1286 993.8681,433.5366 C960.7441,382.0146 926.4861,328.7346 890.0761,338.4976 C853.6571,348.2556 850.6331,411.5216 847.7081,472.7036 C844.7661,534.2426 841.7241,597.8766 804.6021,607.8226 C801.5701,608.6346 798.5511,609.0236 795.5541,609.0246 C761.8531,609.0286 730.3041,559.9496 699.7061,512.3576 C666.5821,460.8366 632.3331,407.5606 595.9111,417.3186 C559.4921,427.0766 556.4661,490.3416 553.5401,551.5236 C551.7091,589.8026 549.8161,629.3836 539.7501,655.6296 L538.8171,655.2716 C548.8251,629.1756 550.7141,589.6756 552.5411,551.4756 C555.4851,489.9356 558.5281,426.2996 595.6521,416.3526 C632.7761,406.4026 667.2281,459.9936 700.5471,511.8166 C733.6721,563.3396 767.9301,616.6166 804.3431,606.8566 C840.7601,597.0986 843.7841,533.8356 846.7091,472.6556 C849.6511,411.1146 852.6931,347.4786 889.8161,337.5316 C926.9421,327.5816 961.3921,381.1716 994.7091,432.9956 C1027.8341,484.5196 1062.1021,537.7936 1098.5041,528.0366 C1134.9221,518.2776 1137.9471,455.0136 1140.8731,393.8326 C1143.8151,332.2926 1146.8571,268.6576 1183.9811,258.7106 C1221.0951,248.7626 1255.5531,302.3526 1288.8691,354.1766 C1321.9921,405.6996 1356.2351,458.9776 1392.6581,449.2186 C1429.0761,439.4606 1432.1021,376.1966 1435.0291,315.0166 C1436.9271,275.3416 1438.8901,234.3156 1449.9551,208.0876 Z M1289.1904,83.3542 C1258.9704,83.3542 1230.9474,44.3802 1202.5894,0.7232 L1203.4274,0.1782 C1234.4404,47.9212 1265.0284,90.0372 1298.1564,81.1602 C1312.8524,77.2232 1330.5544,64.4842 1337.0624,0.4002 L1338.0564,0.5012 C1335.6564,24.1422 1332.0084,41.1382 1326.5784,53.9872 C1319.9724,69.6142 1310.7604,78.8182 1298.4164,82.1262 C1295.3184,82.9562 1292.2404,83.3542 1289.1904,83.3542 Z M1222.0107,92.8879 C1196.9707,53.9399 1171.0777,13.6659 1144.4177,0.9019 L1144.8497,-0.0001 C1171.7657,12.8869 1197.7367,53.2819 1222.8527,92.3469 C1255.9747,143.8669 1290.2307,197.1429 1326.6397,187.3829 C1363.0597,177.6249 1366.0847,114.3609 1369.0107,53.1799 C1369.8587,35.4699 1370.7347,17.1569 1372.4077,0.4009 L1373.4037,0.5009 C1371.7317,17.2309 1370.8567,35.5299 1370.0097,53.2269 C1367.0667,114.7669 1364.0237,178.4019 1326.8987,188.3489 C1323.8667,189.1609 1320.8487,189.5499 1317.8527,189.5499 C1284.1547,189.5499 1252.6077,140.4769 1222.0107,92.8879 Z M1309.0371,156.738 C1275.3351,156.738 1243.7851,107.664 1213.1861,60.072 C1199.8311,39.3 1186.0201,17.821 1172.2541,0.765 L1173.0311,0.137 C1186.8331,17.234 1200.6571,38.737 1214.0271,59.531 C1247.1531,111.053 1281.4031,164.328 1317.8271,154.571 C1354.2451,144.812 1357.2721,81.551 1360.2001,20.374 C1360.5151,13.815 1360.8401,7.031 1361.2001,0.424 L1362.1981,0.478 C1361.8381,7.083 1361.5141,13.864 1361.1991,20.422 C1358.2541,81.958 1355.2091,145.589 1318.0851,155.536 C1315.0541,156.349 1312.0341,156.738 1309.0371,156.738 Z M141.2002,504.8337 C107.4992,504.8337 75.9502,455.7607 45.3522,408.1707 C30.5812,385.1977 15.3082,361.4427 0.0362,343.5847 L0.7962,342.9347 C16.1122,360.8447 31.4042,384.6287 46.1932,407.6307 C79.3182,459.1507 113.5762,512.4257 149.9892,502.6667 C186.4082,492.9077 189.4332,429.6427 192.3592,368.4607 C195.3022,306.9227 198.3452,243.2887 235.4672,233.3417 C272.5902,223.3927 307.0442,276.9817 340.3622,328.8057 C373.4862,380.3267 407.7362,433.6047 444.1572,423.8437 C480.5762,414.0847 483.6012,350.8207 486.5272,289.6387 C489.4702,228.0997 492.5122,164.4657 529.6352,154.5197 C566.7582,144.5677 601.2122,198.1587 634.5302,249.9827 C667.6542,301.5037 701.9092,354.7837 738.3252,345.0217 C774.7422,335.2637 777.7662,272.0007 780.6912,210.8207 C783.6342,149.2807 786.6762,85.6457 823.7992,75.6987 C860.9272,65.7517 895.3732,119.3387 928.6912,171.1617 C961.8162,222.6847 996.0692,275.9547 1032.4872,266.2017 C1068.9042,256.4427 1071.9302,193.1807 1074.8572,132.0007 C1077.5782,75.1107 1080.3922,16.2837 1110.1322,0.0117 L1110.6122,0.8897 C1081.3642,16.8917 1078.5632,75.4337 1075.8552,132.0487 C1072.9122,193.5867 1069.8692,257.2197 1032.7452,267.1667 C1029.7142,267.9797 1026.6942,268.3687 1023.6982,268.3687 C989.9972,268.3737 958.4482,219.2937 927.8502,171.7027 C894.7262,120.1817 860.4682,66.9047 824.0582,76.6647 C787.6402,86.4227 784.6152,149.6877 781.6902,210.8687 C778.7482,272.4077 775.7052,336.0407 738.5842,345.9877 C735.5532,346.7997 732.5332,347.1887 729.5362,347.1887 C695.8362,347.1937 664.2862,298.1147 633.6892,250.5237 C600.5652,199.0027 566.3162,145.7287 529.8942,155.4847 C493.4762,165.2427 490.4512,228.5067 487.5262,289.6867 C484.5832,351.2267 481.5402,414.8617 444.4162,424.8097 C441.3842,425.6227 438.3652,426.0107 435.3682,426.0117 C401.6672,426.0167 370.1182,376.9377 339.5212,329.3457 C306.3972,277.8247 272.1492,224.5507 235.7262,234.3077 C199.3082,244.0657 196.2832,307.3287 193.3582,368.5087 C190.4152,430.0487 187.3722,493.6847 150.2482,503.6317 C147.2162,504.4447 144.1972,504.8337 141.2002,504.8337 Z M301.4839,495.175 C338.6099,485.229 373.0619,538.815 406.3799,590.637 C421.1239,613.569 436.3689,637.28 451.6119,655.126 L450.8519,655.776 C435.5649,637.878 420.3009,614.137 405.5389,591.178 C372.4149,539.657 338.1659,486.383 301.7429,496.141 C265.3249,505.899 262.2999,569.162 259.3749,630.342 C258.9789,638.623 258.5689,647.186 258.0829,655.48 L257.0849,655.422 C257.5699,647.133 257.9799,638.573 258.3759,630.295 C261.3179,568.756 264.3609,505.122 301.4839,495.175 Z M267.8071,369.6399 C231.3891,379.3979 228.3641,442.6619 225.4391,503.8429 C222.4961,565.3819 219.4541,629.0169 182.3311,638.9639 C179.3001,639.7759 176.2821,640.1639 173.2851,640.1649 C139.5861,640.1699 108.0381,591.0909 77.4421,543.4999 C52.5111,504.7209 26.7311,464.6209 0.1971,451.6809 L0.6351,450.7819 C27.4211,463.8449 53.2781,504.0639 78.2831,542.9589 C111.4071,594.4799 145.6581,647.7559 182.0731,637.9979 C218.4901,628.2399 221.5151,564.9759 224.4401,503.7949 C227.3831,442.2559 230.4251,378.6209 267.5481,368.6739 C304.6791,358.7229 339.1261,412.3149 372.4441,464.1389 C405.5671,515.6599 439.8131,568.9349 476.2371,559.1769 C512.6541,549.4189 515.6791,486.1549 518.6041,424.9729 C521.5461,363.4339 524.5881,299.7999 561.7101,289.8529 C598.8341,279.9039 633.2861,333.4939 666.6051,385.3169 C699.7291,436.8379 733.9841,490.1169 770.4001,480.3559 C806.8191,470.5979 809.8451,407.3329 812.7701,346.1509 C815.7131,284.6129 818.7561,220.9779 855.8791,211.0319 C892.9991,201.0829 927.4551,254.6709 960.7731,306.4949 C993.8971,358.0159 1028.1451,411.2949 1064.5691,401.5339 C1100.9871,391.7749 1104.0131,328.5109 1106.9371,267.3299 C1109.8811,205.7909 1112.9241,142.1559 1150.0461,132.2089 C1187.1711,122.2559 1221.6241,175.8489 1254.9441,227.6739 C1288.0691,279.1959 1322.3351,332.4649 1358.7381,322.7109 C1395.1571,312.9529 1398.1841,249.6929 1401.1121,188.5159 C1404.0571,126.9709 1407.1031,63.3309 1444.2371,53.3809 L1444.4971,54.3469 C1408.0671,64.1079 1405.0401,127.3769 1402.1111,188.5639 C1399.1661,250.0989 1396.1211,313.7299 1358.9981,323.6769 C1321.8561,333.6299 1287.4211,280.0359 1254.1021,228.2149 C1220.9771,176.6929 1186.7201,123.4109 1150.3061,133.1749 C1113.8881,142.9329 1110.8621,206.1969 1107.9361,267.3779 C1104.9941,328.9169 1101.9511,392.5519 1064.8271,402.4989 C1061.7961,403.3119 1058.7761,403.7009 1055.7791,403.7009 C1022.0781,403.7059 990.5301,354.6269 959.9321,307.0359 C926.8081,255.5149 892.5521,202.2409 856.1381,211.9969 C819.7201,221.7549 816.6951,285.0189 813.7691,346.1989 C810.8261,407.7389 807.7831,471.3739 770.6591,481.3219 C767.6271,482.1339 764.6081,482.5229 761.6111,482.5229 C727.9111,482.5279 696.3611,433.4489 665.7641,385.8579 C632.6401,334.3369 598.3911,281.0619 561.9691,290.8189 C525.5521,300.5769 522.5281,363.8399 519.6031,425.0209 C516.6611,486.5609 513.6191,550.1959 476.4951,560.1429 C473.4641,560.9549 470.4451,561.3439 467.4481,561.3449 C433.7481,561.3489 402.2001,512.2699 371.6021,464.6799 C338.4771,413.1579 304.2201,359.8819 267.8071,369.6399 Z M148.9048,560.7673 C115.2058,560.7723 83.6578,511.6933 53.0608,464.1033 C35.8188,437.2843 17.9898,409.5523 0.0568,391.0363 L0.7758,390.3413 C18.7768,408.9273 36.6338,436.7023 53.9028,463.5623 C87.0248,515.0833 121.2768,568.3583 157.6928,558.6003 C194.1108,548.8423 197.1348,485.5793 200.0608,424.3983 C203.0028,362.8593 206.0458,299.2253 243.1688,289.2783 C280.2908,279.3283 314.7458,332.9183 348.0638,384.7423 C381.1878,436.2623 415.4398,489.5393 451.8558,479.7793 C488.2738,470.0213 491.2988,406.7573 494.2238,345.5763 C497.1668,284.0383 500.2088,220.4043 537.3308,210.4583 C574.4618,200.5113 608.9078,254.0983 642.2258,305.9203 C675.3498,357.4423 709.6098,410.7193 746.0198,400.9583 C782.4398,391.2003 785.4648,327.9353 788.3898,266.7543 C791.3328,205.2163 794.3758,141.5823 831.4978,131.6363 C868.6288,121.6893 903.0748,175.2753 936.3938,227.0983 C969.5178,278.6193 1003.7628,331.8933 1040.1898,322.1363 C1076.6068,312.3773 1079.6318,249.1143 1082.5578,187.9343 C1085.4998,126.3943 1088.5428,62.7613 1125.6658,52.8133 C1162.7948,42.8603 1197.2438,96.4533 1230.5648,148.2773 C1263.6898,199.7983 1297.9568,253.0693 1334.3588,243.3133 C1370.7788,233.5553 1373.8068,170.2953 1376.7368,109.1193 C1378.6838,68.4523 1380.6968,26.3993 1392.5168,0.2453 L1393.4288,0.6573 C1381.6868,26.6383 1379.6778,68.5933 1377.7358,109.1673 C1374.7888,170.7023 1371.7418,234.3313 1334.6178,244.2793 C1297.4788,254.2313 1263.0398,200.6393 1229.7228,148.8173 C1196.5988,97.2973 1162.3358,44.0193 1125.9258,53.7793 C1089.5078,63.5383 1086.4828,126.8013 1083.5568,187.9813 C1080.6128,249.5203 1077.5718,313.1543 1040.4478,323.1013 C1037.4158,323.9143 1034.3968,324.3033 1031.3998,324.3033 C997.6978,324.3093 966.1508,275.2303 935.5528,227.6393 C902.4288,176.1193 868.1688,122.8453 831.7578,132.6013 C795.3398,142.3593 792.3148,205.6223 789.3888,266.8023 C786.4468,328.3423 783.4038,391.9763 746.2788,401.9243 C743.2468,402.7363 740.2278,403.1253 737.2308,403.1253 C703.5298,403.1303 671.9818,354.0523 641.3838,306.4613 C608.2598,254.9403 574.0058,201.6643 537.5898,211.4243 C501.1728,221.1823 498.1488,284.4443 495.2228,345.6233 C492.2808,407.1633 489.2378,470.7983 452.1148,480.7453 C449.0828,481.5583 446.0648,481.9463 443.0678,481.9473 C409.3678,481.9523 377.8198,432.8733 347.2228,385.2833 C314.0978,333.7613 279.8418,280.4863 243.4268,290.2443 C207.0098,300.0023 203.9848,363.2663 201.0588,424.4463 C198.1168,485.9853 195.0738,549.6193 157.9508,559.5663 C154.9198,560.3783 151.9018,560.7673 148.9048,560.7673 Z M587.0742,384.5139 C550.6582,394.2719 547.6332,457.5349 544.7082,518.7149 C541.7662,580.2549 538.7232,643.8899 501.6002,653.8369 C498.5692,654.6499 495.5502,655.0379 492.5532,655.0389 C458.8532,655.0439 427.3042,605.9649 396.7082,558.3739 C363.5832,506.8519 329.3312,453.5769 292.9122,463.3339 C256.4942,473.0929 253.4692,536.3569 250.5432,597.5389 C249.6082,617.0919 248.6402,637.3109 246.5962,655.5069 L245.6022,655.3949 C247.6432,637.2309 248.6102,617.0289 249.5442,597.4909 C252.4872,535.9509 255.5302,472.3159 292.6542,462.3679 C329.7782,452.4219 364.2312,506.0089 397.5492,557.8329 C430.6722,609.3539 464.9202,662.6309 501.3422,652.8709 C537.7602,643.1129 540.7842,579.8479 543.7092,518.6669 C546.6522,457.1279 549.6942,393.4949 586.8152,383.5479 C623.9392,373.5969 658.3922,427.1889 691.7102,479.0119 C724.8352,530.5339 759.0922,583.8089 795.5062,574.0499 C831.9252,564.2919 834.9502,501.0269 837.8762,439.8459 C840.8182,378.3069 843.8612,314.6729 880.9842,304.7259 C918.0982,294.7739 952.5592,348.3659 985.8792,400.1889 C1019.0032,451.7099 1053.2592,504.9879 1089.6742,495.2279 C1126.0932,485.4699 1129.1182,422.2049 1132.0432,361.0239 C1134.9862,299.4849 1138.0292,235.8509 1175.1512,225.9039 C1212.2772,215.9529 1246.7292,269.5439 1280.0502,321.3679 C1313.1752,372.8899 1347.4282,426.1569 1383.8452,416.4059 C1420.2612,406.6469 1423.2912,343.3889 1426.2202,282.2139 C1428.5442,233.6969 1430.9462,183.5279 1450.0272,159.9849 L1450.8042,160.6149 C1431.9292,183.9029 1429.5352,233.9059 1427.2202,282.2619 C1424.2722,343.7949 1421.2262,407.4239 1384.1032,417.3709 C1346.9632,427.3229 1312.5262,373.7309 1279.2082,321.9089 C1246.0832,270.3879 1211.8212,217.1069 1175.4112,226.8699 C1138.9932,236.6279 1135.9682,299.8909 1133.0422,361.0719 C1130.0992,422.6119 1127.0562,486.2459 1089.9322,496.1939 C1086.9012,497.0059 1083.8822,497.3949 1080.8852,497.3949 C1047.1832,497.4009 1015.6362,448.3219 985.0382,400.7299 C951.9132,349.2079 917.6532,295.9349 881.2422,305.6919 C844.8252,315.4499 841.8002,378.7129 838.8742,439.8929 C835.9312,501.4329 832.8882,565.0689 795.7642,575.0159 C792.7332,575.8279 789.7132,576.2169 786.7162,576.2179 C753.0152,576.2229 721.4672,527.1439 690.8692,479.5529 C657.7452,428.0319 623.4922,374.7549 587.0742,384.5139 Z M276.6377,402.4475 C240.2207,412.2055 237.1937,475.4675 234.2667,536.6465 C232.0447,583.1055 229.7457,631.1465 212.8077,655.7345 L211.9847,655.1675 C228.7617,630.8145 231.0527,582.9175 233.2677,536.5985 C236.2117,475.0615 239.2567,411.4285 276.3787,401.4815 C313.5037,391.5335 347.9557,445.1225 381.2747,496.9465 C414.3997,548.4675 448.6557,601.7405 485.0697,591.9845 C521.4867,582.2265 524.5117,518.9635 527.4377,457.7825 C530.3797,396.2425 533.4227,332.6075 570.5477,322.6595 C607.6707,312.7095 642.1237,366.3005 675.4427,418.1235 C708.5667,469.6445 742.8187,522.9235 779.2377,513.1625 C815.6537,503.4045 818.6787,440.1415 821.6037,378.9615 C824.5457,317.4215 827.5877,253.7855 864.7107,243.8385 C901.8377,233.8915 936.2857,287.4785 969.6037,339.3015 C1002.7297,390.8255 1036.9947,444.0975 1073.3987,434.3425 C1109.8167,424.5835 1112.8417,361.3205 1115.7677,300.1385 C1118.7097,238.5995 1121.7517,174.9645 1158.8747,165.0175 C1195.9977,155.0715 1230.4467,208.6585 1263.7647,260.4835 C1296.8867,312.0055 1331.1297,365.2805 1367.5527,355.5235 C1403.9697,345.7655 1406.9967,282.5045 1409.9237,221.3255 C1412.7927,161.3685 1415.7587,99.3705 1450.2477,87.0755 L1450.5837,88.0175 C1416.7257,100.0875 1413.7757,161.7455 1410.9227,221.3735 C1407.9787,282.9105 1404.9337,346.5425 1367.8107,356.4895 C1364.7797,357.3015 1361.7617,357.6905 1358.7647,357.6905 C1325.0677,357.6955 1293.5197,308.6155 1262.9237,261.0245 C1229.8007,209.5025 1195.5477,156.2245 1159.1347,165.9835 C1122.7157,175.7415 1119.6917,239.0055 1116.7657,300.1865 C1113.8237,361.7255 1110.7817,425.3605 1073.6587,435.3075 C1070.6257,436.1205 1067.6067,436.5095 1064.6107,436.5095 C1030.9087,436.5145 999.3607,387.4345 968.7627,339.8425 C935.6387,288.3225 901.3797,235.0475 864.9707,244.8045 C828.5527,254.5625 825.5277,317.8275 822.6027,379.0095 C819.6597,440.5475 816.6177,504.1815 779.4967,514.1285 C776.4647,514.9405 773.4457,515.3295 770.4487,515.3295 C736.7477,515.3345 705.1987,466.2555 674.6007,418.6645 C641.4767,367.1435 607.2257,313.8675 570.8057,323.6255 C534.3877,333.3845 531.3617,396.6495 528.4357,457.8305 C525.4937,519.3695 522.4507,583.0035 485.3277,592.9505 C482.2967,593.7625 479.2777,594.1515 476.2807,594.1525 C442.5797,594.1565 411.0307,545.0775 380.4337,497.4865 C347.3087,445.9655 313.0577,392.6885 276.6377,402.4475 Z M87.1084,575.7717 C106.4124,605.7937 126.3734,636.8377 146.5614,655.0797 L145.8914,655.8217 C125.6044,637.4907 105.6064,606.3897 86.2674,576.3127 C58.6104,533.3007 30.0134,488.8257 0.2924,481.2467 L0.5394,480.2777 C30.6414,487.9537 59.3474,532.5977 87.1084,575.7717 Z M7.314,573.9973 C41.085,564.9483 71.842,607.2343 102.996,655.1783 L102.157,655.7233 C71.213,608.1013 40.695,566.0843 7.573,574.9633 C5.181,575.6043 2.851,576.5083 0.646,577.6493 L0.186,576.7613 C2.455,575.5863 4.853,574.6573 7.314,573.9973 Z M61.8853,496.9172 C41.8363,465.7342 21.1033,433.4892 0.0913,415.5482 L0.7403,414.7882 C21.8653,432.8252 42.6373,465.1322 62.7263,496.3762 C95.8503,547.8962 130.1023,601.1702 166.5213,591.4112 C202.9403,581.6522 205.9663,518.3882 208.8913,457.2062 C211.8343,395.6672 214.8773,332.0332 251.9993,322.0862 C289.1213,312.1352 323.5753,365.7262 356.8943,417.5502 C390.0183,469.0712 424.2693,522.3492 460.6893,512.5892 C497.1073,502.8312 500.1323,439.5672 503.0573,378.3872 C506.0003,316.8472 509.0433,253.2112 546.1673,243.2642 C583.2893,233.3172 617.7433,286.9042 651.0623,338.7282 C684.1863,390.2492 718.4363,443.5272 754.8583,433.7672 C791.2743,424.0092 794.2993,360.7462 797.2233,299.5662 C800.1663,238.0252 803.2083,174.3902 840.3323,164.4432 C877.4453,154.4972 911.9063,208.0842 945.2233,259.9072 C978.3493,311.4302 1012.6143,364.6982 1049.0183,354.9462 C1085.4373,345.1882 1088.4623,281.9242 1091.3873,220.7432 C1094.3303,159.2042 1097.3723,95.5692 1134.4953,85.6222 C1171.6193,75.6722 1206.0663,129.2632 1239.3853,181.0872 C1272.5073,232.6092 1306.7503,285.8852 1343.1743,276.1282 C1379.5913,266.3702 1382.6163,203.1062 1385.5413,141.9262 C1388.4843,80.3862 1391.5273,16.7502 1428.6503,6.8042 L1428.9103,7.7702 C1392.4913,17.5282 1389.4663,80.7922 1386.5403,141.9742 C1383.5973,203.5132 1380.5543,267.1472 1343.4313,277.0942 C1340.4003,277.9062 1337.3833,278.2942 1334.3853,278.2952 C1300.6873,278.2992 1269.1393,229.2202 1238.5433,181.6282 C1205.4203,130.1072 1171.1683,76.8292 1134.7553,86.5882 C1098.3373,96.3462 1095.3113,159.6102 1092.3853,220.7912 C1089.4433,282.3312 1086.4003,345.9652 1049.2773,355.9122 C1046.2463,356.7252 1043.2263,357.1132 1040.2303,357.1142 C1006.5293,357.1192 974.9803,308.0392 944.3833,260.4472 C911.2593,208.9262 877.0123,155.6522 840.5903,165.4092 C804.1723,175.1672 801.1483,238.4322 798.2223,299.6142 C795.2803,361.1522 792.2383,424.7862 755.1163,434.7322 C752.0853,435.5452 749.0663,435.9342 746.0693,435.9342 C712.3683,435.9392 680.8193,386.8602 650.2213,339.2692 C617.0973,287.7472 582.8493,234.4722 546.4263,244.2302 C510.0073,253.9882 506.9823,317.2532 504.0563,378.4352 C501.1143,439.9742 498.0713,503.6082 460.9483,513.5552 C457.9163,514.3672 454.8973,514.7562 451.9003,514.7562 C418.1993,514.7612 386.6513,465.6822 356.0533,418.0912 C322.9293,366.5702 288.6763,313.2942 252.2583,323.0522 C215.8413,332.8112 212.8163,396.0742 209.8903,457.2542 C206.9473,518.7942 203.9043,582.4292 166.7803,592.3762 C163.7483,593.1892 160.7293,593.5782 157.7323,593.5782 C124.0313,593.5782 92.4823,544.5062 61.8853,496.9172 Z M0.3115,540.7522 C36.7255,532.9572 70.6175,585.6762 103.3915,636.6542 C107.3155,642.7592 111.3745,649.0722 115.3705,655.1772 L114.5335,655.7252 C110.5355,649.6162 106.4765,643.3012 102.5495,637.1952 C69.9595,586.5032 36.2605,534.0892 0.5205,541.7302 L0.3115,540.7522 Z" transform="translate(-6)"/>
</svg>
