<svg xmlns="http://www.w3.org/2000/svg" width="411" height="817" viewBox="0 0 411 817">
  <path fill="none" stroke="#2D2D3B" d="M-3.55271368e-13,662.347796 L-3.55271368e-13,650.770161 C16.4564588,655.255838 30.4439624,654.947046 39.7818304,645.609178 C65.4773457,619.913662 22.8084416,559.0141 -3.51718654e-13,508.341966 L-3.55271368e-13,437.712111 C44.2965181,411.073324 160.776953,524.614055 199.071477,486.319531 C238.892833,446.498175 114.517747,322.123089 154.339103,282.301733 C194.162148,242.478688 318.537234,366.853774 358.361124,327.029885 C398.184169,287.206839 273.809082,162.831753 313.631283,123.009553 C332.792092,103.848744 371.527049,122.700482 410.999999,142.985386 L411,151.748707 C378.044464,135.604659 347.671426,124.476163 331.404929,140.742661 C291.583573,180.564017 415.958659,304.939103 376.137303,344.760459 C336.314258,384.583504 211.939172,260.208418 172.116127,300.031463 C132.293082,339.854508 256.668168,464.229594 216.845967,504.051795 C177.022922,543.87484 52.647836,419.499754 12.8247909,459.322799 C-26.9982541,499.145844 97.376832,623.52093 57.5546315,663.34313 C45.003545,675.894217 24.0540874,672.135612 5.20508081e-11,662.347796 L-3.55271368e-13,662.347796 Z M-3.41060513e-13,688.571692 L-3.41060513e-13,679.95678 C37.1093513,698.834954 72.6152375,714.599147 90.6935186,696.520866 C130.515719,656.698665 6.14063302,532.323579 45.961989,492.502223 C85.785034,452.679178 210.16012,577.054264 249.983165,537.231219 C289.804521,497.409863 165.429435,373.034777 205.250791,333.213421 C245.073836,293.390376 369.448922,417.765462 409.272812,377.941573 C409.887225,377.327159 410.462552,376.692619 411,376.038573 L411,403.299003 C360.800524,410.040046 258.455445,315.515521 223.027815,350.943151 C183.20477,390.766196 307.579856,515.141282 267.757655,554.963483 C227.93461,594.786528 103.559524,470.411442 63.7364792,510.234487 C23.9134341,550.057532 148.28852,674.432618 108.46632,714.254819 C87.5101943,735.210944 43.141213,710.699151 -3.41060513e-13,688.571692 Z M411,305.989777 L411,327.444425 C391.706464,274.308873 336.027162,202.437051 364.542971,173.921241 C375.120092,163.34412 391.661934,164.35035 411,170.786785 L411,184.187239 C399.36227,182.643482 389.473915,184.497051 382.316617,191.654349 C360.409519,213.561447 388.196124,261.058552 411,305.989777 L411,305.989777 Z M411,215.217495 L411,274.404872 C401.059444,250.139904 397.159723,228.985731 409.797805,216.347648 C410.190374,215.955079 410.59116,215.578466 411,215.217495 L411,215.217495 Z M411,424.442476 L411,435.53977 C359.323924,413.513885 294.906878,366.745329 268.282649,393.369558 C228.459604,433.192603 352.83469,557.567689 313.012489,597.38989 C273.189444,637.212935 148.814358,512.837849 108.991313,552.660894 C69.1682681,592.483939 193.543354,716.859025 153.721154,756.681225 C125.169055,785.233324 53.1550793,729.382174 -3.55271368e-13,710.155123 L-3.53495011e-13,699.759487 C50.405324,722.705228 110.47611,764.419516 135.948353,738.947273 C175.770553,699.125072 51.395467,574.749986 91.216823,534.92863 C131.039868,495.105585 255.414954,619.480671 295.237999,579.657626 C335.059355,539.83627 210.684269,415.461184 250.505625,375.639828 C280.289759,345.855695 357.369968,407.919459 411,424.442476 L411,424.442476 Z M-3.41060513e-13,907.665729 L-3.41060513e-13,877.774246 C2.9379457,889.25067 3.43086467,899.468294 -3.41060513e-13,907.665729 L-3.41060513e-13,907.665729 Z M411,456.405045 L411,465.032496 C371.008546,444.458373 331.528032,424.876484 312.123269,444.281246 C272.300224,484.104291 396.67531,608.479378 356.85311,648.301578 C317.030065,688.124623 192.654979,563.749537 152.831934,603.572582 C113.008889,643.395627 237.383975,767.770713 197.561774,807.592914 C159.694222,845.460466 45.3785378,734.865247 -3.55271368e-13,758.146417 L-3.49054119e-13,737.232581 C52.4116614,740.176588 146.193173,823.454761 179.788973,789.858961 C219.611174,750.036761 95.2360875,625.661674 135.057443,585.840318 C174.880488,546.017273 299.255575,670.392359 339.07862,630.569314 C378.899976,590.747958 254.524889,466.372872 294.346245,426.551516 C316.631141,404.266621 365.3935,433.400354 411,456.405045 L411,456.405045 Z M-3.41060513e-13,850.749484 L-3.41060513e-13,832.939965 C15.2126306,865.837743 37.8623912,902.565588 44.403412,931 L28.3512789,931 C29.9846022,909.957243 15.3095327,880.516678 2.18491891e-13,850.749484 L-3.41060513e-13,850.749484 Z M411,485.584987 C386.22449,475.275585 364.571136,471.029339 351.721249,483.879226 C311.898204,523.702271 436.27329,648.077357 396.45109,687.899558 C356.628045,727.722603 232.252958,603.347517 192.429913,643.170562 C152.606868,682.993607 276.981954,807.368693 237.159754,847.190893 C197.335864,887.014783 72.9607782,762.639697 33.1368887,802.463586 C8.90065315,826.699822 45.4752643,882.24852 68.8453489,931.000018 L59.028824,931 C37.7174686,878.75989 -11.8672091,811.96093 15.3716883,784.722033 C55.1913552,744.902366 179.566441,869.277452 219.386953,829.456941 C259.209153,789.63474 134.834067,665.259654 174.655423,625.438298 C214.478468,585.615253 338.853554,709.990339 378.676599,670.167294 C418.497955,630.345938 294.122869,505.970852 333.944225,466.149496 C349.791811,450.30191 379.029421,460.457447 410.999986,475.920161 L411,485.584987 L411,485.584987 Z" transform="translate(0 -114)"/>
</svg>
