<svg xmlns="http://www.w3.org/2000/svg" width="1440" height="1258" viewBox="0 0 1440 1258">
  <defs>
    <linearGradient id="waves-front-grad-a" x1="38.038%" x2="91.092%" y1="34.505%" y2="69.612%">
      <stop offset="0%" stop-color="#E7DDF6"/>
      <stop offset="100%" stop-color="#D0EAFE"/>
    </linearGradient>
  </defs>
  <path fill="url(#waves-front-grad-a)" fill-rule="evenodd" d="M1.40509826e-12,167.79531 C42.4222314,169.785823 51.8635364,228.317448 100.897814,218.063402 C154.423629,206.750669 148.140632,136.750591 201.688098,125.747469 C255.2305,114.671938 261.453959,183.820589 314.951539,172.068237 C368.447198,160.288419 362.279086,91.9312698 415.807346,80.6534938 C469.344133,69.3901757 475.452882,136.898394 528.951335,125.158526 C582.458965,113.478233 576.405039,46.7540268 629.958888,35.7705308 C683.522215,24.8867345 689.514808,90.7696755 743.05661,79.6138966 C789.544201,70.0570645 791.193529,19.726284 825.899052,3.10862447e-15 L881.470539,0 C905.425864,14.6994199 919.46829,44.7940177 957.40201,37.7182168 C982.417255,33.1618133 994.498566,16.9191415 1005.71749,1.14393053e-05 L1146.81524,0 C1154.04739,2.38970443 1162.30434,3.26477183 1172.1815,1.74367937 C1175.084,1.31397171 1177.81315,0.727019126 1180.38768,1.11022302e-16 L1440,0 L1440,70.599382 C1430.87994,95.4557397 1419.68559,116.664596 1398.19198,119.213375 C1344.33374,126.023003 1333.36847,0.744491776 1279.49631,7.31924151 C1225.65283,14.2683449 1236.73172,141.207438 1183.01482,149.966761 C1129.32115,159.058165 1118.13249,30.51342 1064.40559,39.1655521 C1010.70376,48.1044736 1022.0094,178.32211 968.423375,188.881315 C914.851969,199.685387 903.430696,67.8499633 849.816562,78.0071751 C796.218889,88.3639608 807.758015,221.884761 754.262879,233.672069 C700.771438,245.619699 689.118475,110.470951 635.572483,121.566806 C582.026867,132.775542 593.795888,269.619828 540.33954,282.069326 C486.89075,294.591058 475.004351,156.104016 421.479037,167.567257 C367.960631,179.057614 379.963787,319.250182 326.516218,331.789392 C273.072589,344.313273 260.951182,202.465465 207.416714,213.726112 C153.875561,224.927009 166.116916,368.490155 112.638318,380.549795 C61.4896935,391.984575 47.9555417,259.670141 3.19744231e-14,257.25862 L4.4408921e-14,167.79531 L1.40509826e-12,167.79531 Z M1440,206.644607 L1440,359.317311 C1432.59391,368.902443 1423.67387,375.366846 1412.10155,376.330852 C1358.12415,381.20635 1354.25444,255.16182 1300.26366,259.810023 C1246.30357,264.789649 1250.3055,392.653297 1196.48625,399.647066 C1142.68655,406.920369 1138.5653,277.31445 1084.73326,284.161139 C1030.92245,291.239592 1035.16901,422.637524 981.482105,431.488023 C927.808116,440.523215 923.442001,307.415633 869.723856,315.819377 C816.020298,324.360043 820.512122,459.229514 766.918042,469.299956 C713.322589,479.458276 708.713134,342.906609 655.062058,352.233639 C601.410931,361.595786 606.139013,499.87974 552.575971,510.537402 C499.014551,521.18241 494.170758,381.243714 440.536735,390.850453 C386.901192,400.399613 391.864186,542.042968 338.302118,552.642877 C284.737532,563.135116 279.655934,419.867318 226.002116,429.119299 C172.337477,438.216538 177.531194,583.159393 123.923102,593.065284 C70.3006981,602.766516 64.9929646,456.228993 11.2696847,464.48763 C7.27090331,465.083574 3.51146315,465.022475 -4.22772928e-13,464.394951 L-2.97539771e-14,352.588056 C0.230296162,352.543627 0.46179709,352.501085 0.694504437,352.460446 C54.3610702,342.889052 64.5446698,488.521311 118.107218,477.462396 C171.659295,466.253731 161.590882,322.268727 215.200553,311.883689 C268.803416,301.401314 278.750134,443.681834 332.264338,431.931572 C385.777546,420.131219 375.943173,279.493135 429.527013,268.738713 C483.113348,257.984117 492.830664,396.912376 546.343697,385.109526 C599.86254,373.353924 590.260062,236.067928 643.870232,225.582534 C697.479554,215.192504 706.959813,350.766528 760.516353,339.550027 C814.07571,328.481304 804.710289,194.549542 858.371343,184.97101 C912.055986,175.586455 921.301857,307.808566 974.94177,297.820193 C1028.60128,288.076237 1019.47007,157.493893 1073.24914,149.459588 C1127.05111,141.717121 1136.06027,270.58999 1189.83804,262.465485 C1243.63473,254.68326 1234.73559,127.455499 1288.67003,121.607375 C1342.63419,116.148428 1351.41128,241.666713 1405.36926,236.047683 C1421.28796,234.52038 1431.75934,222.671929 1440,206.644607 L1440,206.644607 Z M1440,588.143009 C1435.00935,591.658718 1429.41087,593.894077 1423.0152,594.445639 C1369.10395,599.529029 1366.22052,473.311699 1312.30548,478.30511 C1258.42461,483.679668 1261.44368,611.765084 1207.71562,619.324888 C1154.00988,627.203997 1150.86678,497.344939 1097.13837,504.899753 C1043.42862,512.721487 1046.6994,644.406572 993.12472,654.124007 C939.564689,664.050986 936.175338,530.634493 882.573566,540.000368 C828.992402,549.517714 832.509492,684.725136 779.04084,695.851482 C725.571516,707.075639 721.936507,570.181886 668.411538,580.610274 C614.889533,591.08107 618.646823,729.723519 565.217096,741.513944 C511.786323,753.289402 507.911238,612.998214 454.410914,623.743239 C400.905531,634.415921 404.894598,776.408756 351.464099,788.116512 C298.021688,799.689735 293.919934,656.085406 240.389432,666.398869 C186.848165,676.522571 191.066269,821.79078 137.577333,832.662854 C84.0711283,843.287965 79.7408114,696.450844 26.1278006,705.584374 C15.4116312,707.348548 6.68155302,703.567895 -7.99716158e-07,696.322995 L-1.05879118e-22,589.510383 C5.81695711,582.45023 13.2349693,577.60761 22.2916165,576.235028 C75.9536442,567.802472 80.2701306,714.477621 133.828019,704.555805 C187.366321,694.389695 183.159381,549.281139 236.750363,539.86839 C290.328436,530.271044 294.421343,673.713051 347.911675,662.860934 C401.398094,651.881245 397.415032,510.045917 450.974017,500.10397 C504.527943,490.089681 508.386531,630.216575 561.869287,619.1845 C615.350648,608.132469 611.607363,469.654487 665.181698,459.932063 C718.759174,450.254542 722.38267,586.983653 775.902531,576.518021 C829.424037,566.14753 825.921127,431.10707 879.555668,422.353063 C933.208675,413.755692 936.589179,547.009863 990.203287,537.856202 C1043.8324,528.917073 1040.57562,397.396456 1094.33765,390.358192 C1148.12118,383.591663 1151.2501,513.283758 1205.01363,506.195255 C1258.79484,499.431394 1255.79244,371.512766 1309.72699,366.941635 C1363.69837,362.753971 1366.57261,488.80399 1420.53522,484.526696 C1428.01055,483.995641 1434.39828,481.157005 1440,476.656303 L1440,588.143009 Z M3.86357613e-13,830.895933 C6.92745593,816.35889 15.8873113,805.918906 28.7672023,803.367076 C82.2304138,792.603173 96.1743121,937.444411 149.505761,925.203405 C202.823839,912.838263 189.024229,769.645953 242.418356,758.121223 C295.805518,746.516907 309.455833,888.003087 362.732439,875.135339 C416.006434,862.237747 402.50019,722.398007 455.86808,710.544767 C509.239547,698.703743 522.597367,836.8473 575.874722,823.959438 C629.162499,811.133317 615.945389,674.62647 669.340361,663.054051 C722.744256,651.583601 735.807961,786.394701 789.138949,774.091083 C842.475743,761.939829 829.549823,628.760683 883.016421,618.064148 C936.505626,607.56863 949.279012,739.061978 1002.71403,727.947179 C1056.17037,717.076113 1043.53617,587.202066 1097.1354,577.992582 C1150.76735,569.070944 1163.25194,697.263949 1216.84614,687.939623 C1270.46972,678.951052 1258.12388,552.372374 1311.90819,545.249323 C1365.73349,538.508629 1377.93286,663.413509 1431.74162,656.483796 C1434.68403,656.128495 1437.42965,655.424401 1440,654.409972 L1440,765.553183 C1388.25626,769.254148 1375.63093,648.188286 1322.67037,655.536489 C1268.94917,663.38079 1281.29218,789.927136 1227.73399,799.634253 C1174.20312,809.682316 1161.71638,681.522078 1108.15523,691.166801 C1054.61435,701.100458 1067.248,830.939469 1013.85249,842.53449 C960.483514,854.375295 947.710467,722.914497 894.285027,734.138727 C840.88674,745.558564 853.807558,878.708083 800.534095,891.583074 C747.266873,904.615404 734.203724,769.839341 680.865868,782.035798 C627.535097,794.341903 640.746669,930.814149 587.525367,944.371251 C534.311777,957.987825 520.957222,819.881573 467.64952,832.451308 C414.345831,845.038235 427.851953,984.847912 374.639452,998.476921 C321.426829,1012.07587 307.779779,870.626994 254.456817,882.964995 C201.127109,895.225898 214.926597,1038.38815 161.67023,1051.48719 C108.40071,1064.46459 94.4623485,919.657951 41.0635556,931.158027 C19.0710357,935.825779 8.52397091,963.416423 -8.17124146e-14,995.095794 L-3.99680289e-14,830.895933 L3.86357613e-13,830.895933 Z M4.17443857e-14,1097.9409 C11.8469888,1055.33129 21.8725915,1008.92058 51.2551749,1003.88198 C104.941435,994.501789 115.769952,1140.1458 169.353664,1129.2991 C222.928466,1118.32499 212.21293,974.332531 265.847129,964.207842 C319.47307,954.000882 330.069112,1096.2845 383.606829,1084.81589 C437.14477,1073.31463 426.666697,932.682228 480.278011,922.23026 C533.894837,911.785438 544.250747,1050.70668 597.79385,1039.20757 C651.340797,1027.76343 641.09717,890.483749 694.729321,880.293929 C748.367762,870.194048 758.491894,1005.76488 812.071461,994.823072 C865.655998,984.024014 855.646817,850.097066 909.332854,840.749525 C963.034487,831.589183 972.924873,963.81728 1026.5866,954.014524 C1080.25975,944.446957 1070.48896,813.857401 1124.28043,805.946038 C1178.09612,798.30914 1187.74812,927.199847 1241.53589,919.128069 C1295.33855,911.376598 1285.79866,784.124956 1339.73129,778.232226 C1387.45794,773.345245 1400.34719,870.965513 1440,889.638806 L1440,994.117495 C1406.55782,967.481738 1392.26612,883.967961 1348.05034,889.1002 C1294.16605,895.720112 1303.70507,1022.95926 1249.95325,1031.43774 C1196.21915,1040.24135 1186.56339,911.368479 1132.80139,919.737207 C1079.05878,928.383246 1088.83299,1058.94997 1035.20638,1069.25489 C981.600656,1079.7868 971.711493,947.57619 918.056058,957.468885 C864.423702,967.548256 874.43166,1101.45772 820.89866,1112.99377 C767.370454,1124.67009 757.250038,989.116567 703.66261,999.945954 C650.079675,1010.87545 660.32173,1148.13264 606.828813,1160.31361 C553.337246,1172.54972 542.979891,1033.64364 489.417095,1044.82529 C435.857317,1056.01426 446.334166,1196.62918 392.845268,1208.86761 C339.358737,1221.06822 328.766762,1078.80692 275.189863,1089.75105 C221.609694,1100.61257 232.321513,1244.58771 178.800916,1256.30115 C125.268915,1267.88735 114.441271,1122.25583 60.8068969,1132.37802 C24.0719534,1139.18972 17.6252424,1210.43263 -3.71436215e-11,1258.07161 L4.08562073e-14,1097.9409 L4.17443857e-14,1097.9409 Z"/>
</svg>
