<svg xmlns="http://www.w3.org/2000/svg" xmlns:xlink="http://www.w3.org/1999/xlink" width="1440" height="599" viewBox="0 0 1440 599">
  <defs>
    <linearGradient id="waves-skew-b" x1="84.712%" x2="7.548%" y1="44.574%" y2="55.172%">
      <stop offset="0%" stop-color="#E7DDF6"/>
      <stop offset="100%" stop-color="#D0EAFE"/>
    </linearGradient>
    <path id="waves-skew-a" d="M1310.96571,240.363921 C1374.07179,226.529635 1400.08821,164.352492 1440,116.327849 L1440,155.439278 C1388.9925,203.881778 1365.45429,283.795349 1294.91679,299.256064 C1201.96286,317.268921 1265.82429,174.998207 1165.23964,190.892849 C1064.38821,204.415349 1074.77357,335.837849 980.858571,345.139992 C886.795714,352.150349 929.423571,216.124992 827.951786,220.174992 C726.438214,221.849635 758.629286,355.763207 664.383214,354.066064 C570.195,350.083564 591.148929,217.773921 489.857143,209.976064 C388.716429,199.809278 442.382143,338.743564 348.7725,326.050349 C255.416786,311.068564 254.478214,179.944992 154.391786,160.302492 C54.675,138.287849 129.259286,284.775707 37.2632143,261.083207 C22.8664286,257.036421 10.6682143,251.970707 1.13686838e-13,246.011421 L1.13686838e-13,195.158207 C5.22642857,197.440349 10.71,199.439635 16.5310714,201.075707 C111.230357,225.465707 35.7589286,78.7657066 138.191786,101.378207 C241.010357,121.557492 241.052143,252.520349 337.152857,267.942492 C433.510714,281.011778 378.945,141.968207 482.840357,152.411421 C586.893214,160.421421 565.036071,292.676421 661.991786,296.777849 C759.002143,298.526421 725.907857,164.609635 830.192143,162.886778 C934.425,158.727492 890.897143,294.804278 987.721071,287.584992 C1084.39393,278.012849 1073.11179,146.696421 1176.70821,132.804278 C1280.03464,116.475707 1215.27964,258.907135 1310.96571,240.363921 Z M1153.76786,248.981421 C1251.61071,233.520707 1188.64286,375.633921 1278.86786,358.151421 C1355.51571,341.347135 1375.88143,243.176421 1440,199.307849 L1440,247.949635 C1361.30786,282.480707 1344.41036,399.156064 1262.81893,417.043564 C1175.32607,433.995707 1237.39714,292.039992 1142.29607,307.066778 C1046.9475,319.853207 1055.52643,451.484635 967.130357,460.240349 C878.592857,466.839278 919.414286,330.916778 823.4775,334.741778 C727.498929,336.329635 757.877143,470.243207 669.166071,468.645707 C580.512857,464.894635 599.657143,332.475707 503.890714,325.105349 C408.265714,315.491421 460.131429,454.216778 372.021429,442.269278 C284.149286,428.168207 281.417143,296.726421 186.791786,278.151064 C92.5135714,257.338564 165.326786,403.405349 78.7307143,381.104635 C41.4578571,370.616421 19.5428571,352.098921 1.13686838e-13,328.277849 L1.13686838e-13,284.643921 C15.9814286,301.223207 34.29,314.424278 57.9985714,321.093921 C147.294643,344.088921 73.5975,197.816421 170.591786,219.226778 C267.949286,238.335707 269.784643,369.616778 360.398571,384.158207 C451.256786,396.481778 398.491071,257.650349 496.877143,267.540707 C595.404643,275.123207 575.357143,407.487492 666.774643,411.357492 C758.253214,413.003207 726.968571,279.092849 825.714643,277.456778 C924.415714,273.519278 882.694286,409.496421 973.992857,402.688564 C1065.15,393.659635 1055.67107,262.134278 1153.76786,248.981421 Z M1130.8275,365.152135 C1223.18036,350.559278 1162.00607,492.357492 1246.77,475.935707 C1331.21893,457.421421 1345.42286,325.336778 1436.445,302.036421 C1437.66321,301.695707 1438.83643,301.387135 1440,301.094635 L1440,358.308921 C1433.64214,358.119278 1425.735,359.237849 1415.86071,362.005349 C1327.53857,384.611421 1312.45393,516.911421 1230.72107,534.827849 C1148.68929,550.725707 1208.97,409.081778 1119.35571,423.240707 C1029.51,435.294278 1036.28571,567.131421 953.405357,575.343921 C870.393214,581.531421 909.401786,445.711778 819,449.314992 C728.556429,450.812849 757.128214,584.723207 673.952143,583.228564 C590.830714,579.708921 608.168571,447.183921 517.924286,440.234635 C427.815,431.176778 477.8775,569.689992 395.267143,558.491421 C312.878571,545.264635 308.359286,413.504635 219.188571,395.999635 C130.348929,376.389278 201.387857,522.031778 120.198214,501.122849 C58.1978571,483.678921 40.4839286,439.900349 1.13686838e-13,386.369635 L1.13686838e-13,346.348564 C28.6553571,387.549278 53.8746429,428.283921 99.4628571,441.112135 C183.355714,462.718564 111.432857,316.867135 202.988571,337.075349 C294.891429,355.113921 298.513929,486.716421 383.644286,500.380349 C469.006071,511.951778 418.040357,373.335707 510.9075,382.669992 C603.912857,389.831421 585.675,522.301778 671.5575,525.937135 C757.504286,527.483207 728.026071,393.569635 821.240357,392.029992 C914.406429,388.314278 874.494643,524.185349 960.267857,517.792135 C1045.90929,509.309635 1038.22714,377.572135 1130.8275,365.152135 Z M1395.27321,421.974278 C1423.67786,414.018921 1435.27821,420.315707 1440,433.024992 L1440,583.704278 L1439.64321,584.591421 C1392.96857,561.705707 1456.73679,458.967492 1374.68893,481.943207 C1291.77321,503.170349 1274.91429,635.891421 1198.62643,652.615349 C1122.0525,667.449278 1180.54286,526.123564 1096.41536,539.414635 C1012.06607,550.732135 1017.04179,682.781421 939.677143,690.444278 C862.190357,696.217135 899.3925,560.506778 814.525714,563.884992 C729.617143,565.292849 756.379286,699.203207 678.738214,697.804992 C601.148571,694.519992 616.676786,561.888921 531.957857,555.363921 C447.364286,546.862135 495.626786,685.163207 418.516071,674.707135 C341.611071,662.361064 335.298214,530.282849 251.588571,513.848207 C168.184286,495.439992 237.455357,640.654992 161.665714,621.141064 C85.7635714,599.782135 79.2032143,531.279278 2.57464286,456.338207 C1.8675,455.647135 1.14107143,454.917492 0.414642857,454.187849 C0.276428571,453.843921 0.138214286,453.496778 1.13686838e-13,453.149635 L1.13686838e-13,410.184278 C54.0482143,461.648207 77.2167857,543.204278 140.933571,561.133564 C219.42,581.341778 149.268214,435.914635 235.388571,454.923921 C321.833571,471.892135 327.243214,603.812849 406.89,616.599278 C486.752143,627.424992 437.586429,489.021064 524.941071,497.799278 C612.424286,504.536421 595.989643,637.116064 676.346786,640.516778 C756.748929,641.959992 729.086786,508.049635 816.762857,506.599992 C904.400357,503.106064 866.291786,638.874278 946.539643,632.892492 C1026.66214,624.956421 1020.78964,493.013207 1107.88393,481.329278 C1194.75643,467.601064 1135.3725,609.087492 1214.67536,593.723207 C1293.6825,576.401421 1309.6575,443.889278 1395.27321,421.974278 Z"/>
  </defs>
  <g fill="none" fill-rule="evenodd" transform="matrix(1 0 0 -1 0 697.816)">
    <use fill="#D3DEFF" xlink:href="#waves-skew-a"/>
    <use fill="url(#waves-skew-b)" xlink:href="#waves-skew-a"/>
  </g>
</svg>
