<svg xmlns="http://www.w3.org/2000/svg" width="670" height="446" viewBox="0 0 670 446">
  <defs>
    <linearGradient id="waves-splat-a" x1="77.615%" x2="37.667%" y1="46.705%" y2="62.219%">
      <stop offset="0%" stop-color="#E7DDF6"/>
      <stop offset="100%" stop-color="#D0EAFE"/>
    </linearGradient>
  </defs>
  <path fill="url(#waves-splat-a)" fill-rule="evenodd" d="M11.4938567,446.078082 C6.9517164,447.295144 2.28441659,444.59821 1.06646656,440.052758 C-0.151483461,435.507307 2.5420494,430.838043 7.08418967,429.62098 C11.6263299,428.403918 16.2936298,431.100852 17.5115798,435.646304 C18.7295298,440.191755 16.0359969,444.861019 11.4938567,446.078082 Z M319.76296,188.656283 C319.76296,188.656283 301.145689,187.534731 304.669681,170.295878 C308.190384,153.057907 324.442226,139.562882 334.345156,147.340908 C342.079009,153.417693 340.284574,189.267567 319.76296,188.656283 Z M68.1788286,446.219899 C68.1788286,446.219899 43.9431196,444.758799 48.5301452,422.317447 C53.1105927,399.877857 86.1346291,400.299977 99.02877,410.426777 C109.096608,418.333475 94.8878826,447.018269 68.1788286,446.219899 Z M611.427516,0.785992284 L669.861633,0.785992284 L669.861633,48.02923 C660.534545,42.1152944 648.764426,41.2569914 632.663004,49.1007826 C556.571567,88.5003782 576.583711,228.572486 494.987037,274.488337 C468.104729,290.42257 444.865875,283.169932 425.065955,262.373604 C395.630551,231.455727 362.117082,106.381757 404.848214,121.139517 C447.578465,135.893986 421.947463,253.458545 499.595706,207.436521 C569.751041,167.954665 562.514249,52.7566563 611.427516,0.785992284 Z M669.861633,216.245877 L669.861633,262.006857 C668.551811,261.765356 667.806471,261.619847 667.806471,261.619847 C661.832348,260.715917 655.672712,260.172136 649.266506,260.08953 C545.673211,261.078827 663.150903,390.606536 552.131928,395.536375 C441.385893,403.063574 405.406353,268.970285 302.840519,279.530179 C200.659546,292.565723 294.727624,420.492118 185.464018,437.774919 C140.762947,444.845457 100.699651,394.839868 162.492825,380.75185 C267.478731,356.818965 175.737267,235.878477 275.006228,223.210459 C374.643293,212.955554 411.581279,346.968415 519.38765,339.639765 C627.459191,334.840003 510.95901,202.51393 611.583325,204.323922 C634.545624,204.738037 654.040648,209.514237 669.861633,216.245877 Z" transform="translate(.138 -.786)"/>
</svg>
