<svg xmlns="http://www.w3.org/2000/svg" xmlns:xlink="http://www.w3.org/1999/xlink" width="1440" height="248" viewBox="0 0 1440 248">
  <defs>
    <linearGradient id="zigzag-grad-b" x1="84.712%" x2="7.548%" y1="49.07%" y2="50.887%">
      <stop offset="0%" stop-color="#E7DDF6"/>
      <stop offset="100%" stop-color="#D0EAFE"/>
    </linearGradient>
    <path id="zigzag-grad-a" d="M1152,9671.77032 L1123.53859,9653.33372 L1094.72126,9672 L1065.90327,9653.33372 L1037.08594,9672 L1008.27199,9653.33372 L979.454668,9672 L950.63667,9653.33372 L921.817323,9672 L892.999326,9653.33372 L864.354562,9671.88519 L864.354562,9672 L864.265931,9671.94259 L864.177281,9672 L864.177281,9671.88516 L835.538587,9653.33372 L806.721264,9672 L777.903266,9653.33372 L749.085943,9672 L720.271991,9653.33372 L691.454668,9672 L662.63667,9653.33372 L633.817323,9672 L604.999326,9653.33372 L576.354562,9671.88519 L576.354562,9672 L576.265931,9671.94259 L576.177281,9672 L576.177281,9671.88516 L547.538587,9653.33372 L518.721264,9672 L489.903266,9653.33372 L461.085943,9672 L432.271991,9653.33372 L403.454668,9672 L374.63667,9653.33372 L345.817323,9672 L316.999326,9653.33372 L288.177281,9672 L259.361306,9653.33372 L230.543983,9672 L201.725985,9653.33372 L172.908662,9672 L144.094711,9653.33372 L115.277387,9672 L86.4593894,9653.33372 L57.6400426,9672 L28.8220447,9653.33372 L1.08002496e-12,9672 L-5.68434189e-14,9658.66694 L28.8220447,9640 L57.6400426,9658.66694 L86.4593894,9640 L115.277387,9658.66694 L144.094711,9640 L172.908662,9658.66694 L201.725985,9640 L230.543983,9658.66694 L259.361306,9640 L288.177281,9658.66694 L316.999326,9640 L345.817323,9658.66694 L374.63667,9640 L403.454668,9658.66694 L432.271991,9640 L461.085943,9658.66694 L489.903266,9640 L518.721264,9658.66694 L547.538587,9640 L576.265931,9658.60953 L604.999326,9640 L633.817323,9658.66694 L662.63667,9640 L691.454668,9658.66694 L720.271991,9640 L749.085943,9658.66694 L777.903266,9640 L806.721264,9658.66694 L835.538587,9640 L864.265931,9658.60953 L892.999326,9640 L921.817323,9658.66694 L950.63667,9640 L979.454668,9658.66694 L1008.27199,9640 L1037.08594,9658.66694 L1065.90327,9640 L1094.72126,9658.66694 L1123.53859,9640 L1152.1773,9658.55211 L1180.82204,9640 L1209.64004,9658.66694 L1238.45939,9640 L1267.27739,9658.66694 L1296.09471,9640 L1324.90866,9658.66694 L1353.72599,9640 L1382.54398,9658.66694 L1411.36131,9640 L1440.17728,9658.66694 L1440.17728,9672 L1411.36131,9653.33372 L1382.54398,9672 L1353.72599,9653.33372 L1324.90866,9672 L1296.09471,9653.33372 L1267.27739,9672 L1238.45939,9653.33372 L1209.64004,9672 L1180.82204,9653.33372 L1152.35456,9671.77037 L1152.35456,9672 L1152.1773,9671.88517 L1152,9672 L1152,9671.77032 Z M1152,9644.77032 L1123.53859,9626.33333 L1094.72126,9645 L1065.90327,9626.33333 L1037.08594,9645 L1008.27199,9626.33333 L979.454668,9645 L950.63667,9626.33333 L921.817323,9645 L892.999326,9626.33333 L864.354562,9644.88518 L864.354562,9645 L864.265931,9644.94259 L864.177281,9645 L864.177281,9644.88516 L835.538587,9626.33333 L806.721264,9645 L777.903266,9626.33333 L749.085943,9645 L720.271991,9626.33333 L691.454668,9645 L662.63667,9626.33333 L633.817323,9645 L604.999326,9626.33333 L576.354562,9644.88518 L576.354562,9645 L576.265931,9644.94259 L576.177281,9645 L576.177281,9644.88516 L547.538587,9626.33333 L518.721264,9645 L489.903266,9626.33333 L461.085943,9645 L432.271991,9626.33333 L403.454668,9645 L374.63667,9626.33333 L345.817323,9645 L316.999326,9626.33333 L288.177281,9645 L259.361306,9626.33333 L230.543983,9645 L201.725985,9626.33333 L172.908662,9645 L144.094711,9626.33333 L115.277387,9645 L86.4593894,9626.33333 L57.6400426,9645 L28.8220447,9626.33333 L1.08002496e-12,9645 L-5.68434189e-14,9631.66667 L28.8220447,9613 L57.6400426,9631.66667 L86.4593894,9613 L115.277387,9631.66667 L144.094711,9613 L172.908662,9631.66667 L201.725985,9613 L230.543983,9631.66667 L259.361306,9613 L288.177281,9631.66667 L316.999326,9613 L345.817323,9631.66667 L374.63667,9613 L403.454668,9631.66667 L432.271991,9613 L461.085943,9631.66667 L489.903266,9613 L518.721264,9631.66667 L547.538587,9613 L576.265931,9631.60925 L604.999326,9613 L633.817323,9631.66667 L662.63667,9613 L691.454668,9631.66667 L720.271991,9613 L749.085943,9631.66667 L777.903266,9613 L806.721264,9631.66667 L835.538587,9613 L864.265931,9631.60925 L892.999326,9613 L921.817323,9631.66667 L950.63667,9613 L979.454668,9631.66667 L1008.27199,9613 L1037.08594,9631.66667 L1065.90327,9613 L1094.72126,9631.66667 L1123.53859,9613 L1152.1773,9631.55184 L1180.82204,9613 L1209.64004,9631.66667 L1238.45939,9613 L1267.27739,9631.66667 L1296.09471,9613 L1324.90866,9631.66667 L1353.72599,9613 L1382.54398,9631.66667 L1411.36131,9613 L1440.17728,9631.66667 L1440.17728,9645 L1411.36131,9626.33333 L1382.54398,9645 L1353.72599,9626.33333 L1324.90866,9645 L1296.09471,9626.33333 L1267.27739,9645 L1238.45939,9626.33333 L1209.64004,9645 L1180.82204,9626.33333 L1152.35456,9644.77037 L1152.35456,9645 L1152.1773,9644.88517 L1152,9645 L1152,9644.77032 Z M1152,9617.77032 L1123.53859,9599.33333 L1094.72126,9618 L1065.90327,9599.33333 L1037.08594,9618 L1008.27199,9599.33333 L979.454668,9618 L950.63667,9599.33333 L921.817323,9618 L892.999326,9599.33333 L864.354562,9617.88518 L864.354562,9618 L864.265931,9617.94259 L864.177281,9618 L864.177281,9617.88516 L835.538587,9599.33333 L806.721264,9618 L777.903266,9599.33333 L749.085943,9618 L720.271991,9599.33333 L691.454668,9618 L662.63667,9599.33333 L633.817323,9618 L604.999326,9599.33333 L576.354562,9617.88518 L576.354562,9618 L576.265931,9617.94259 L576.177281,9618 L576.177281,9617.88516 L547.538587,9599.33333 L518.721264,9618 L489.903266,9599.33333 L461.085943,9618 L432.271991,9599.33333 L403.454668,9618 L374.63667,9599.33333 L345.817323,9618 L316.999326,9599.33333 L288.177281,9618 L259.361306,9599.33333 L230.543983,9618 L201.725985,9599.33333 L172.908662,9618 L144.094711,9599.33333 L115.277387,9618 L86.4593894,9599.33333 L57.6400426,9618 L28.8220447,9599.33333 L1.08002496e-12,9618 L-5.68434189e-14,9604.66667 L28.8220447,9586 L57.6400426,9604.66667 L86.4593894,9586 L115.277387,9604.66667 L144.094711,9586 L172.908662,9604.66667 L201.725985,9586 L230.543983,9604.66667 L259.361306,9586 L288.177281,9604.66667 L316.999326,9586 L345.817323,9604.66667 L374.63667,9586 L403.454668,9604.66667 L432.271991,9586 L461.085943,9604.66667 L489.903266,9586 L518.721264,9604.66667 L547.538587,9586 L576.265931,9604.60925 L604.999326,9586 L633.817323,9604.66667 L662.63667,9586 L691.454668,9604.66667 L720.271991,9586 L749.085943,9604.66667 L777.903266,9586 L806.721264,9604.66667 L835.538587,9586 L864.265931,9604.60925 L892.999326,9586 L921.817323,9604.66667 L950.63667,9586 L979.454668,9604.66667 L1008.27199,9586 L1037.08594,9604.66667 L1065.90327,9586 L1094.72126,9604.66667 L1123.53859,9586 L1152.1773,9604.55184 L1180.82204,9586 L1209.64004,9604.66667 L1238.45939,9586 L1267.27739,9604.66667 L1296.09471,9586 L1324.90866,9604.66667 L1353.72599,9586 L1382.54398,9604.66667 L1411.36131,9586 L1440.17728,9604.66667 L1440.17728,9618 L1411.36131,9599.33333 L1382.54398,9618 L1353.72599,9599.33333 L1324.90866,9618 L1296.09471,9599.33333 L1267.27739,9618 L1238.45939,9599.33333 L1209.64004,9618 L1180.82204,9599.33333 L1152.35456,9617.77037 L1152.35456,9618 L1152.1773,9617.88517 L1152,9618 L1152,9617.77032 Z M1152,9590.77032 L1123.53859,9572.33333 L1094.72126,9591 L1065.90327,9572.33333 L1037.08594,9591 L1008.27199,9572.33333 L979.454668,9591 L950.63667,9572.33333 L921.817323,9591 L892.999326,9572.33333 L864.354562,9590.88518 L864.354562,9591 L864.265931,9590.94259 L864.177281,9591 L864.177281,9590.88516 L835.538587,9572.33333 L806.721264,9591 L777.903266,9572.33333 L749.085943,9591 L720.271991,9572.33333 L691.454668,9591 L662.63667,9572.33333 L633.817323,9591 L604.999326,9572.33333 L576.354562,9590.88518 L576.354562,9591 L576.265931,9590.94259 L576.177281,9591 L576.177281,9590.88516 L547.538587,9572.33333 L518.721264,9591 L489.903266,9572.33333 L461.085943,9591 L432.271991,9572.33333 L403.454668,9591 L374.63667,9572.33333 L345.817323,9591 L316.999326,9572.33333 L288.177281,9591 L259.361306,9572.33333 L230.543983,9591 L201.725985,9572.33333 L172.908662,9591 L144.094711,9572.33333 L115.277387,9591 L86.4593894,9572.33333 L57.6400426,9591 L28.8220447,9572.33333 L1.08002496e-12,9591 L0,9577.66667 L28.8220447,9559 L57.6400426,9577.66667 L86.4593894,9559 L115.277387,9577.66667 L144.094711,9559 L172.908662,9577.66667 L201.725985,9559 L230.543983,9577.66667 L259.361306,9559 L288.177281,9577.66667 L316.999326,9559 L345.817323,9577.66667 L374.63667,9559 L403.454668,9577.66667 L432.271991,9559 L461.085943,9577.66667 L489.903266,9559 L518.721264,9577.66667 L547.538587,9559 L576.265931,9577.60925 L604.999326,9559 L633.817323,9577.66667 L662.63667,9559 L691.454668,9577.66667 L720.271991,9559 L749.085943,9577.66667 L777.903266,9559 L806.721264,9577.66667 L835.538587,9559 L864.265931,9577.60925 L892.999326,9559 L921.817323,9577.66667 L950.63667,9559 L979.454668,9577.66667 L1008.27199,9559 L1037.08594,9577.66667 L1065.90327,9559 L1094.72126,9577.66667 L1123.53859,9559 L1152.1773,9577.55184 L1180.82204,9559 L1209.64004,9577.66667 L1238.45939,9559 L1267.27739,9577.66667 L1296.09471,9559 L1324.90866,9577.66667 L1353.72599,9559 L1382.54398,9577.66667 L1411.36131,9559 L1440.17728,9577.66667 L1440.17728,9591 L1411.36131,9572.33333 L1382.54398,9591 L1353.72599,9572.33333 L1324.90866,9591 L1296.09471,9572.33333 L1267.27739,9591 L1238.45939,9572.33333 L1209.64004,9591 L1180.82204,9572.33333 L1152.35456,9590.77037 L1152.35456,9591 L1152.1773,9590.88517 L1152,9591 L1152,9590.77032 Z M1152,9563.77032 L1123.53859,9545.33333 L1094.72126,9564 L1065.90327,9545.33333 L1037.08594,9564 L1008.27199,9545.33333 L979.454668,9564 L950.63667,9545.33333 L921.817323,9564 L892.999326,9545.33333 L864.354562,9563.88518 L864.354562,9564 L864.265931,9563.94259 L864.177281,9564 L864.177281,9563.88516 L835.538587,9545.33333 L806.721264,9564 L777.903266,9545.33333 L749.085943,9564 L720.271991,9545.33333 L691.454668,9564 L662.63667,9545.33333 L633.817323,9564 L604.999326,9545.33333 L576.354562,9563.88518 L576.354562,9564 L576.265931,9563.94259 L576.177281,9564 L576.177281,9563.88516 L547.538587,9545.33333 L518.721264,9564 L489.903266,9545.33333 L461.085943,9564 L432.271991,9545.33333 L403.454668,9564 L374.63667,9545.33333 L345.817323,9564 L316.999326,9545.33333 L288.177281,9564 L259.361306,9545.33333 L230.543983,9564 L201.725985,9545.33333 L172.908662,9564 L144.094711,9545.33333 L115.277387,9564 L86.4593894,9545.33333 L57.6400426,9564 L28.8220447,9545.33333 L1.13686838e-12,9564 L0,9550.66667 L28.8220447,9532 L57.6400426,9550.66667 L86.4593894,9532 L115.277387,9550.66667 L144.094711,9532 L172.908662,9550.66667 L201.725985,9532 L230.543983,9550.66667 L259.361306,9532 L288.177281,9550.66667 L316.999326,9532 L345.817323,9550.66667 L374.63667,9532 L403.454668,9550.66667 L432.271991,9532 L461.085943,9550.66667 L489.903266,9532 L518.721264,9550.66667 L547.538587,9532 L576.265931,9550.60925 L604.999326,9532 L633.817323,9550.66667 L662.63667,9532 L691.454668,9550.66667 L720.271991,9532 L749.085943,9550.66667 L777.903266,9532 L806.721264,9550.66667 L835.538587,9532 L864.265931,9550.60925 L892.999326,9532 L921.817323,9550.66667 L950.63667,9532 L979.454668,9550.66667 L1008.27199,9532 L1037.08594,9550.66667 L1065.90327,9532 L1094.72126,9550.66667 L1123.53859,9532 L1152.1773,9550.55184 L1180.82204,9532 L1209.64004,9550.66667 L1238.45939,9532 L1267.27739,9550.66667 L1296.09471,9532 L1324.90866,9550.66667 L1353.72599,9532 L1382.54398,9550.66667 L1411.36131,9532 L1440.17728,9550.66667 L1440.17728,9564 L1411.36131,9545.33333 L1382.54398,9564 L1353.72599,9545.33333 L1324.90866,9564 L1296.09471,9545.33333 L1267.27739,9564 L1238.45939,9545.33333 L1209.64004,9564 L1180.82204,9545.33333 L1152.35456,9563.77037 L1152.35456,9564 L1152.1773,9563.88517 L1152,9564 L1152,9563.77032 Z M1152,9536.77032 L1123.53859,9518.33306 L1094.72126,9537 L1065.90327,9518.33306 L1037.08594,9537 L1008.27199,9518.33306 L979.454668,9537 L950.63667,9518.33306 L921.817323,9537 L892.999326,9518.33306 L864.354562,9536.88518 L864.354562,9537 L864.265931,9536.94258 L864.177281,9537 L864.177281,9536.88516 L835.538587,9518.33306 L806.721264,9537 L777.903266,9518.33306 L749.085943,9537 L720.271991,9518.33306 L691.454668,9537 L662.63667,9518.33306 L633.817323,9537 L604.999326,9518.33306 L576.354562,9536.88518 L576.354562,9537 L576.265931,9536.94258 L576.177281,9537 L576.177281,9536.88516 L547.538587,9518.33306 L518.721264,9537 L489.903266,9518.33306 L461.085943,9537 L432.271991,9518.33306 L403.454668,9537 L374.63667,9518.33306 L345.817323,9537 L316.999326,9518.33306 L288.177281,9537 L259.361306,9518.33306 L230.543983,9537 L201.725985,9518.33306 L172.908662,9537 L144.094711,9518.33306 L115.277387,9537 L86.4593894,9518.33306 L57.6400426,9537 L28.8220447,9518.33306 L1.13686838e-12,9537 L0,9523.66628 L28.8220447,9505 L57.6400426,9523.66628 L86.4593894,9505 L115.277387,9523.66628 L144.094711,9505 L172.908662,9523.66628 L201.725985,9505 L230.543983,9523.66628 L259.361306,9505 L288.177281,9523.66628 L316.999326,9505 L345.817323,9523.66628 L374.63667,9505 L403.454668,9523.66628 L432.271991,9505 L461.085943,9523.66628 L489.903266,9505 L518.721264,9523.66628 L547.538587,9505 L576.265931,9523.60886 L604.999326,9505 L633.817323,9523.66628 L662.63667,9505 L691.454668,9523.66628 L720.271991,9505 L749.085943,9523.66628 L777.903266,9505 L806.721264,9523.66628 L835.538587,9505 L864.265931,9523.60886 L892.999326,9505 L921.817323,9523.66628 L950.63667,9505 L979.454668,9523.66628 L1008.27199,9505 L1037.08594,9523.66628 L1065.90327,9505 L1094.72126,9523.66628 L1123.53859,9505 L1152.1773,9523.55145 L1180.82204,9505 L1209.64004,9523.66628 L1238.45939,9505 L1267.27739,9523.66628 L1296.09471,9505 L1324.90866,9523.66628 L1353.72599,9505 L1382.54398,9523.66628 L1411.36131,9505 L1440.17728,9523.66628 L1440.17728,9537 L1411.36131,9518.33306 L1382.54398,9537 L1353.72599,9518.33306 L1324.90866,9537 L1296.09471,9518.33306 L1267.27739,9537 L1238.45939,9518.33306 L1209.64004,9537 L1180.82204,9518.33306 L1152.35456,9536.77036 L1152.35456,9537 L1152.1773,9536.88517 L1152,9537 L1152,9536.77032 Z M1152,9509.77032 L1123.53859,9491.33333 L1094.72126,9510 L1065.90327,9491.33333 L1037.08594,9510 L1008.27199,9491.33333 L979.454668,9510 L950.63667,9491.33333 L921.817323,9510 L892.999326,9491.33333 L864.354562,9509.88518 L864.354562,9510 L864.265931,9509.94259 L864.177281,9510 L864.177281,9509.88516 L835.538587,9491.33333 L806.721264,9510 L777.903266,9491.33333 L749.085943,9510 L720.271991,9491.33333 L691.454668,9510 L662.63667,9491.33333 L633.817323,9510 L604.999326,9491.33333 L576.354562,9509.88518 L576.354562,9510 L576.265931,9509.94259 L576.177281,9510 L576.177281,9509.88516 L547.538587,9491.33333 L518.721264,9510 L489.903266,9491.33333 L461.085943,9510 L432.271991,9491.33333 L403.454668,9510 L374.63667,9491.33333 L345.817323,9510 L316.999326,9491.33333 L288.177281,9510 L259.361306,9491.33333 L230.543983,9510 L201.725985,9491.33333 L172.908662,9510 L144.094711,9491.33333 L115.277387,9510 L86.4593894,9491.33333 L57.6400426,9510 L28.8220447,9491.33333 L1.13686838e-12,9510 L0,9496.66667 L28.8220447,9478 L57.6400426,9496.66667 L86.4593894,9478 L115.277387,9496.66667 L144.094711,9478 L172.908662,9496.66667 L201.725985,9478 L230.543983,9496.66667 L259.361306,9478 L288.177281,9496.66667 L316.999326,9478 L345.817323,9496.66667 L374.63667,9478 L403.454668,9496.66667 L432.271991,9478 L461.085943,9496.66667 L489.903266,9478 L518.721264,9496.66667 L547.538587,9478 L576.265931,9496.60925 L604.999326,9478 L633.817323,9496.66667 L662.63667,9478 L691.454668,9496.66667 L720.271991,9478 L749.085943,9496.66667 L777.903266,9478 L806.721264,9496.66667 L835.538587,9478 L864.265931,9496.60925 L892.999326,9478 L921.817323,9496.66667 L950.63667,9478 L979.454668,9496.66667 L1008.27199,9478 L1037.08594,9496.66667 L1065.90327,9478 L1094.72126,9496.66667 L1123.53859,9478 L1152.1773,9496.55184 L1180.82204,9478 L1209.64004,9496.66667 L1238.45939,9478 L1267.27739,9496.66667 L1296.09471,9478 L1324.90866,9496.66667 L1353.72599,9478 L1382.54398,9496.66667 L1411.36131,9478 L1440.17728,9496.66667 L1440.17728,9510 L1411.36131,9491.33333 L1382.54398,9510 L1353.72599,9491.33333 L1324.90866,9510 L1296.09471,9491.33333 L1267.27739,9510 L1238.45939,9491.33333 L1209.64004,9510 L1180.82204,9491.33333 L1152.35456,9509.77037 L1152.35456,9510 L1152.1773,9509.88517 L1152,9510 L1152,9509.77032 Z M1152,9482.77032 L1123.53859,9464.33372 L1094.72126,9483 L1065.90327,9464.33372 L1037.08594,9483 L1008.27199,9464.33372 L979.454668,9483 L950.63667,9464.33372 L921.817323,9483 L892.999326,9464.33372 L864.354562,9482.88519 L864.354562,9483 L864.265931,9482.94259 L864.177281,9483 L864.177281,9482.88516 L835.538587,9464.33372 L806.721264,9483 L777.903266,9464.33372 L749.085943,9483 L720.271991,9464.33372 L691.454668,9483 L662.63667,9464.33372 L633.817323,9483 L604.999326,9464.33372 L576.354562,9482.88519 L576.354562,9483 L576.265931,9482.94259 L576.177281,9483 L576.177281,9482.88516 L547.538587,9464.33372 L518.721264,9483 L489.903266,9464.33372 L461.085943,9483 L432.271991,9464.33372 L403.454668,9483 L374.63667,9464.33372 L345.817323,9483 L316.999326,9464.33372 L288.177281,9483 L259.361306,9464.33372 L230.543983,9483 L201.725985,9464.33372 L172.908662,9483 L144.094711,9464.33372 L115.277387,9483 L86.4593894,9464.33372 L57.6400426,9483 L28.8220447,9464.33372 L1.13686838e-12,9483 L0,9469.66628 L28.8220447,9451 L57.6400426,9469.66628 L86.4593894,9451 L115.277387,9469.66628 L144.094711,9451 L172.908662,9469.66628 L201.725985,9451 L230.543983,9469.66628 L259.361306,9451 L288.177281,9469.66628 L316.999326,9451 L345.817323,9469.66628 L374.63667,9451 L403.454668,9469.66628 L432.271991,9451 L461.085943,9469.66628 L489.903266,9451 L518.721264,9469.66628 L547.538587,9451 L576.265931,9469.60886 L604.999326,9451 L633.817323,9469.66628 L662.63667,9451 L691.454668,9469.66628 L720.271991,9451 L749.085943,9469.66628 L777.903266,9451 L806.721264,9469.66628 L835.538587,9451 L864.265931,9469.60886 L892.999326,9451 L921.817323,9469.66628 L950.63667,9451 L979.454668,9469.66628 L1008.27199,9451 L1037.08594,9469.66628 L1065.90327,9451 L1094.72126,9469.66628 L1123.53859,9451 L1152.1773,9469.55145 L1180.82204,9451 L1209.64004,9469.66628 L1238.45939,9451 L1267.27739,9469.66628 L1296.09471,9451 L1324.90866,9469.66628 L1353.72599,9451 L1382.54398,9469.66628 L1411.36131,9451 L1440.17728,9469.66628 L1440.17728,9483 L1411.36131,9464.33372 L1382.54398,9483 L1353.72599,9464.33372 L1324.90866,9483 L1296.09471,9464.33372 L1267.27739,9483 L1238.45939,9464.33372 L1209.64004,9483 L1180.82204,9464.33372 L1152.35456,9482.77037 L1152.35456,9483 L1152.1773,9482.88517 L1152,9483 L1152,9482.77032 Z M1152,9455.77032 L1123.53859,9437.33333 L1094.72126,9456 L1065.90327,9437.33333 L1037.08594,9456 L1008.27199,9437.33333 L979.454668,9456 L950.63667,9437.33333 L921.817323,9456 L892.999326,9437.33333 L864.354562,9455.88518 L864.354562,9456 L864.265931,9455.94259 L864.177281,9456 L864.177281,9455.88516 L835.538587,9437.33333 L806.721264,9456 L777.903266,9437.33333 L749.085943,9456 L720.271991,9437.33333 L691.454668,9456 L662.63667,9437.33333 L633.817323,9456 L604.999326,9437.33333 L576.354562,9455.88518 L576.354562,9456 L576.265931,9455.94259 L576.177281,9456 L576.177281,9455.88516 L547.538587,9437.33333 L518.721264,9456 L489.903266,9437.33333 L461.085943,9456 L432.271991,9437.33333 L403.454668,9456 L374.63667,9437.33333 L345.817323,9456 L316.999326,9437.33333 L288.177281,9456 L259.361306,9437.33333 L230.543983,9456 L201.725985,9437.33333 L172.908662,9456 L144.094711,9437.33333 L115.277387,9456 L86.4593894,9437.33333 L57.6400426,9456 L28.8220447,9437.33333 L1.13686838e-12,9456 L0,9442.66667 L28.8220447,9424 L57.6400426,9442.66667 L86.4593894,9424 L115.277387,9442.66667 L144.094711,9424 L172.908662,9442.66667 L201.725985,9424 L230.543983,9442.66667 L259.361306,9424 L288.177281,9442.66667 L316.999326,9424 L345.817323,9442.66667 L374.63667,9424 L403.454668,9442.66667 L432.271991,9424 L461.085943,9442.66667 L489.903266,9424 L518.721264,9442.66667 L547.538587,9424 L576.265931,9442.60925 L604.999326,9424 L633.817323,9442.66667 L662.63667,9424 L691.454668,9442.66667 L720.271991,9424 L749.085943,9442.66667 L777.903266,9424 L806.721264,9442.66667 L835.538587,9424 L864.265931,9442.60925 L892.999326,9424 L921.817323,9442.66667 L950.63667,9424 L979.454668,9442.66667 L1008.27199,9424 L1037.08594,9442.66667 L1065.90327,9424 L1094.72126,9442.66667 L1123.53859,9424 L1152.1773,9442.55184 L1180.82204,9424 L1209.64004,9442.66667 L1238.45939,9424 L1267.27739,9442.66667 L1296.09471,9424 L1324.90866,9442.66667 L1353.72599,9424 L1382.54398,9442.66667 L1411.36131,9424 L1440.17728,9442.66667 L1440.17728,9456 L1411.36131,9437.33333 L1382.54398,9456 L1353.72599,9437.33333 L1324.90866,9456 L1296.09471,9437.33333 L1267.27739,9456 L1238.45939,9437.33333 L1209.64004,9456 L1180.82204,9437.33333 L1152.35456,9455.77037 L1152.35456,9456 L1152.1773,9455.88517 L1152,9456 L1152,9455.77032 Z"/>
  </defs>
  <g fill="none" fill-rule="evenodd" opacity=".456" transform="translate(0 -9424)">
    <use fill="#D3DEFF" xlink:href="#zigzag-grad-a"/>
    <use fill="url(#zigzag-grad-b)" xlink:href="#zigzag-grad-a"/>
  </g>
</svg>
