<svg xmlns="http://www.w3.org/2000/svg" width="49" height="10" viewBox="0 0 49 10">
  <path fill="#151628" d="M700.325186,456.449048 L699.951116,453 L703.060574,453 L702.674814,456.449048 L706.041445,455.049272 L707,457.882419 L703.446334,458.599104 L705.912859,461.241881 L703.387885,463 L701.505845,459.830907 L699.623804,463 L697.098831,461.241881 L699.565356,458.599104 L696,457.882419 L696.970244,455.049272 L700.325186,456.449048 Z M719.325186,456.449048 L718.951116,453 L722.060574,453 L721.674814,456.449048 L725.041445,455.049272 L726,457.882419 L722.446334,458.599104 L724.912859,461.241881 L722.387885,463 L720.505845,459.830907 L718.623804,463 L716.098831,461.241881 L718.565356,458.599104 L715,457.882419 L715.970244,455.049272 L719.325186,456.449048 Z M738.325186,456.449048 L737.951116,453 L741.060574,453 L740.674814,456.449048 L744.041445,455.049272 L745,457.882419 L741.446334,458.599104 L743.912859,461.241881 L741.387885,463 L739.505845,459.830907 L737.623804,463 L735.098831,461.241881 L737.565356,458.599104 L734,457.882419 L734.970244,455.049272 L738.325186,456.449048 Z" transform="translate(-696 -453)"/>
</svg>
