<svg xmlns="http://www.w3.org/2000/svg" width="30" height="15" viewBox="0 0 30 15">
  <path fill-rule="evenodd" d="M27.7681339,0 L17.7777778,5 L20.0096439,5 L30,0 L27.7681339,0 Z M17.7777778,0 L17.7777778,4.44444444 L26.6666667,0 L17.7777778,0 Z M13.5015671,0 L13.5015671,5.98623853 L0,5.98623853 L0,8.97901376 L13.5015671,8.97901376 L13.5015671,15 L16.4980884,15 L16.4980884,8.97901376 L30,8.97901376 L30,5.98623853 L16.4980884,5.98623853 L16.4980884,0 L13.5015671,0 Z M3.33333333,0 L12.2222222,4.44444444 L12.2222222,0 L3.33333333,0 Z M0,0 L0,1.12979452 L7.76624626,5 L10,5 L0,0 Z M23.3333333,5 L30,5 L30,1.66666667 L23.3333333,5 Z M0,5 L6.66666667,5 L0,1.66666667 L0,5 Z M23.3333333,10 L30,13.3333333 L30,10 L23.3333333,10 Z M20,10 L30,15 L30,13.8695205 L22.233677,10 L20,10 Z M10.0246255,10 L0,15 L2.26557428,15 L12.2222222,10 L10.0246255,10 Z M0,10 L0,13.3333333 L6.66666667,10 L0,10 Z M17.7777778,15 L26.6666667,15 L17.7777778,10.5555556 L17.7777778,15 Z M3.33333333,15 L12.2222222,15 L12.2222222,10.5555556 L3.33333333,15 Z"/>
</svg>
