<svg xmlns="http://www.w3.org/2000/svg" width="30" height="15" viewBox="0 0 30 15">
  <path fill-rule="evenodd" d="M162.768134,7326 L152.777778,7331 L155.009644,7331 L165,7326 L162.768134,7326 Z M152.777778,7326 L152.777778,7330.44444 L161.666667,7326 L152.777778,7326 Z M148.501567,7326 L148.501567,7331.98624 L135,7331.98624 L135,7334.97901 L148.501567,7334.97901 L148.501567,7341 L151.498088,7341 L151.498088,7334.97901 L165,7334.97901 L165,7331.98624 L151.498088,7331.98624 L151.498088,7326 L148.501567,7326 Z M138.333333,7326 L147.222222,7330.44444 L147.222222,7326 L138.333333,7326 Z M135,7326 L135,7327.12979 L142.766246,7331 L145,7331 L135,7326 Z M158.333333,7331 L165,7331 L165,7327.66667 L158.333333,7331 Z M135,7331 L141.666667,7331 L135,7327.66667 L135,7331 Z M158.333333,7336 L165,7339.33333 L165,7336 L158.333333,7336 Z M155,7336 L165,7341 L165,7339.86952 L157.233677,7336 L155,7336 Z M145.024625,7336 L135,7341 L137.265574,7341 L147.222222,7336 L145.024625,7336 Z M135,7336 L135,7339.33333 L141.666667,7336 L135,7336 Z M152.777778,7341 L161.666667,7341 L152.777778,7336.55556 L152.777778,7341 Z M138.333333,7341 L147.222222,7341 L147.222222,7336.55556 L138.333333,7341 Z" transform="translate(-135 -7326)"/>
</svg>
