<svg xmlns="http://www.w3.org/2000/svg" xmlns:xlink="http://www.w3.org/1999/xlink" width="27" height="19" viewBox="0 0 27 19">
  <defs>
    <rect id="unionjack-a" width="27" height="19" rx="1"/>
    <polygon id="unionjack-c" points=".5 0 1 0 1 27 .5 27"/>
  </defs>
  <g fill="none" fill-rule="evenodd">
    <mask id="unionjack-b" fill="#fff">
      <use xlink:href="#unionjack-a"/>
    </mask>
    <g mask="url(#unionjack-b)">
      <g transform="translate(-1 -4)">
        <path fill="#FFF" d="M1,0 L1,27 L1,0 Z"/>
        <polygon fill="#00247D" points="1 22.629 1 27 10 27 10 18"/>
        <polygon fill="#00247D" points="1 0 1 4.371 10 9 10 0"/>
        <polygon fill="#CF142B" points="7.974 18 5.17 18 1 20.387 1 22 8 18"/>
        <polygon fill="#CF142B" points="1 8.337 2.327 9 5 9 1 7"/>
        <g transform="translate(27)">
          <mask id="unionjack-d" fill="#fff">
            <use xlink:href="#unionjack-c"/>
          </mask>
          <path fill="#FFF" d="M1,27 L1,0" mask="url(#unionjack-d)"/>
        </g>
        <polygon fill="#CF142B" points="11.787 0 11.787 10.794 1 10.794 1 16.193 11.787 16.193 11.787 27 17.212 27 17.212 16.193 28 16.193 28 10.794 17.212 10.794 17.212 0"/>
        <polygon fill="#00247D" points="19 27 28 27 28 22.629 19 18"/>
        <polygon fill="#00247D" points="19 0 19 9 28 4.371 28 0"/>
        <polygon fill="#CF142B" points="21.027 18 21 18 28 22 28 20.387 23.83 18"/>
        <polygon fill="#CF142B" points="24 9 26.672 9 28 8.337 28 7"/>
      </g>
    </g>
  </g>
</svg>
