<svg xmlns="http://www.w3.org/2000/svg" width="147" height="43" viewBox="0 0 147 43">
  <path fill-rule="evenodd" d="M50.4047619 42L94.7261905 42 94.7261905 0 50.4047619 0 50.4047619 42zM77.6503446 20.0441216C77.6503446 20.0441216 81.5158248 18.38766 81.4820074 13.9934287 81.4820074 13.9934287 82.0701368 6.79390746 72.5831201 5.91515976L62.053154 5.91515976 62.053154 36.1001206 74.1210783 36.1001185C74.1210783 36.1001185 84.2050463 36.134125 84.2050463 27.5822293 84.2050463 27.5822293 84.4402981 21.7681034 77.6503446 20.0441216L77.6503446 20.0441216zM67.3977795 10.6134782L71.7004359 10.6134782C76.1711993 10.850538 76.0030923 14.196482 76.0030923 14.196482 76.0030923 18.3541464 71.0618255 18.4216665 71.0618255 18.4216665L67.3977795 18.4216665 67.3977795 10.6134782zM78.6923138 27.142609C78.6923138 31.7058872 73.0452917 31.4353137 73.0452917 31.4353137L67.3977795 31.4353137 67.3977795 23.187998 73.0452917 23.187998C78.8604208 23.1539915 78.6923138 27.142609 78.6923138 27.142609L78.6923138 27.142609zM0 42L44.3214286 42 44.3214286 0 0 0 0 42zM27.2455827 20.0441216C27.2455827 20.0441216 31.1110629 18.38766 31.0777356 13.9934287 31.0777356 13.9934287 31.6653749 6.79390746 22.1778681 5.91515976L11.6483921 5.91515976 11.6483921 36.1001206 23.7163164 36.1001185C23.7163164 36.1001185 33.8002844 36.134125 33.8002844 27.5822293 33.8002844 27.5822293 34.0355362 21.7681034 27.2455827 20.0441216L27.2455827 20.0441216zM16.9930176 10.6134782L21.2961641 10.6134782C25.7664374 10.850538 25.5983304 14.196482 25.5983304 14.196482 25.5983304 18.3541464 20.6570636 18.4216665 20.6570636 18.4216665L16.9930176 18.4216665 16.9930176 10.6134782zM28.2875519 27.142609C28.2875519 31.7058872 22.6405298 31.4353137 22.6405298 31.4353137L16.9930176 31.4353137 16.9930176 23.187998 22.6405298 23.187998C28.4556589 23.1539915 28.2875519 27.142609 28.2875519 27.142609L28.2875519 27.142609zM101.678571 42L146 42 146 0 101.678571 0 101.678571 42zM136.958001 8.07876178L136.958001 13.6558279C136.958001 13.6558279 131.545741 10.3098839 125.562505 10.2418709 125.562505 10.2418709 114.40275 10.0230465 113.898429 20.9997536 113.898429 20.9997536 113.495561 31.0982058 125.427725 31.6728664 125.427725 31.6728664 130.436627 32.2810406 137.22707 27.9208158L137.22707 33.7009352C137.22707 33.7009352 128.117437 39.1429611 117.562475 34.9512902 117.562475 34.9512902 108.688093 31.6906089 108.351879 20.9997536 108.351879 20.9997536 107.982338 10.005304 119.81452 6.35478004 119.81452 6.35478004 122.974736 5.13793872 128.655085 5.6785928 128.655085 5.6785928 132.049572 6.01668642 136.958001 8.07876178L136.958001 8.07876178z" transform="translate(.5 .5)"/>
</svg>
