<svg xmlns="http://www.w3.org/2000/svg" xmlns:xlink="http://www.w3.org/1999/xlink" width="175" height="23" viewBox="0 0 175 23">
  <defs>
    <polygon id="codeatuni-a" points="0 .08 20.201 .08 20.201 22.258 0 22.258"/>
    <polygon id="codeatuni-c" points=".076 .048 21.677 .048 21.677 22.258 .076 22.258"/>
    <polygon id="codeatuni-e" points=".04 .023 16.467 .023 16.467 21.466 .04 21.466"/>
    <polygon id="codeatuni-g" points="0 22.258 174 22.258 174 0 0 0"/>
  </defs>
  <g fill="none" fill-rule="evenodd" transform="translate(.5 .5)">
    <mask id="codeatuni-b" fill="#fff">
      <use xlink:href="#codeatuni-a"/>
    </mask>
    <path fill="#000" d="M0,11.1374835 C0,5.04320838 4.96220601,0.0797452725 11.205029,0.0797452725 C14.9506706,0.0797452725 18.2161352,1.83898517 20.2010697,4.57195143 L16.8075,6.99083166 C15.5589528,5.26306007 13.7021234,4.19501409 11.365117,4.19501409 C7.36326502,4.19501409 4.45004614,7.27353467 4.45004614,11.1374835 C4.45004614,15.0014323 7.33128219,18.1428042 11.3330472,18.1428042 C13.7021234,18.1428042 15.5589528,17.0747582 16.8075,15.3156036 L20.2010697,17.7658669 C18.2161352,20.4674501 14.9506706,22.258073 11.205029,22.258073 C4.96220601,22.258073 0,17.2946952 0,11.1374835" mask="url(#codeatuni-b)"/>
    <g transform="translate(22.5)">
      <mask id="codeatuni-d" fill="#fff">
        <use xlink:href="#codeatuni-c"/>
      </mask>
      <path fill="#000" d="M17.3626653,11.1688836 C17.3626653,7.27355172 14.6509422,4.16356285 10.8606701,4.16356285 C7.03969702,4.16356285 4.35875856,7.27355172 4.35875856,11.1688836 C4.35875856,15.0642154 7.03969702,18.1742043 10.8606701,18.1742043 C14.6509422,18.1742043 17.3626653,15.0642154 17.3626653,11.1688836 M0.0755143269,11.1688836 C0.0755143269,5.01175714 4.82102971,0.0483793103 10.8606701,0.0483793103 C16.8696095,0.0483793103 21.6767778,5.01175714 21.6767778,11.1688836 C21.6767778,17.2947123 16.8696095,22.2580901 10.8606701,22.2580901 C4.82102971,22.2580901 0.0755143269,17.2947123 0.0755143269,11.1688836" mask="url(#codeatuni-d)"/>
    </g>
    <path fill="#000" d="M56.3362157,17.8075128 C59.886764,17.8075128 61.7084305,14.7321008 61.7084305,11.1742553 C61.7084305,7.61640976 59.886764,4.45055176 56.3362157,4.45055176 L52.2916533,4.45055176 L52.2916533,17.8075128 L56.3362157,17.8075128 Z M48,0.741935484 L56.3362157,0.741935484 C62.4494517,0.741935484 66,5.26464824 66,11.1742553 C66,17.0537409 62.4494517,21.516129 56.3362157,21.516129 L48,21.516129 L48,0.741935484 Z"/>
    <polygon fill="#000" points="84.75 17.808 84.75 21.516 70.5 21.516 70.5 .742 84.459 .742 84.459 4.451 74.991 4.451 74.991 9.395 83.296 9.395 83.296 13.164 74.991 13.164 74.991 17.808"/>
    <g transform="translate(126.75)">
      <mask id="codeatuni-f" fill="#fff">
        <use xlink:href="#codeatuni-e"/>
      </mask>
      <path fill="#000" d="M0.04037,13.6319605 L0.04037,0.0230089147 L4.37284692,0.0230089147 L4.37284692,13.386193 C4.37284692,16.243168 6.24301615,17.410543 8.23782385,17.410543 C10.2638546,17.410543 12.1340238,16.243168 12.1340238,13.386193 L12.1340238,0.0230089147 L16.4665008,0.0230089147 L16.4665008,13.6319605 C16.4665008,18.516372 12.6326623,21.4655828 8.23782385,21.4655828 C3.87420846,21.4655828 0.04037,18.516372 0.04037,13.6319605" mask="url(#codeatuni-f)"/>
    </g>
    <polygon fill="#000" points="163.5 0 163.5 20.774 159.67 20.774 152.009 7.749 152.009 20.774 147.75 20.774 147.75 0 151.703 0 159.241 12.875 159.241 0"/>
    <mask id="codeatuni-h" fill="#fff">
      <use xlink:href="#codeatuni-g"/>
    </mask>
    <polygon fill="#000" points="169.5 20.774 174 20.774 174 0 169.5 0" mask="url(#codeatuni-h)"/>
    <path fill="#000" d="M103.522044,14.0968571 C103.522044,12.5580064 102.198479,11.5320784 100.852928,11.5320784 C99.3970152,11.5320784 98.1838973,12.6221632 98.1838973,14.0968571 C98.1838973,15.5501654 99.3970152,16.6828556 100.852928,16.6828556 C102.264696,16.6828556 103.522044,15.6143221 103.522044,14.0968571 L103.522044,14.0968571 Z M106.5,9.13830151 L106.5,19.0980181 L103.610247,19.0980181 L103.610247,17.8583999 C102.882291,18.8415568 101.448536,19.2903226 100.301464,19.2903226 C97.6544202,19.2903226 95.25,17.3027061 95.25,14.0968571 C95.25,10.8909252 97.6544202,8.90322581 100.301464,8.90322581 C101.492595,8.90322581 102.882291,9.33068892 103.610247,10.3352314 L103.610247,9.13830151 L106.5,9.13830151 Z" mask="url(#codeatuni-h)"/>
    <polygon fill="#000" points="115.5 11.213 113.143 11.213 113.143 19.29 110.024 19.29 110.024 11.213 108 11.213 108 8.978 110.024 8.978 110.024 5.194 113.143 5.194 113.143 8.978 115.5 8.978" mask="url(#codeatuni-h)"/>
  </g>
</svg>
