<svg xmlns="http://www.w3.org/2000/svg" xmlns:xlink="http://www.w3.org/1999/xlink" width="175" height="54" viewBox="0 0 175 54">
  <defs>
    <polygon id="firstminute-a" points="0 .017 16.051 .017 16.051 35.978 0 35.978"/>
  </defs>
  <g fill="none" fill-rule="evenodd" transform="translate(.5 .5)">
    <path fill="#000" d="M80.4637584 8.15384615C78.0968042 8.15384615 76.0679363 9.14599247 74.7552423 10.950268 73.4650563 9.1205438 71.5097767 8.15384615 69.1001389 8.15384615 67.3997944 8.15384615 65.864353 8.76426242 64.6574349 9.9252847L64.6574349 9.46791228C64.6574349 8.99986785 64.2781811 8.61802052 63.8119275 8.61802052L61.7455074 8.61802052C61.2792538 8.61802052 60.9 8.99986785 60.9 9.46791228L60.9 27.008848C60.9 27.4773616 61.2792538 27.8589744 61.7455074 27.8589744L63.9184031 27.8589744C64.3846567 27.8589744 64.7639105 27.4773616 64.7639105 27.008848L64.7639105 16.1851885C64.7639105 13.6796086 66.4452457 11.7894878 68.6735367 11.7894878 71.0574011 11.7894878 72.3700951 13.2739544 72.3700951 15.9709271L72.3700951 27.008848C72.3700951 27.4773616 72.7493489 27.8589744 73.2156025 27.8589744L75.3530452 27.8589744C75.8192988 27.8589744 76.1980861 27.4773616 76.1980861 27.008848L76.1980861 16.1851885C76.1980861 13.6378587 77.8278745 11.7894878 80.0727258 11.7894878 83.1571368 11.7894878 83.8047372 14.0629805 83.8047372 15.9709271L83.8047372 27.008848C83.8047372 27.4773616 84.1843408 27.8589744 84.6502446 27.8589744L86.8236067 27.8589744C87.289977 27.8589744 87.6692308 27.4773616 87.6692308 27.008848L87.6692308 16.0423476C87.6692308 11.1768433 84.9080952 8.15384615 80.4637584 8.15384615M94.8214668 8.15384615L92.5631485 8.15384615C92.0786131 8.15384615 91.6846154 8.54479195 91.6846154 9.02417024L91.6846154 26.9882913C91.6846154 27.4680286 92.0786131 27.8589744 92.5631485 27.8589744L94.8214668 27.8589744C95.3050261 27.8589744 95.7 27.4680286 95.7 26.9882913L95.7 9.02417024C95.7 8.54479195 95.3050261 8.15384615 94.8214668 8.15384615M111.961477 16.2566089L111.961477 27.008848C111.961477 27.4772443 112.33991 27.8589744 112.804122 27.8589744L114.934744 27.8589744C115.398957 27.8589744 115.776923 27.4772443 115.776923 27.008848L115.776923 16.3633292C115.776923 11.3766798 112.861115 8.15384615 108.347893 8.15384615 106.467734 8.15384615 104.776034 8.78760014 103.459619 9.98650224L103.459619 9.46779501C103.459619 8.99986785 103.081653 8.61802052 102.617207 8.61802052L100.55803 8.61802052C100.092885 8.61802052 99.7153846 8.99986785 99.7153846 9.46779501L99.7153846 27.008848C99.7153846 27.4772443 100.092885 27.8589744 100.55803 27.8589744L102.723383 27.8589744C103.187828 27.8589744 103.565795 27.4772443 103.565795 27.008848L103.565795 16.1851885C103.565795 13.6378587 105.398286 11.7894878 107.923191 11.7894878 110.414297 11.7894878 111.961477 13.5009988 111.961477 16.2566089M135.011581 27.4296749C135.475777 27.4296749 135.853846 27.0472529 135.853846 26.5778902L135.853846 9.00516089C135.853846 8.53626811 135.475777 8.15384615 135.011581 8.15384615L132.846656 8.15384615C132.381062 8.15384615 132.003459 8.53626811 132.003459 9.00516089L132.003459 19.8841549C132.003459 21.8578281 130.840115 23.4932547 129.039274 24.0510856 128.651648 24.1716278 128.253067 24.2321339 127.855768 24.2321339 125.553087 24.2321339 123.608081 22.2095859 123.608081 19.8155422L123.608081 9.00516089C123.608081 8.53626811 123.229196 8.15384615 122.765001 8.15384615L120.635039 8.15384615C120.170261 8.15384615 119.792308 8.53626811 119.792308 9.00516089L119.792308 19.6695052C119.792308 24.6443977 122.708477 27.8589744 127.221534 27.8589744 129.100343 27.8589744 130.792099 27.2320608 132.109747 26.0455541L132.109747 26.5778902C132.109747 27.0472529 132.487234 27.4296749 132.952362 27.4296749L135.011581 27.4296749zM139.38939 12.3848409L141.05567 12.3848409 141.05567 20.6985592C141.05567 25.0479659 143.685462 27.8589744 147.75512 27.8589744 147.982367 27.8589744 148.214722 27.8499942 148.450403 27.8322673 148.891949 27.8010118 149.238462 27.429795 149.238462 26.9888364L149.238462 25.041085C149.238462 24.5752854 148.85548 24.1969544 148.378297 24.1969544L148.333631 24.1969544C146.054034 24.1969544 144.945477 23.0525149 144.945477 20.6985592L144.945477 12.3848409 148.307379 12.3848409C148.781235 12.3848409 149.166474 12.0056936 149.166474 11.5393109L149.166474 9.50875579C149.166474 9.04248969 148.781235 8.66322572 148.307379 8.66322572L144.945477 8.66322572 144.945477 5.60205696C144.945477 5.13614073 144.560714 4.75641026 144.086619 4.75641026L141.914765 4.75641026C141.441384 4.75641026 141.05567 5.13614073 141.05567 5.60205696L141.05567 8.66322572 139.38939 8.66322572C138.916127 8.66322572 138.530769 9.04248969 138.530769 9.50875579L138.530769 11.5393109C138.530769 12.0056936 138.916127 12.3848409 139.38939 12.3848409M154.156599 15.3174393C154.984181 12.8451048 157.221514 11.1191152 159.595854 11.1191152 161.966428 11.1191152 164.12278 12.804227 164.961897 15.320046L154.156599 15.3174393zM159.595854 7.47435897C154.253706 7.47435897 149.907692 12.0621475 149.907692 17.702331 149.907692 23.3972553 154.241347 27.8589744 159.774648 27.8589744 163.959759 27.8589744 167.194521 25.7090409 168.649235 21.9614386 168.753521 21.6936596 168.720328 21.3915196 168.559779 21.1543101 168.401466 20.9198258 168.138749 20.7785901 167.857317 20.7785901L165.508047 20.7785901C165.188832 20.7785901 164.899396 20.9602296 164.751559 21.2525352 163.76943 23.1902597 162.048586 24.2142181 159.774648 24.2142181 156.828968 24.2142181 154.411665 22.0448529 153.896001 18.928664L168.461025 18.928664C168.690196 18.928664 168.91407 18.8330455 169.074149 18.6660984 169.235051 18.4991512 169.321093 18.2792407 169.31509 18.0472446 169.137474 11.1802541 164.175158 7.47435897 159.595854 7.47435897L159.595854 7.47435897z"/>
    <mask id="firstminute-b" fill="#fff">
      <use xlink:href="#firstminute-a"/>
    </mask>
    <path fill="#000" d="M12.1953855,26.8734204 C12.1953855,27.348956 12.577697,27.7365395 13.0468815,27.7365395 L15.1995966,27.7365395 C15.6691328,27.7365395 16.0510926,27.348956 16.0510926,26.8734204 L16.0510926,9.14001819 C16.0510926,8.66400715 15.6691328,8.27737446 15.1995966,8.27737446 L6.35906789,8.27737446 L6.35906789,7.98344804 C6.35906789,7.01930282 6.49025666,5.27761348 7.37117929,4.45371621 C7.89523095,3.94929901 8.60205588,3.71408657 9.5961127,3.71408657 L9.77407924,3.71622594 C10.2382225,3.71622594 10.6153756,3.32959325 10.6153756,2.85393877 L10.6153756,0.908057921 C10.6153756,0.459739904 10.2731593,0.0811892993 9.83539445,0.0467215833 C9.58685094,0.0268729331 9.34018322,0.0173645976 9.10230832,0.0173645976 C7.35453157,0.0173645976 5.88988339,0.553397009 4.75490709,1.60810912 C3.26094953,2.96791994 2.503478,5.11276271 2.503478,7.98344804 L2.503478,8.27737446 L0.85148429,8.27737446 C0.381948074,8.27737446 -1.17237507e-05,8.66400715 -1.17237507e-05,9.14001819 L-1.17237507e-05,11.2127165 C-1.17237507e-05,11.6887275 0.381948074,12.0758356 0.85148429,12.0758356 L2.503478,12.0758356 L2.503478,35.1152455 C2.503478,35.5907812 2.88532056,35.9782458 3.35450506,35.9782458 L5.50804083,35.9782458 C5.97757705,35.9782458 6.35906789,35.5907812 6.35906789,35.1152455 L6.35906789,12.0758356 L12.1953855,12.0758356 L12.1953855,26.8734204 Z" mask="url(#firstminute-b)"/>
    <path fill="#000" d="M28.6905743 8.16533363C28.5610111 8.15771439 28.4306613 8.15384615 28.299862 8.15384615 26.5609279 8.15384615 24.8855955 8.82140931 23.6977266 9.9924288L23.6977266 9.47666446C23.6977266 9.00884276 23.3322976 8.62717715 22.8825907 8.62717715L20.8919466 8.62717715C20.4426892 8.62717715 20.0769231 9.00884276 20.0769231 9.47666446L20.0769231 27.0092526C20.0769231 27.477426 20.4426892 27.8589744 20.8919466 27.8589744L22.9852974 27.8589744C23.4350043 27.8589744 23.7999838 27.477426 23.7999838 27.0092526L23.7999838 16.7971187C23.7999838 13.2851152 26.2811253 12.0341523 28.6209046 12.0341523 29.0758929 12.0341523 29.4461538 11.6530728 29.4461538 11.1857199L29.4461538 9.01341431C29.4461538 8.56258939 29.1142113 8.19077019 28.6905743 8.16533363M39.2771198 15.2750899C35.7415901 14.6924391 35.1129654 14.255865 35.1129654 13.3170711 35.1129654 12.1006723 36.7156506 11.1485126 38.7613602 11.1485126 40.747445 11.1485126 42.1430968 12.0125532 42.5898832 13.5202773 42.7005823 13.8936895 43.0201389 14.1437349 43.3846136 14.1437349L45.5732856 14.1437349C45.8174848 14.1437349 46.0476613 14.0316048 46.2047605 13.8360868 46.3650518 13.6371387 46.4303768 13.3768028 46.3861428 13.1211982 45.7696026 9.58495992 42.9192443 7.47435897 38.7613602 7.47435897 33.6591709 7.47435897 31.3357446 10.5590015 31.3357446 13.4252979 31.3357446 17.2236463 34.1414129 18.4070448 38.6712961 19.0845566 43.1730199 19.7166487 43.1730199 20.6889162 43.1730199 21.5470427 43.1730199 22.8390229 41.7773681 24.1486269 39.10805 24.1486269 36.8123271 24.1486269 35.0340737 23.0237773 34.5778249 21.2823305 34.4798944 20.9085634 34.1583997 20.6472814 33.7955211 20.6472814L31.6104972 20.6472814C31.3629919 20.6472814 31.1315613 20.7607125 30.9749181 20.9596607 30.8146268 21.162039 30.7518099 21.4271061 30.8009462 21.6862591 31.5282994 25.4940699 34.711781 27.8589744 39.10805 27.8589744 43.7366617 27.8589744 46.8461538 25.2495837 46.8461538 21.3661915 46.8461538 16.5172739 42.6489379 15.8285253 39.2771198 15.2750899M57.3624655 24.1969359L57.3178017 24.1969359C55.0386366 24.1969359 53.9301169 23.0524906 53.9301169 20.698523L53.9301169 12.3847628 57.2920249 12.3847628C57.7652721 12.3847628 58.1509733 12.0056136 58.1509733 11.5392285L58.1509733 9.50877978C58.1509733 9.0423947 57.7652721 8.66324544 57.2920249 8.66324544L53.9301169 8.66324544 53.9301169 5.6019446C53.9301169 5.13602602 53.5450097 4.75641026 53.0712874 4.75641026L50.8995057 4.75641026C50.4254271 4.75641026 50.0405574 5.13602602 50.0405574 5.6019446L50.0405574 8.66324544 48.3742142 8.66324544C47.9006107 8.66324544 47.5153846 9.0423947 47.5153846 9.50877978L47.5153846 11.5392285C47.5153846 12.0056136 47.9006107 12.3847628 48.3742142 12.3847628L50.0405574 12.3847628 50.0405574 20.698523C50.0405574 25.0479517 52.670619 27.8589744 56.7397844 27.8589744 56.9673802 27.8589744 57.1997274 27.8501108 57.4350444 27.8322671 57.8769318 27.8010115 58.2230769 27.4297928 58.2230769 26.988832L58.2230769 25.0411874C58.2230769 24.5752688 57.8396327 24.1969359 57.3624655 24.1969359M14.0578036 30.5769231L14.0569946 30.5769231C13.9984007 30.5769231 13.9386511 30.5786833 13.8789015 30.5824386 12.4033057 30.6803095 11.2855142 31.9743414 11.382824 33.4723296 11.4792093 34.9706699 12.7535979 36.1052215 14.2291936 36.0068812 15.7035181 35.9086582 16.8217719 34.614509 16.7249244 33.1171075 16.6322374 31.6802592 15.4559675 30.5769231 14.0578036 30.5769231M117.509337 44.3479159L115.966176 44.3479159C115.86483 44.3479159 115.774069 44.4037717 115.725775 44.4911118 115.061786 45.6804071 113.872269 46.4769632 112.362772 46.4769632 110.170016 46.4769632 108.370039 44.5520983 108.370039 42.1506524 108.370039 39.7496728 110.170016 37.7795636 112.362772 37.7795636 113.851572 37.7795636 115.04097 38.5774025 115.724823 39.7684469 115.773594 39.8539213 115.863521 39.9086109 115.963203 39.9086109L117.505887 39.9086109C117.702277 39.9086109 117.834789 39.7115417 117.760563 39.5327801 116.868068 37.391139 114.873486 36.0128205 112.362772 36.0128205 109.085058 36.0128205 106.407692 38.7761042 106.407692 42.1506524 106.407692 45.5253171 109.085058 48.2435897 112.362772 48.2435897 114.873962 48.2435897 116.889717 46.865038 117.764488 44.7211814 117.837049 44.5427696 117.704537 44.3479159 117.509337 44.3479159M127.702874 43.4869916C127.657304 45.5934168 125.768345 46.4539913 123.765521 46.4539913 122.263138 46.4539913 121.03488 45.9108265 121.03488 44.6427035 121.03488 43.6683186 121.603616 42.7848888 124.152451 42.6264171 125.326073 42.5502714 126.499343 42.4248001 127.301461 41.9778378 127.481973 41.876971 127.702874 42.005824 127.702874 42.2116389L127.702874 43.4869916zM129.591715 46.0692981L129.591715 39.6369119C129.591715 37.4627369 127.998782 36.0128205 124.857778 36.0128205 121.990192 36.0128205 120.097465 37.3953369 119.812626 39.5500382 119.79096 39.7149234 119.914009 39.8627836 120.08098 39.8627836L121.555103 39.8627836C121.680272 39.8627836 121.793901 39.7789417 121.818158 39.6563856 122.124781 38.1325391 123.657308 37.7795636 124.83517 37.7795636 126.815739 37.7795636 127.702874 38.4815499 127.702874 39.4098742 127.702874 40.3385483 126.769698 40.8597906 123.902583 40.9952903 120.875327 41.1541118 119.123077 42.2412576 119.123077 44.6427035 119.123077 47.1564439 121.285218 48.2435897 123.697226 48.2435897 125.262606 48.2435897 126.49216 47.8085215 127.340555 47.0378526 127.497752 46.8958228 127.748914 46.9874775 127.785064 47.1950415 127.823686 47.4169485 127.879147 47.6170495 127.945558 47.7932457 127.9863 47.900526 128.086859 47.9716575 128.202255 47.9716575L129.559922 47.9716575C129.739492 47.9716575 129.868547 47.8030409 129.82074 47.6305762 129.690155 47.1620412 129.591715 46.5315363 129.591715 46.0692981L129.591715 46.0692981zM138.898581 46.3801045C136.808212 46.3801045 135.047763 44.4281778 135.047763 42.0489589 135.047763 39.6929373 136.808212 37.7632798 138.898581 37.7632798 141.011348 37.7632798 142.683461 39.6929373 142.683461 42.0489589 142.683461 44.4281778 141.011348 46.3801045 138.898581 46.3801045M138.898581 36.0128205C137.50682 36.0128205 136.267401 36.6806673 135.434186 37.5777023 135.270021 37.7540009 134.981483 37.6394068 134.981483 37.3967643L134.981483 36.5716406C134.981483 36.4237586 134.865067 36.304641 134.720116 36.304641L133.439541 36.304641C133.294248 36.304641 133.176923 36.4237586 133.176923 36.5716406L133.176923 52.7327685C133.176923 52.8804185 133.294248 53 133.439541 53L134.785941 53C134.930892 53 135.047763 52.8804185 135.047763 52.7327685L135.047763 46.828738C135.047763 46.5891111 135.330503 46.4728933 135.495577 46.6432766 136.330838 47.503776 137.53763 48.1304478 138.898581 48.1304478 142.156066 48.1304478 144.553846 45.4151018 144.553846 42.0489589 144.553846 38.7278185 142.156066 36.0128205 138.898581 36.0128205M148.957467 36.0128205L147.512246 36.0128205C147.356687 36.0128205 147.230769 36.1324064 147.230769 36.2801507L147.230769 47.2972359C147.230769 47.4445166 147.356687 47.5641026 147.512246 47.5641026L148.957467 47.5641026C149.112544 47.5641026 149.238462 47.4445166 149.238462 47.2972359L149.238462 36.2801507C149.238462 36.1324064 149.112544 36.0128205 148.957467 36.0128205M157.007527 45.758567C155.727897 45.7670175 154.644172 45.1844066 154.644172 43.2440916L154.644172 37.9143285C154.644172 37.7644505 154.761325 37.6434449 154.907022 37.6434449L156.962477 37.6434449C157.107371 37.6434449 157.225442 37.5216177 157.225442 37.3722092L157.225442 36.0702546C157.225442 35.9203767 157.107371 35.7990189 156.962477 35.7990189L154.907022 35.7990189C154.761325 35.7990189 154.644172 35.6775439 154.644172 35.5286048L154.644172 33.565638C154.644172 33.4162295 154.526216 33.2948718 154.381322 33.2948718L153.053318 33.2948718C152.908424 33.2948718 152.790926 33.4162295 152.790926 33.565638L152.790926 35.5286048C152.790926 35.6775439 152.672856 35.7990189 152.528421 35.7990189L151.509118 35.7990189C151.364339 35.7990189 151.246154 35.9203767 151.246154 36.0702546L151.246154 37.3722092C151.246154 37.5216177 151.364339 37.6434449 151.509118 37.6434449L152.528421 37.6434449C152.672856 37.6434449 152.790926 37.7644505 152.790926 37.9143285L152.790926 43.2440916C152.790926 46.1359027 154.512117 47.7439511 157.030683 47.5480652 157.165604 47.5373847 157.269231 47.4177875 157.269231 47.2771816L157.269231 46.0281596C157.269231 45.8789858 157.152421 45.7571586 157.007527 45.758567M167.187785 43.4869916C167.142097 45.5934168 165.253217 46.4539913 163.250587 46.4539913 161.748761 46.4539913 160.519181 45.9108265 160.519181 44.6427035 160.519181 43.6683186 161.088754 42.7848888 163.637288 42.6264171 164.810464 42.5502714 165.983758 42.4248001 166.786718 41.9778378 166.966762 41.876971 167.187785 42.005824 167.187785 42.2116389L167.187785 43.4869916zM169.077137 46.0692981L169.077137 39.6369119C169.077137 37.4627369 167.483582 36.0128205 164.343101 36.0128205 161.475338 36.0128205 159.581747 37.3953369 159.297373 39.5500382 159.275707 39.7149234 159.398759 39.8627836 159.565615 39.8627836L161.04024 39.8627836C161.165058 39.8627836 161.279043 39.7789417 161.3033 39.6563856 161.609459 38.1325391 163.142489 37.7795636 164.320375 37.7795636 166.300514 37.7795636 167.187785 38.4815499 167.187785 39.4098742 167.187785 40.3385483 166.254944 40.8597906 163.387298 40.9952903 160.36045 41.1541118 158.607692 42.2412576 158.607692 44.6427035 158.607692 47.1564439 160.769525 48.2435897 163.182054 48.2435897 164.74782 48.2435897 165.976928 47.8085215 166.826283 47.0378526 166.983012 46.8958228 167.233356 46.9874775 167.269859 47.1950415 167.3086 47.4165986 167.363944 47.6170495 167.43071 47.7932457 167.471688 47.900526 167.572132 47.9716575 167.687059 47.9716575L169.044755 47.9716575C169.224328 47.9716575 169.353386 47.8030409 169.305225 47.6305762 169.174519 47.1620412 169.077137 46.5315363 169.077137 46.0692981L169.077137 46.0692981zM173.71857 30.5769231L172.272879 30.5769231C172.118233 30.5769231 171.992308 30.6982055 171.992308 30.8486333L171.992308 47.2923923C171.992308 47.44235 172.118233 47.5641026 172.272879 47.5641026L173.71857 47.5641026C173.874197 47.5641026 174 47.44235 174 47.2923923L174 30.8486333C174 30.6982055 173.874197 30.5769231 173.71857 30.5769231"/>
  </g>
</svg>
