<svg xmlns="http://www.w3.org/2000/svg" width="175" height="38" viewBox="0 0 175 38">
  <path fill-rule="evenodd" d="M677.951979,47.2505311 L677.951979,65.285866 L674.80094,65.285866 L674.80094,47.2505311 L670,47.2505311 L670,44.2695965 L682.739395,44.2695965 L682.739395,47.2505311 L677.951979,47.2505311 Z M684.024153,52.0281934 L687.067002,52.0281934 L687.067002,53.2124003 C687.625987,52.6225625 688.121854,52.2187565 688.554617,52.0009703 C688.996396,51.7741096 689.51931,51.6606809 690.123375,51.6606809 C690.925789,51.6606809 691.764255,51.9238354 692.638797,52.4501522 L691.245848,55.2541364 C690.668831,54.8367127 690.105346,54.628004 689.555376,54.628004 C687.896452,54.628004 687.067002,55.8893305 687.067002,58.4120214 L687.067002,65.285866 L684.024153,65.285866 L684.024153,52.0281934 Z M703.9041,52.0281934 L706.960473,52.0281934 L706.960473,65.285866 L703.9041,65.285866 L703.9041,63.8974855 C702.650891,65.0771611 701.303035,65.6669901 699.860492,65.6669901 C698.039281,65.6669901 696.533649,65.0045668 695.343551,63.6797004 C694.162469,62.3276106 693.571937,60.6397924 693.571937,58.616195 C693.571937,56.6288953 694.162469,54.9728371 695.343551,53.6479707 C696.524633,52.3231042 698.003218,51.6606809 699.779349,51.6606809 C701.312051,51.6606809 702.686954,52.2958814 703.9041,53.5663012 L703.9041,52.0281934 Z M696.682405,58.616195 C696.682405,59.8866149 697.020496,60.9210841 697.696688,61.7196338 C698.390912,62.5272578 699.26544,62.9310638 700.3203,62.9310638 C701.447287,62.9310638 702.357878,62.5408693 703.052102,61.7604685 C703.746326,60.9528444 704.093433,59.9274495 704.093433,58.6842529 C704.093433,57.4410563 703.746326,56.4156613 703.052102,55.6080373 C702.357878,54.8185621 701.456302,54.4238304 700.347347,54.4238304 C699.301504,54.4238304 698.426975,54.8230992 697.723735,55.6216488 C697.029512,56.4292729 696.682405,57.427445 696.682405,58.616195 Z M720.511294,42.2959184 L723.567666,42.2959184 L723.567666,65.285866 L720.511294,65.285866 L720.511294,63.8974855 C719.31218,65.0771611 717.955308,65.6669901 716.440638,65.6669901 C714.637459,65.6669901 713.140843,65.0045668 711.950745,63.6797004 C710.769663,62.3276106 710.179131,60.6397924 710.179131,58.616195 C710.179131,56.6379698 710.769663,54.9864487 711.950745,53.6615823 C713.122811,52.3276414 714.596888,51.6606809 716.373019,51.6606809 C717.914737,51.6606809 719.294148,52.2958814 720.511294,53.5663012 L720.511294,42.2959184 Z M713.289599,58.616195 C713.289599,59.8866149 713.62769,60.9210841 714.303882,61.7196338 C714.998105,62.5272578 715.872634,62.9310638 716.927494,62.9310638 C718.05448,62.9310638 718.965072,62.5408693 719.659296,61.7604685 C720.35352,60.9528444 720.700626,59.9274495 720.700626,58.6842529 C720.700626,57.4410563 720.35352,56.4156613 719.659296,55.6080373 C718.965072,54.8185621 718.063496,54.4238304 716.954541,54.4238304 C715.908697,54.4238304 715.034169,54.8230992 714.330929,55.6216488 C713.636705,56.4292729 713.289599,57.427445 713.289599,58.616195 Z M739.404005,59.3784431 L729.964411,59.3784431 C730.045554,60.4673745 730.397169,61.3339693 731.019265,61.9782537 C731.641362,62.6134636 732.439257,62.9310638 733.412973,62.9310638 C734.170308,62.9310638 734.796904,62.749578 735.292778,62.3866009 C735.779636,62.0236238 736.334105,61.3521262 736.956202,60.372088 L739.525719,61.8149148 C739.12902,62.4954969 738.709787,63.0785201 738.268008,63.564002 C737.826229,64.0494839 737.352902,64.4487527 736.848012,64.7618205 C736.343122,65.0748882 735.797668,65.3040141 735.211635,65.4492049 C734.625602,65.5943958 733.989991,65.6669901 733.304783,65.6669901 C731.339318,65.6669901 729.76156,65.0317897 728.571462,63.7613698 C727.381364,62.4818755 726.786324,60.784983 726.786324,58.6706413 C726.786324,56.5744485 727.363333,54.877556 728.517367,53.5799128 C729.680418,52.3004185 731.222112,51.6606809 733.142498,51.6606809 C735.080915,51.6606809 736.613594,52.2822699 737.740581,53.5254665 C738.858552,54.7595887 739.417529,56.4700927 739.417529,58.6570297 L739.404005,59.3784431 Z M736.280013,56.8739136 C735.856266,55.2405166 734.832978,54.4238304 733.210117,54.4238304 C732.840465,54.4238304 732.493358,54.4805447 732.168786,54.593975 C731.844214,54.7074054 731.548948,54.8707426 731.282979,55.0839917 C731.01701,55.2972407 730.789362,55.5535895 730.600028,55.8530456 C730.410695,56.1525017 730.266443,56.4927876 730.167268,56.8739136 L736.280013,56.8739136 Z M750.385309,54.2877146 L747.869887,55.6352604 C747.473188,54.8185619 746.981829,54.4102188 746.395796,54.4102188 C746.116303,54.4102188 745.877385,54.5032303 745.679036,54.6892561 C745.480686,54.8752818 745.381513,55.113482 745.381513,55.4038637 C745.381513,55.9120316 745.967537,56.4156548 747.139603,56.9147483 C748.753448,57.6134793 749.839847,58.257754 750.398833,58.8475918 C750.957818,59.4374296 751.237307,60.2314301 751.237307,61.2296171 C751.237307,62.5091114 750.768487,63.5798778 749.830834,64.4419485 C748.920229,65.258647 747.820306,65.6669901 746.531034,65.6669901 C744.322139,65.6669901 742.757905,64.5826122 741.838284,62.413824 L744.434849,61.202394 C744.795484,61.8376039 745.070465,62.2414099 745.259799,62.413824 C745.62945,62.7586523 746.071223,62.9310638 746.585129,62.9310638 C747.612941,62.9310638 748.126839,62.4592007 748.126839,61.5154602 C748.126839,60.9709945 747.730145,60.4628342 746.936747,59.9909639 C746.630206,59.8366987 746.323671,59.6869729 746.01713,59.541782 C745.71059,59.3965912 745.399546,59.2468654 745.08399,59.0926001 C744.200432,58.6570276 743.578345,58.2214616 743.217709,57.785889 C742.757898,57.2323489 742.527997,56.520017 742.527997,55.648872 C742.527997,54.4964197 742.920182,53.543619 743.704565,52.7904415 C744.506979,52.037264 745.480681,51.6606809 746.6257,51.6606809 C748.311672,51.6606809 749.564863,52.5363501 750.385309,54.2877146 Z M757.011958,72.5 L753.969109,72.5 L753.969109,52.0281934 L757.011958,52.0281934 L757.011958,53.4710202 C758.211072,52.2641213 759.572451,51.6606809 761.096137,51.6606809 C762.908332,51.6606809 764.40044,52.3321785 765.572506,53.6751938 C766.762604,55.0091347 767.357644,56.6924158 767.357644,58.7250876 C767.357644,60.7123873 766.767112,62.3684455 765.58603,63.6933119 C764.413964,65.009104 762.93538,65.6669901 761.150233,65.6669901 C759.608515,65.6669901 758.229104,65.0454011 757.011958,63.8022045 L757.011958,72.5 Z M764.247177,58.7386992 C764.247177,57.4682793 763.904578,56.4338101 763.21937,55.6352604 C762.525146,54.8276363 761.650617,54.4238304 760.595758,54.4238304 C759.477787,54.4238304 758.571703,54.8140249 757.877479,55.5944257 C757.183256,56.3748265 756.836149,57.4002214 756.836149,58.6706413 C756.836149,59.9138379 757.183256,60.9392329 757.877479,61.7468569 C758.562687,62.5363321 759.464263,62.9310638 760.582234,62.9310638 C761.637094,62.9310638 762.507114,62.531795 763.192322,61.7332453 C763.895562,60.9346957 764.247177,59.9365236 764.247177,58.7386992 Z M780.286372,52.0281934 L783.342745,52.0281934 L783.342745,65.285866 L780.286372,65.285866 L780.286372,63.8974855 C779.033163,65.0771611 777.685307,65.6669901 776.242764,65.6669901 C774.421553,65.6669901 772.915921,65.0045668 771.725823,63.6797004 C770.544741,62.3276106 769.954209,60.6397924 769.954209,58.616195 C769.954209,56.6288953 770.544741,54.9728371 771.725823,53.6479707 C772.906905,52.3231042 774.38549,51.6606809 776.161621,51.6606809 C777.694323,51.6606809 779.069226,52.2958814 780.286372,53.5663012 L780.286372,52.0281934 Z M773.064677,58.616195 C773.064677,59.8866149 773.402768,60.9210841 774.07896,61.7196338 C774.773184,62.5272578 775.647712,62.9310638 776.702572,62.9310638 C777.829559,62.9310638 778.74015,62.5408693 779.434374,61.7604685 C780.128598,60.9528444 780.475705,59.9274495 780.475705,58.6842529 C780.475705,57.4410563 780.128598,56.4156613 779.434374,55.6080373 C778.74015,54.8185621 777.838574,54.4238304 776.729619,54.4238304 C775.683776,54.4238304 774.809247,54.8230992 774.106007,55.6216488 C773.411784,56.4292729 773.064677,57.427445 773.064677,58.616195 Z M797.434516,52.5998795 L797.434516,56.66974 C796.740293,55.8167438 796.118205,55.231452 795.568236,54.913847 C795.027282,54.5871676 794.391671,54.4238304 793.661384,54.4238304 C792.516365,54.4238304 791.565203,54.8276363 790.807868,55.6352604 C790.050532,56.4428845 789.671871,57.454668 789.671871,58.6706413 C789.671871,59.9138379 790.037009,60.9346957 790.767296,61.7332453 C791.5066,62.531795 792.448746,62.9310638 793.593765,62.9310638 C794.324052,62.9310638 794.968679,62.7722637 795.527664,62.4546587 C796.068618,62.1461282 796.704229,61.547225 797.434516,60.657931 L797.434516,64.7005684 C796.199339,65.3448527 794.96418,65.6669901 793.729003,65.6669901 C791.691411,65.6669901 789.987432,65.0045668 788.617016,63.6797004 C787.2466,62.3457595 786.561403,60.6897013 786.561403,58.711476 C786.561403,56.7332508 787.255616,55.0635811 788.644064,53.702417 C790.032511,52.3412528 791.73649,51.6606809 793.75605,51.6606809 C795.054339,51.6606809 796.280482,51.973744 797.434516,52.5998795 Z M812.378286,59.3784431 L802.938692,59.3784431 C803.019835,60.4673745 803.37145,61.3339693 803.993547,61.9782537 C804.615643,62.6134636 805.413538,62.9310638 806.387254,62.9310638 C807.14459,62.9310638 807.771185,62.749578 808.267059,62.3866009 C808.753917,62.0236238 809.308386,61.3521262 809.930483,60.372088 L812.5,61.8149148 C812.103301,62.4954969 811.684068,63.0785201 811.242289,63.564002 C810.80051,64.0494839 810.327183,64.4487527 809.822293,64.7618205 C809.317403,65.0748882 808.771949,65.3040141 808.185916,65.4492049 C807.599883,65.5943958 806.964272,65.6669901 806.279064,65.6669901 C804.313599,65.6669901 802.735842,65.0317897 801.545744,63.7613698 C800.355646,62.4818755 799.760605,60.784983 799.760605,58.6706413 C799.760605,56.5744485 800.337614,54.877556 801.491648,53.5799128 C802.654699,52.3004185 804.196394,51.6606809 806.116779,51.6606809 C808.055196,51.6606809 809.587875,52.2822699 810.714862,53.5254665 C811.832833,54.7595887 812.39181,56.4700927 812.39181,58.6570297 L812.378286,59.3784431 Z M809.254294,56.8739136 C808.830547,55.2405166 807.807259,54.4238304 806.184398,54.4238304 C805.814746,54.4238304 805.467639,54.4805447 805.143067,54.593975 C804.818495,54.7074054 804.523229,54.8707426 804.25726,55.0839917 C803.991291,55.2972407 803.763643,55.5535895 803.57431,55.8530456 C803.384976,56.1525017 803.240724,56.4927876 803.141549,56.8739136 L809.254294,56.8739136 Z M643.846054,68.9666267 L643.846054,67.2917507 L653.403946,67.2917507 L653.403946,68.9666267 C653.403946,68.9666267 651.395915,70.2346939 648.625189,70.2346939 C645.854463,70.2346939 643.846054,68.9666267 643.846054,68.9666267 Z M643.846054,66.1751668 L643.846054,64.1280962 L653.403946,64.1280962 L653.403946,66.1751668 L643.846054,66.1751668 Z M655.302749,52.2308941 C656.544304,50.1901508 657.61616,48.4278091 657.61616,45.4707226 C657.61616,40.5882731 653.582714,36.616584 648.625189,36.616584 C643.667286,36.616584 639.63384,40.5882731 639.63384,45.4707226 C639.63384,48.4278091 640.705696,50.1901508 641.947251,52.2308941 C643.348677,54.5351512 644.929627,57.1345586 645.044901,61.8949283 L652.205477,61.8949283 C652.320751,57.1345586 653.901701,54.5351512 655.302749,52.2308941 Z M648.625189,35.5 C654.207838,35.5 658.75,39.9730354 658.75,45.4707226 C658.75,48.7363585 657.54813,50.7127121 656.275962,52.8048182 C654.829182,55.1838865 653.332892,57.6437209 653.332892,62.4532202 L653.332892,63.0115122 L643.917486,63.0115122 L643.917486,62.4532202 C643.917486,57.6437209 642.421196,55.1838865 640.974416,52.8048182 C639.70187,50.7127121 638.5,48.7363585 638.5,45.4707226 C638.5,39.9730354 643.042162,35.5 648.625189,35.5 Z" transform="translate(-638 -35)"/>
</svg>
