<svg xmlns="http://www.w3.org/2000/svg" width="147" height="69" viewBox="0 0 147 69">
  <g fill-rule="evenodd" transform="translate(.5 .5)">
    <path d="M128.589461 7.46411958C128.375193 7.44395488 128.217071 7.25267832 128.237122 7.03720412 128.256601 6.82172993 128.446807 6.66271689 128.661075 6.68230545 128.875915 6.70247015 129.033465 6.89317057 129.013986 7.1092209 128.993934 7.32527123 128.804302 7.48370814 128.589461 7.46411958M128.72123 8.51095544C128.651908 8.71605922 128.430193 8.82610085 128.225664 8.75581248 128.022282 8.68610024 127.912856 8.46371243 127.982751 8.25860865 128.052073 8.05292874 128.273216 7.94346324 128.477744 8.01317548 128.681126 8.08288772 128.790552 8.30585166 128.72123 8.51095544M128.109937 9.80495288C127.995355 9.98816356 127.754161 10.0428963 127.571976 9.92709333 127.389791 9.81071422 127.335937 9.56873785 127.451092 9.38552717 127.566247 9.20231649 127.807441 9.14815988 127.989053 9.26396285 128.171238 9.37976583 128.225091 9.6217422 128.109937 9.80495288M127.215627 10.9191964C127.060941 11.0701436 126.813445 11.0666868 126.663916 10.9111306 126.513241 10.7555743 126.517251 10.5072605 126.671937 10.3563133 126.826622 10.2053662 127.073545 10.208823 127.223074 10.3643792 127.373749 10.5199354 127.369739 10.7688254 127.215627 10.9191964M126.40668 2.01619447C126.548188 1.85314849 126.794539 1.83586446 126.957245 1.97874575 127.119378 2.1210509 127.13542 2.36878861 126.993911 2.53241072 126.852403 2.6954567 126.605479 2.7121646 126.443346 2.56985945 126.281213 2.42697816 126.264599 2.17924045 126.40668 2.01619447M126.085851 11.7920398C125.900802 11.9026575 125.661326 11.8410112 125.551328 11.6543437 125.441902 11.4682523 125.502631 11.2274282 125.688826 11.1173866 125.873875 11.0067688 126.113351 11.0684152 126.222776 11.2550827 126.332775 11.4417502 126.271474 11.6819981 126.085851 11.7920398M124.293794 9.7565576C124.072651 9.75425307 123.883591 9.72890316 123.727187 9.68050789 123.57021 9.63211261 123.424692 9.58026053 123.291777 9.52495165 123.158289 9.46964277 123.028239 9.41779069 122.901053 9.36939541 122.774441 9.32100014 122.634651 9.29622637 122.479966 9.29449797 122.304083 9.29276956 122.115596 9.32676148 121.913359 9.39532145 121.71055 9.46388142 121.508886 9.55491063 121.307222 9.6672568L120.834573 8.68264343C121.150818 8.53112014 121.41321 8.34848559 121.622895 8.13531593 121.832006 7.92214627 121.938567 7.68708351 121.941432 7.43127992 121.942005 7.33737005 121.931119 7.24403631 121.908776 7.1530071 121.88586 7.0619779 121.85836 6.97267709 121.825704 6.88452856L120.620878 6.87300587 120.628899 6.05489529 121.311233 6.0618089C121.185766 5.88551184 121.079205 5.70114889 120.989831 5.50814393 120.901603 5.3157151 120.858635 5.09447956 120.860927 4.84558958 120.864364 4.52237829 120.937696 4.23373505 121.08035 3.97908373 121.223578 3.72500854 121.411492 3.50780594 121.644092 3.32805207 121.876693 3.14887433 122.138512 3.01175439 122.431269 2.91669224 122.723452 2.82220623 123.019645 2.77611549 123.321568 2.77899617 123.876716 2.78418137 124.349939 2.88788553 124.738944 3.09068477 125.129094 3.29290788 125.428725 3.60402036 125.639556 4.02344606L124.498322 4.6790868C124.412959 4.46246033 124.28119 4.28789167 124.101297 4.15480466 123.921976 4.02171766 123.714583 3.95430996 123.480837 3.95200542 123.179487 3.94912475 122.927407 4.03266421 122.725171 4.20204767 122.522361 4.37143113 122.420383 4.60188481 122.417519 4.89110419 122.415227 5.14690778 122.467362 5.36238197 122.573923 5.53867904 122.680484 5.71497611 122.791055 5.89415385 122.903918 6.07736453L124.353949 6.09119175 124.346501 6.90930233 123.21157 6.89835578 123.21959 7.09020847C123.217299 7.32584736 123.153133 7.54247383 123.025947 7.73951173 122.899908 7.93712576 122.744077 8.09210587 122.561319 8.20502817 122.635224 8.178526 122.71715 8.16124197 122.807669 8.15144769 122.898189 8.14222954 122.980115 8.1381966 123.05402 8.13877274 123.201257 8.14050114 123.328443 8.1583613 123.435004 8.19292935 123.542138 8.22749741 123.641251 8.26725067 123.735208 8.31218913 123.828019 8.3571276 123.923695 8.39688086 124.019944 8.43087278 124.117338 8.46544083 124.229055 8.483301 124.355668 8.4850294 124.569936 8.4867578 124.751548 8.44988521 124.899358 8.3738355 125.047168 8.29836191 125.155448 8.21309405 125.223051 8.11918417L125.774762 9.26626739C125.639556 9.406268 125.451069 9.52379938 125.208729 9.61943766 124.966961 9.71392367 124.662174 9.76001441 124.293794 9.7565576M124.785349 12.3756637C124.579102 12.4390385 124.360251 12.3226594 124.297231 12.1158272 124.234211 11.9084189 124.349939 11.6889117 124.555613 11.6249609 124.761287 11.5615861 124.979565 11.6779652 125.043158 11.8853735 125.106178 12.0922057 124.991023 12.3117128 124.785349 12.3756637M123.384015 12.6360764C123.169175 12.6493275 122.984125 12.4851292 122.970948 12.2690789 122.957198 12.0524524 123.120477 11.8663611 123.335891 11.8525339 123.550732 11.8392828 123.735781 12.0040572 123.749531 12.2201075 123.762708 12.436734 123.599429 12.6228253 123.384015 12.6360764M121.962057 12.5600267C121.75008 12.522578 121.607426 12.3192026 121.645238 12.1054568 121.681904 11.8922871 121.884714 11.7494058 122.09669 11.7874307 122.309239 11.8248794 122.450747 12.0282548 122.413508 12.2414245 122.376269 12.4551703 122.174033 12.5974754 121.962057 12.5600267M121.109569 11.9481721C121.024205 12.1469384 120.794469 12.2379677 120.596816 12.1515475 120.398589 12.0651274 120.308643 11.8340976 120.394006 11.6353313 120.480515 11.436565 120.710252 11.3455358 120.907905 11.4319559 121.105558 11.518376 121.196078 11.7494058 121.109569 11.9481721M120.169426 2.190187C119.992397 2.31347972 119.748911 2.26911739 119.626882 2.09109192 119.503707 1.91306645 119.54782 1.66878554 119.724849 1.54491668 119.901878 1.42162396 120.144791 1.4659863 120.267966 1.64401177 120.390569 1.82203724 120.346455 2.06689428 120.169426 2.190187M119.911044 11.3559062C119.780994 11.5287464 119.536362 11.5633145 119.36449 11.4331082 119.192617 11.3023257 119.15767 11.0563164 119.28772 10.8834761 119.417197 10.7106359 119.662402 10.6760678 119.834275 10.8062741 120.00672 10.9370566 120.040522 11.1830659 119.911044 11.3559062M119.051682 3.05611672C118.907882 3.21801043 118.660958 3.23241379 118.500544 3.0878041 118.34013 2.94319442 118.325807 2.6954567 118.469034 2.53356299 118.612261 2.37224541 118.859185 2.35784206 119.020172 2.50245174 119.180586 2.6464853 119.194909 2.89479914 119.051682 3.05611672M118.882674 10.4980423C118.71653 10.6363145 118.47018 10.6121169 118.333255 10.4444619 118.19633 10.2773829 118.220392 10.0296452 118.387108 9.89252528 118.552679 9.7548292 118.799029 9.7784507 118.935954 9.94610576 119.072879 10.1131847 119.04939 10.3609224 118.882674 10.4980423M118.082321 9.42239976C117.888105 9.51688577 117.654931 9.43622698 117.560974 9.24091748 117.467017 9.04618412 117.547797 8.81112136 117.74144 8.71663535 117.935083 8.62214934 118.16883 8.70338426 118.262787 8.89811763 118.357317 9.09285099 118.275964 9.32791375 118.082321 9.42239976M117.090043 7.88930662C117.044211 7.67728923 117.177125 7.46815251 117.387383 7.42206178 117.598213 7.37539491 117.806179 7.50905804 117.852012 7.72107543 117.898417 7.93251669 117.765502 8.14165341 117.554672 8.18832028 117.344415 8.23498715 117.136449 8.10074788 117.090043 7.88930662M116.946816 6.46395058C116.9514 6.24732412 117.129001 6.07505999 117.344415 6.07966906 117.559828 6.083702 117.731128 6.26287974 117.726545 6.47950621 117.722534 6.69613267 117.54436 6.8683968 117.328946 6.86436386 117.113533 6.85975479 116.942233 6.68057705 116.946816 6.46395058M117.138741 5.04493202C117.193167 4.83521917 117.406862 4.70962191 117.6154 4.76435466 117.823366 4.81908741 117.94826 5.03398547 117.893834 5.24369832 117.838835 5.45341118 117.625713 5.5784323 117.417174 5.52369955 117.209208 5.46839067 117.084314 5.25406874 117.138741 5.04493202M117.656077 3.71002905C117.758055 3.51875249 117.994093 3.44731185 118.184298 3.54928761 118.373931 3.6518395 118.445545 3.88978293 118.343567 4.08105948 118.241589 4.27175991 118.004978 4.34377668 117.814773 4.24122479 117.62514 4.13867291 117.553526 3.90072948 117.656077 3.71002905M121.134204.832814799C121.335295.754460546 121.561021.854707899 121.638936 1.05693101 121.716852 1.25857798 121.617166 1.48615099 121.416648 1.56450525 121.215557 1.6428595 120.989258 1.54261215 120.911915 1.34038904 120.833427 1.13874206 120.933686.911169051 121.134204.832814799M122.822565.52515913C123.037979.527463666 123.210424.704336869 123.209278.921539467 123.206987 1.13816593 123.030531 1.31215846 122.814544 1.30985393 122.599131 1.30812552 122.426112 1.13067619 122.428404.914049722 122.430696.697423259 122.607151.522854593 122.822565.52515913M123.897914.94112803C123.950049.731415177 124.162598.603513382 124.371136.655941596 124.580248.708945943 124.707434.922115601 124.654726 1.13240459 124.602018 1.34269358 124.390042 1.47001924 124.181504 1.41759102 123.972392 1.36458668 123.845206 1.15141702 123.897914.94112803M125.25227 1.33923677C125.352529 1.14680794 125.587994 1.07306276 125.778772 1.17331012 125.970124 1.27355747 126.044029 1.51092477 125.94377 1.70277746 125.844084 1.89463015 125.608046 1.96895146 125.417267 1.86870411 125.226489 1.76845676 125.152583 1.53108946 125.25227 1.33923677M127.370885 2.94549895C127.546768 2.82047783 127.790254 2.86195949 127.914575 3.0388327 128.038896 3.2157059 127.997647 3.46056294 127.821764 3.58558406 127.646454 3.71118132 127.402395 3.66969966 127.278074 3.49282645 127.15318 3.31537712 127.194429 3.07109621 127.370885 2.94549895M128.599201 4.29480528C128.678835 4.49587612 128.58144 4.7246014 128.382068 4.80526019 128.18155 4.88534284 127.954679 4.78740003 127.874471 4.58632919 127.794264 4.38525835 127.891659 4.1571092 128.092177 4.07645041 128.291549 3.99579162 128.518993 4.09373444 128.599201 4.29480528M128.972737 5.67752738C129.003674 5.89184931 128.855863 6.09061561 128.642742 6.122303 128.42962 6.15341424 128.231393 6.00477162 128.199883 5.78987356 128.169519 5.57555163 128.31733 5.37678533 128.530451 5.34567408 128.743573 5.31456283 128.941227 5.46320546 128.972737 5.67752738M123.035114.0239223654C120.388277-.00200367416 118.099508 1.56738592 117.057961 3.83850698L117.057388 3.83965925C116.913588 4.15422853 116.794996 4.4820489 116.702184 4.82139195 116.51427 5.50756779 116.454688 6.10098603 116.452396 6.60049439 116.451823 6.88625696 116.467292 7.13687534 116.495364 7.35350181 116.518281 7.40362548 116.533176 7.45835823 116.532603 7.51712392L116.52401 7.55918172C116.588176 7.94461551 116.670102 8.18486347 116.678122 8.24305303 116.801298 8.71605922 116.978899 9.1654439 117.199469 9.58832641 117.406289 9.98528289 117.650348 10.3580417 117.9305 10.7014177 118.495961 11.3956594 119.198919 11.9746743 119.996408 12.398133 120.238175 12.5266109 121.282014 13.0566544 122.724025 13.1188769 123.603439 13.1569017 124.630664 13.020934 125.715752 12.5122075 127.92145 11.479775 129.463719 9.24840723 129.487781 6.64024765 129.522729 3.02097253 126.634125.0584904181 123.035114.0239223654M99.3142507 47.5648004L99.4526093 47.5648004C99.6154168 47.5648004 99.7465519 47.5098781 99.7465519 47.376577 99.7465519 47.2558623 99.6615364 47.1757672 99.4787252 47.1757672 99.3975993 47.1757672 99.3459232 47.1820604 99.3142507 47.1923583L99.3142507 47.5648004zM99.3036932 48.2993867L99.0141959 48.2993867 99.0141959 46.999558C99.1297726 46.9755295 99.2898018 46.9532173 99.5003958 46.9532173 99.7393283 46.9532173 99.8476815 46.9932648 99.9415875 47.0556246 100.012156 47.1122632 100.063832 47.2163868 100.063832 47.3348131 100.063832 47.4847053 99.9554789 47.5979826 99.8015619 47.6454676L99.8015619 47.6626308C99.9265848 47.7015341 99.9943749 47.8050856 100.033827 47.9790064 100.073834 48.1775277 100.097171 48.2581949 100.128288 48.2993867L99.8082298 48.2993867C99.7710008 48.2507575 99.7465519 48.1409128 99.7093229 47.987588 99.6865409 47.8451332 99.6081933 47.7799129 99.4470527 47.7799129L99.3036932 47.7799129 99.3036932 48.2993867zM99.5003958 46.5773425C98.9425161 46.5773425 98.5241064 47.047043 98.5241064 47.6214391 98.5241064 48.2015562 98.9425161 48.6649635 99.5142872 48.6649635 100.073834 48.6718288 100.483353 48.2015562 100.483353 47.6214391 100.483353 47.047043 100.073834 46.5773425 99.5070637 46.5773425L99.5003958 46.5773425zM99.5142872 46.3147451C100.242754 46.3147451 100.809524 46.8965786 100.809524 47.6214391 100.809524 48.3617464 100.242754 48.9349983 99.5070637 48.9349983 98.7824869 48.9349983 98.202381 48.3617464 98.202381 47.6214391 98.202381 46.8965786 98.7824869 46.3147451 99.5070637 46.3147451L99.5142872 46.3147451 99.5142872 46.3147451zM99.4842262 32.3688844L99.3191071 32.5392008C99.3052024 32.5461882 99.1913571 32.6405173 99.0714286 32.7409603 99.2348095 32.616935 99.4025357 32.4841755 99.571131 32.3400616L99.4842262 32.3688844"/>
    <path d="M120.063173 16.2871398C120.197496 16.2838369 120.340953 16.2766806 120.472053 16.2739281 120.43498 16.1462153 120.462382 16.0030888 120.562318 15.9040013 120.705239 15.7619758 120.933051 15.7652787 121.071673 15.9117081 121.16355 16.0085937 121.187191 16.1429124 121.154954 16.2645699 121.393512 16.2629184 121.625623 16.2623679 121.847525 16.2634689 122.081248 15.9612518 122.289181 15.6375658 122.46595 15.2935118 123.072018 15.327642 123.69098 15.3716809 124.334658 15.4388402L124.802104 16.3548496C124.802104 16.3548496 122.749104 16.2128241 120.063173 16.2871398M121.281755 14.9901938C121.388139 14.8178916 121.610579 14.7666963 121.778752 14.8756927 121.909851 14.961018 121.966804 15.1179067 121.935641 15.2648865L121.934029 15.2681895 121.891046 15.3848926C121.784662 15.5577453 121.561685 15.6083901 121.393512 15.4999442 121.301635 15.4399412 121.250055 15.3441566 121.234473 15.2417661L121.233398 15.2384632C121.222653 15.1547893 121.233936 15.0672619 121.281755 14.9901938M121.772304 13.929957C121.836779 13.7361858 122.041488 13.6332448 122.230078 13.6993032 122.418131 13.7648111 122.519142 13.9745464 122.455204 14.1672166 122.425116 14.2569459 122.363327 14.3246558 122.288106 14.3681442 122.202139 14.4171375 122.098441 14.4331016 121.99743 14.3978705L121.970028 14.3813559C121.801855 14.3048383 121.712127 14.112168 121.772304 13.929957M122.399326 12.4469466C122.597587 12.4656632 122.743731 12.6456722 122.725463 12.8482512 122.706658 13.0513807 122.5315 13.2005625 122.333239 13.1823965 122.135515 13.1631294 121.989371 12.9836709 122.007639 12.7805414 122.025907 12.5774119 122.201602 12.4282301 122.399326 12.4469466M113.693555 16.9400167L113.780596 16.9213001 113.811222 16.9146943C113.654332 16.7913854 113.623169 16.5618325 113.742449 16.3999895 113.862265 16.2370455 114.087928 16.2045668 114.246967 16.3273253 114.397947 16.4434779 114.42911 16.6554152 114.331323 16.8161572L114.347441 16.8134048C114.449527 16.7952388 114.553762 16.7803756 114.656385 16.7633105 114.33186 16.8167077 114.010021 16.8756098 113.693555 16.9400167M113.524307 9.03448139C113.391596 9.18696613 113.163783 9.2001778 113.014953 9.06420766 112.86666 8.928788 112.854302 8.69538176 112.986476 8.54289703 113.119188 8.39096278 113.347 8.37775111 113.495293 8.51372125 113.643587 8.64914091 113.656482 8.88254714 113.524307 9.03448139M113.467354 15.893542L113.449623 15.9194149 113.368492 16.037219C113.236318 16.1484172 113.054713 16.139059 112.924687 16.036118L112.903196 16.0218054 112.860749 15.9865742C112.734485 15.8291351 112.756514 15.5968298 112.91018 15.4674655 113.063847 15.3375507 113.291122 15.3601207 113.417923 15.5175598 113.505502 15.6271066 113.517322 15.771334 113.467354 15.893542M111.062427 17.6837238L111.017832 16.5833015C111.017832 16.5833015 111.455189 16.4181556 112.25307 16.2045668 112.492166 16.5210965 112.755977 16.8161572 113.04934 17.0798402 113.11865 17.0633256 113.190111 17.050114 113.259421 17.0341499 112.479808 17.2103055 111.737268 17.4233437 111.062427 17.6837238M111.947887 11.8793951C112.146686 11.883799 112.30465 12.0522479 112.300889 12.2559278 112.297128 12.4601583 112.132179 12.6220013 111.93338 12.6175974 111.734582 12.613744 111.576617 12.4447447 111.580378 12.2410647 111.584139 12.0373847 111.749089 11.8755417 111.947887 11.8793951M111.758223 10.9055847C111.808191 10.7085106 112.005378 10.5907065 112.197729 10.6419017 112.39008 10.6936474 112.505061 10.8956759 112.454555 11.0927501 112.404587 11.2903747 112.2074 11.4081788 112.015049 11.3564331 111.822698 11.3046873 111.70718 11.1026588 111.758223 10.9055847M111.71309 13.5820496C111.670106 13.3827735 111.793147 13.1862499 111.98711 13.142211 112.182147 13.0987225 112.373961 13.2247839 112.416408 13.42406 112.459391 13.6227856 112.336351 13.8198597 112.14185 13.8633482 111.94735 13.9073871 111.755536 13.7813257 111.71309 13.5820496M112.314322 14.3609879C112.493241 14.2718091 112.708695 14.3483267 112.795737 14.5316387 112.848929 14.6439379 112.835497 14.7672468 112.78123 14.8685363 112.746306 14.9329432 112.699024 14.9901938 112.629176 15.0248745 112.450257 15.1140533 112.234265 15.0375357 112.147761 14.8542237L112.143462 14.8377091C112.068241 14.6577 112.140776 14.4474142 112.314322 14.3609879M112.23534 9.64992519C112.329366 9.46991614 112.547507 9.40220631 112.722665 9.49909192 112.898897 9.59542704 112.964447 9.81892452 112.870421 9.99893358 112.776394 10.1783921 112.557716 10.246102 112.382558 10.1497669 112.2074 10.0534317 112.140776 9.82938376 112.23534 9.64992519M114.145956 7.612575C114.309831 7.49642237 114.53442 7.53825934 114.647789 7.70560721 114.76062 7.87350556 114.720323 8.10305839 114.556449 8.21976151 114.393111 8.33591414 114.168523 8.29407717 114.055154 8.12672931 113.941785 7.95883095 113.982619 7.72872763 114.145956 7.612575M93.4091028 32.4367595L93.4198487 32.3073952C93.3607464 32.601355 93.1995583 32.8204485 92.9803424 32.8501748 92.6654882 32.8925623 92.3570816 32.5292412 92.2947555 32.0393083 92.2302803 31.5488249 92.4344519 31.1161426 92.7498434 31.0743057 92.8159305 31.0649474 92.8814803 31.0776086 92.944881 31.1023805 92.637549 30.7528216 92.2442499 30.593731 91.9358433 30.7401604 91.5081574 30.939987 91.4044598 31.6413067 91.7042697 32.3051933 91.9492756 32.8512758 92.3920057 33.1964308 92.7783199 33.1909259 92.2361905 33.3224921 91.554902 32.8490738 91.1959898 32.0481161 90.8021534 31.1755952 90.9391633 30.2524295 91.4995607 29.9903979 92.0594209 29.7250635 92.8341985 30.2177488 93.226423 31.0897193 93.438654 31.5620366 93.4907715 32.0464647 93.4091028 32.4367595M115.447819 6.94263305C115.633185 6.86886787 115.842193 6.96300104 115.91419 7.15346934 115.986187 7.34338715 115.89431 7.55697588 115.708406 7.63129154 115.522503 7.70450623 115.314033 7.61037306 115.242035 7.42045525 115.170038 7.23053744 115.262453 7.01639822 115.447819 6.94263305M145.894108 27.2087901C145.699608 26.585089 145.600746 28.4038961 144.907637 29.0898022 144.544426 29.4498203 144.227423 29.4421135 143.82499 29.2037529 143.645534 29.0980595 143.511748 28.8762134 143.393006 28.7099665 143.177014 28.4088505 142.979289 28.0939723 142.784252 27.779094 142.505396 27.3304476 142.232988 26.8779478 141.961118 26.4259984 141.718261 26.0241434 141.510328 25.5688911 141.144969 25.2694265 140.477112 24.722243 139.54652 24.74151 138.755086 24.9286754 138.503095 24.9875775 138.259701 25.0795087 138.030814 25.2275895 138.032963 25.2358468 137.963652 25.2644721 137.914758 25.2870421L137.861566 25.027763C136.839096 20.3469771 132.84163 16.4974256 127.400994 15.1421281 125.868632 14.760641 124.337345 14.536593 122.83131 14.4110821 123.040317 13.7945374 123.166581 13.138908 123.173029 12.4502495L123.170342 12.3781358C121.817974 12.3186833 120.839025 11.8122358 120.612287 11.6894773 119.864374 11.2848698 119.205114 10.731631 118.674805 10.0682949L118.069813 10.5598792C117.960205 10.3677595 117.813524 10.2224311 117.628694 10.122793 117.443865 10.023155 117.242918 9.98902482 117.025851 10.0204025 116.746995 10.0611385 116.525093 10.1761902 116.361218 10.366108 116.197344 10.5549248 116.135018 10.7866796 116.172628 11.0602714 116.206478 11.3013844 116.284385 11.4979081 116.4085 11.6481909 116.531541 11.7995746 116.658879 11.9526098 116.789442 12.108948L118.134288 11.9129748 118.241209 12.6858577 117.189188 12.8394434 117.205844 12.9291727 117.223038 13.018902C117.254201 13.241849 117.22465 13.4548872 117.134921 13.6591177 117.045193 13.8644491 116.923765 14.032898 116.769562 14.1655652 116.834574 14.1297836 116.908183 14.1011583 116.990389 14.0796893 117.073133 14.0576699 117.148354 14.0422562 117.21659 14.0323475 117.353063 14.01253 117.473417 14.0108785 117.577652 14.0284941 117.680812 14.0455592 117.779137 14.0686796 117.871551 14.0973049 117.963966 14.1264807 118.057992 14.1496011 118.152019 14.1683176 118.246582 14.1870342 118.352429 14.1881351 118.470634 14.1710701 118.669433 14.1418943 118.832233 14.0807903 118.958497 13.9877581 119.084761 13.8947259 119.172877 13.7994917 119.222308 13.7009547L119.853091 14.6422864 119.893388 14.7033904C119.788078 14.8547742 119.630114 14.9934967 119.418957 15.1179067 119.338363 15.165799 119.238964 15.2032321 119.139027 15.2395642L119.099805 15.2522254C118.948825 15.3056225 118.785488 15.3513129 118.590988 15.3793877 118.386279 15.409114 118.207897 15.4124169 118.055306 15.3892965 117.935489 15.3705799 117.826419 15.3474595 117.720034 15.3226876L117.679737 15.3149808 117.630306 15.3050721C117.499207 15.2725934 117.371868 15.2423166 117.247753 15.2147923 117.123638 15.1878184 116.989852 15.1845155 116.846932 15.205434 116.684669 15.2291049 116.51381 15.2874565 116.335966 15.3815897L116.240865 15.4443451 116.198418 15.4696675C116.068393 15.5456346 115.939443 15.6260056 115.812641 15.7256437L115.684228 15.5335239 115.672408 15.5153579 115.258692 14.8966111 115.237737 14.8657839C115.509071 14.6764166 115.726674 14.4666813 115.891086 14.234376 116.055498 14.0031717 116.121048 13.767013 116.087199 13.5253495 116.074841 13.4361707 116.051737 13.3502948 116.017888 13.2671714 115.984575 13.1845984 115.946428 13.1047779 115.903981 13.0260583L114.78641 13.1890023 114.679489 12.4161194 115.312958 12.3241882C115.17165 12.1755568 115.046998 12.0170167 114.937927 11.8480174 114.828319 11.6790181 114.757934 11.4764391 114.725696 11.2413814 114.68325 10.9358614 114.710115 10.6534619 114.806828 10.3925314 114.904078 10.1316008 115.047535 9.90039651 115.237737 9.69726703 115.428476 9.49413754 115.651991 9.32734016 115.909354 9.19522342 116.166718 9.06365717 116.434828 8.97778129 116.71422 8.9370453 117.195098 8.86713352 117.618486 8.8924559 117.989219 9.00475513 117.78236 8.6006981 117.615799 8.17131871 117.500281 7.71936937 117.492759 7.66377024 117.415926 7.43421741 117.355749 7.065942 117.333183 7.24980446 117.18489 7.39348141 116.999523 7.39182995 116.800725 7.38962801 116.641148 7.22228014 116.64276 7.01860017 116.64491 6.8149202 116.80771 6.65087525 117.007046 6.6530772 117.15104 6.65472865 117.271931 6.74390745 117.328885 6.86941835 117.302557 6.66243546 117.28805 6.42297388 117.288587 6.14993262 117.234858 6.14773067 117.182741 6.1383724 117.129011 6.13782192 113.75803 6.10479273 111.000638 8.87814325 110.968401 12.329693 110.959267 13.2699238 111.159677 14.1584089 111.517515 14.9593666 107.490498 15.9111576 102.392655 20.0084279 102.392655 20.0084279L102.380834 19.9897114C101.699009 20.5468036 100.453024 21.5679559 100.329447 21.6945678 100.329447 21.6945678 100.684598 20.6497446 102.029444 19.5344591 101.430899 18.8133219 100.247778 17.492705 99.5895932 16.905336 98.7100432 16.1203424 97.2674095 14.9879919 96.6360893 15.5192113 96.0047691 16.0509811 97.2222768 18.4296329 97.6961699 19.4001404 98.1695257 20.3700975 98.3049237 21.0400394 98.3269528 21.6406201 98.338236 21.9450391 98.3951891 22.0826607 98.3403851 22.1597288 98.4859917 22.1624812 98.6353594 22.1608298 98.7901 22.1536734 98.976541 22.1591783 99.1006558 22.1564259 99.2467997 22.1536734L99.3488855 22.152022C99.4654783 22.1492695 99.5815338 22.1465171 99.6949027 22.1465171 100.253688 22.1465171 100.808175 22.2136765 101.080583 22.7025084 101.203086 22.9287583 101.326664 23.3928183 101.444869 23.8414648L101.490539 24.0132165C101.628623 24.5477388 101.858585 25.5589824 101.862346 26.3742527 101.680741 25.6718321 101.423377 24.9050045 101.080583 24.0699166L101.04942 23.951562C100.947872 23.566772 100.820533 23.0878489 100.722746 22.9089408 100.565319 22.6248898 100.19781 22.5665382 99.6949027 22.5665382 99.5842202 22.5665382 99.4713885 22.5692907 99.356945 22.5720431L99.2548591 22.5736946C99.1001185 22.5769975 98.943766 22.5791994 98.7906373 22.5731441 98.5015733 22.5896587 98.1501831 22.5819519 97.8417765 22.5538771 97.2974979 22.5037828 96.8273658 22.3865292 96.4829605 22.2136765 96.1949711 22.0733024 95.7130186 21.9995372 95.3879558 21.9995372 95.3068245 21.9995372 95.2353644 22.0050421 95.1762621 22.0127489 94.6609973 22.092019 94.5873881 22.1586278 94.4068574 22.3199203L94.3106818 22.4057962C94.0968389 22.5885577 93.809924 24.157444 94.5288231 25.1653846 95.0779373 25.9311112 95.5991123 27.15209 96.0370067 28.6945529 96.1831506 29.441563 96.3443387 29.9502124 96.4222463 30.1946284L96.4550213 30.2997713C96.5087506 30.4709726 96.820381 31.2834905 97.2050834 31.9281101 97.6075164 32.6057588 97.7907336 32.8298068 98.1238557 32.9184351 98.8260987 33.106151 99.4085252 32.8088883 99.9017608 32.6486968 99.8722097 32.6954881 99.3381397 33.3863486 98.4413964 33.3819447 98.2802082 33.3808437 98.1222439 33.3593747 97.9970544 33.3180883 97.5210121 33.1595482 97.25935 32.8287058 96.8547678 32.1472037 96.454484 31.4761607 96.1310331 30.6388709 96.0644087 30.4258327L96.0321711 30.3245432C95.9526516 30.0724204 95.7860905 29.5478069 95.6394093 28.7947415 95.2187083 27.3155845 94.7190251 26.140296 94.1983874 25.4131035 93.9866936 25.1174923 93.8475346 24.7745392 93.7615676 24.4222279 92.352246 24.8807831 91.4436822 27.6139481 90.8424505 28.8233667 90.2111303 30.0938894 89.1741533 29.8858055 87.3032963 30.2094915 85.4319021 30.532627 86.1534877 32.8193476 86.2657821 34.4130057 86.3178996 35.1429507 86.6719762 35.6818769 87.0416343 36.0540057 87.4569624 36.3215421 88.3800331 36.731104 90.1348346 36.731104 90.3750049 36.731104 90.6259211 36.7228467 90.8822102 36.7079836 94.1097339 36.5175153 94.9790753 33.836096 94.987672 33.8091221 95.0129248 33.7276501 95.1021155 33.6792073 95.1837842 33.7056307 95.2654528 33.733155 95.3100482 33.8234348 95.2842581 33.9071087 95.2756614 33.9362845 94.3482924 36.8230352 90.8999409 37.0272657 90.6329059 37.0426793 90.3728557 37.0503861 90.1267751 37.0503861 89.1811381 37.0503861 88.4681493 36.9347839 87.9319301 36.7817487 87.9018416 37.398844 88.2274416 37.5309607 88.2274416 37.5309607 93.2548995 42.4506577 101.212758 44.6448966 101.212758 44.6448966 102.136903 45.5229224 102.903621 47.7160602 102.881055 49.0553937 102.858489 50.3952776 104.954472 50.8808066 106.893565 50.580241 108.832121 50.2796754 110.365557 46.5159999 110.365557 46.5159999 118.278283 47.5553182 124.79297 46.1923139 124.79297 46.1923139 125.42429 46.631602 125.807918 47.6477999 126.033044 48.9871333 126.258707 50.3270173 127.656746 50.6044624 129.144512 50.6738237 130.632278 50.743185 130.970236 50.3732581 131.962081 49.1258559 132.954462 47.8790042 133.833475 44.2061589 134.103734 43.0974793 134.373992 41.9887997 135.501772 39.7945608 135.501772 39.7945608 137.101833 37.7852854 137.733153 35.7297692 137.733153 35.7297692 138.763145 32.660257 138.626673 29.5180806 138.551451 28.5393158 138.750787 28.2337958 139.282708 27.4113691 139.406286 27.2902621 140.105305 26.6027046 140.984318 27.9183671 141.341081 28.4044466 141.712888 28.9103436 142.033652 29.4624815 142.477994 29.907825 142.965857 30.3961064 143.540224 30.6223563 144.221513 30.5596009 144.83349 30.5023503 145.274608 30.1660031 145.586776 29.6391876 146.027357 28.896031 146.090758 27.8330417 145.894108 27.2087901M22.5952381 52.4286692L17.2260883 52.4286692 16.0816185 58.203921C15.7742828 59.6415204 15.755305 59.8776369 15.5765969 60.9136123L15.5555104 60.7712645 15.5328424 60.632306 15.4864521 60.4893934 15.4226654 60.2046979C15.268734 59.404839 15.3367379 59.7578841 15.181225 59.0523589 15.0267664 58.3688637 14.9819576 58.203921 14.9819576 58.1553421L13.6192426 52.4286692 9.02027715 52.4286692 7.6791758 58.2265159C7.65598066 58.3202847 7.65598066 58.3202847 7.45987621 59.2884754 7.34811777 59.7838682 7.41454024 59.3822442 7.15043184 60.8910174L7.12776385 61.03393C6.92955076 60.0431445 6.88579628 59.8776369 6.84204179 59.6189255 6.66649669 58.6507348 6.68969183 58.8608672 6.55790122 58.1779369L5.34648184 52.4286692 0 52.4286692 4.15562181 68.1501882 9.48207148 68.1501882 10.8026135 62.6590669C10.9781586 61.8592081 11.222762 60.535148 11.3972528 59.35626 11.660834 60.8655982 11.8152926 61.6908762 12.034065 62.6133123L13.3335205 68.1501882 18.6346664 68.1501882 22.5952381 52.4286692M31.4803936 62.4449804L29.5279934 62.4449804 29.8349944 61.2214676C29.9874435 60.6289168 29.9674674 60.7260748 30.2960216 59.1947066 30.4705495 58.4140535 30.4936798 58.3202847 30.5825208 57.7797021 30.7344442 58.8868514 30.9531299 60.279261 31.1954714 61.2440624L31.4803936 62.4449804zM33.5442393 52.4286692L27.6628572 52.4286692 22.5952381 68.1501882 28.1238844 68.1501882 28.6511481 66.0556426 32.3356857 66.0556426 32.8177404 68.1501882 38.2380952 68.1501882 33.5442393 52.4286692 33.5442393 52.4286692zM44.2660541 56.4808982L44.6411415 56.4808982C46.2592698 56.4808982 46.7876815 56.8367037 46.7876815 57.9888357 46.7876815 58.6496173 46.5691016 59.1223302 46.1478577 59.403586 45.8820602 59.5656752 45.8146824 59.5656752 44.6841148 59.617634L44.2660541 59.617634 44.2660541 56.4808982zM39.1071429 52.4286692L39.1071429 68.1501882 44.2660541 68.1501882 44.2660541 65.4827767 44.2888671 64.6836263C44.2888671 63.9290928 44.2660541 63.2203057 44.2220198 62.702411 44.2888671 62.8447332 44.3329014 62.9384851 44.3551838 62.9644646 44.796588 64.0234094 44.820462 64.0940058 45.1064197 64.6158538L47.0333187 68.1501882 53.0119048 68.1501882 49.1602289 61.6666218C51.1518531 61.1487271 52.1911689 59.617634 52.1911689 57.2348669 52.1911689 55.3965386 51.4192421 53.9371714 50.0218159 53.1114768 49.1793282 52.616173 48.0954475 52.4286692 46.1478577 52.4286692L39.1071429 52.4286692 39.1071429 52.4286692z"/>
    <polyline points="64.31 52.429 53.881 52.429 53.881 68.15 64.31 68.15 64.31 64.142 59.449 64.142 59.449 62.257 63.787 62.257 63.787 58.249 59.449 58.249 59.449 56.433 64.31 56.433 64.31 52.429"/>
    <polyline points="79.952 52.429 74.428 52.429 74.428 57.78 70.699 57.78 70.699 52.429 65.179 52.429 65.179 68.15 70.699 68.15 70.699 62.494 74.428 62.494 74.428 68.15 79.952 68.15 79.952 52.429"/>
    <path d="M89.9916302 56.696386C91.5901741 56.696386 92.6553382 57.962969 92.6553382 59.8650932 92.6553382 61.8347085 91.6539882 63.0309882 90.0129016 63.0309882 88.3032149 63.0309882 87.237519 61.8347085 87.237519 59.9359588 87.237519 57.962969 88.3260816 56.696386 89.9916302 56.696386M90.1027732 51.5552515C85.1087861 51.5552515 81.6904762 54.9584902 81.6904762 59.9100872 81.6904762 64.9359245 84.8875638 68.1501882 89.8576206 68.1501882 94.9638141 68.1501882 98.202381 64.9134275 98.202381 59.8425961 98.202381 54.9359932 94.8941504 51.5552515 90.1027732 51.5552515M113.845238 52.4286692L108.587003 52.4286692 108.587003 60.8485025C108.587003 61.3327225 108.541025 61.901393 108.474493 62.199712 108.292745 62.9323482 107.818363 63.275086 106.981026 63.275086 106.26215 63.275086 105.787768 62.9762187 105.539488 62.4294834 105.379918 62.0395849 105.379918 62.0834553 105.358281 60.093931L105.358281 52.4286692 99.9404762 52.4286692 99.9404762 61.53672C99.9404762 65.905667 102.286966 68.1501882 106.916116 68.1501882 109.694256 68.1501882 111.476571 67.4614223 112.673616 65.8837318 113.55098 64.7431005 113.845238 63.6869197 113.845238 61.6502347L113.845238 52.4286692M126.59544 52.7059747C125.281742 52.0709959 122.84602 51.5552515 121.269696 51.5552515 117.329744 51.5552515 114.490072 53.9500607 114.490072 57.2571246 114.490072 59.9100872 115.945669 61.318964 119.359798 62.0248084 120.960153 62.3538275 121.222778 62.4921843 121.222778 63.0562974 121.222778 63.7143356 120.627151 64.0911609 119.621851 64.0911609 118.166254 64.0911609 116.687199 63.3369479 115.253345 61.9055741L113.845238 66.2964326C115.303123 67.3537932 117.975722 68.1501882 120.005776 68.1501882 124.088198 68.1501882 126.880952 65.8256822 126.880952 62.4246932 126.880952 59.8167246 125.66395 58.3369822 123.061728 57.705378 121.317186 57.3054932 121.507718 57.3538618 121.127226 57.1862589 120.674641 56.9989711 120.458361 56.7188831 120.458361 56.3639923 120.458361 55.8741194 120.912663 55.5681598 121.579811 55.5681598 122.583395 55.5681598 123.970331 56.0130386 125.185045 56.7638771L126.59544 52.7059747"/>
    <polyline points="138.179 52.429 127.75 52.429 127.75 68.15 138.179 68.15 138.179 64.142 133.315 64.142 133.315 62.257 137.658 62.257 137.658 58.249 133.315 58.249 133.315 56.433 138.179 56.433 138.179 52.429"/>
    <path d="M14.7738095,35.8337325 L9.51415633,35.8337325 L9.51415633,44.2544079 C9.51415633,44.734806 9.47088481,45.3067867 9.40056859,45.6051161 C9.22261446,46.3377779 8.74662775,46.6799792 7.91148742,46.6799792 C7.18885305,46.6799792 6.71448901,46.3816499 6.46675956,45.8348955 C6.30827762,45.4449834 6.30827762,45.4921458 6.28880544,43.4998101 L6.28880544,35.8337325 L0.869047619,35.8337325 L0.869047619,44.942101 C0.869047619,49.3144908 3.21760934,51.5552515 7.84603925,51.5552515 C10.6202845,51.5552515 12.4030711,50.86701 13.6000696,49.2892644 C14.480645,48.1453029 14.7738095,47.0918273 14.7738095,45.0550713 L14.7738095,35.8337325"/>
    <polyline points="26.94 34.96 14.774 34.96 14.774 39.674 18.159 39.674 18.159 50.682 23.601 50.682 23.601 39.674 26.94 39.674 26.94 34.96"/>
    <polygon points="27.81 50.682 33.024 50.682 33.024 34.96 27.81 34.96"/>
    <polyline points="35.631 34.96 35.631 50.682 46.06 50.682 46.06 45.967 41.227 45.967 41.227 34.96 35.631 34.96"/>
    <polygon points="46.929 50.682 52.143 50.682 52.143 34.96 46.929 34.96"/>
    <polyline points="65.179 34.96 53.012 34.96 53.012 39.674 56.397 39.674 56.397 50.682 61.84 50.682 61.84 39.674 65.179 39.674 65.179 34.96"/>
    <path d="M80.8214286,34.9603147 L74.6988079,34.9603147 L74.3181048,35.7370138 C74.1229679,36.138073 73.741733,36.9639159 73.5008692,37.5270934 C73.2557517,38.09366 73.1446246,38.3755312 73.0106342,38.8969081 C72.7235117,37.9998913 72.2566718,36.9384967 71.7031635,35.7596087 L71.3022555,34.9603147 L65.1785714,34.9603147 L70.4371662,43.9406506 L70.4371662,50.6818337 L75.7622244,50.6818337 L75.7622244,43.775708 L80.8214286,34.9603147"/>
  </g>
</svg>
