<svg xmlns="http://www.w3.org/2000/svg" xmlns:xlink="http://www.w3.org/1999/xlink" width="175" height="37" viewBox="0 0 175 37">
  <defs>
    <polygon id="williamhill-a" points="0 .271 173.862 .271 173.862 36.453 0 36.453"/>
  </defs>
  <g fill="none" fill-rule="evenodd" transform="translate(.5 .5)">
    <path fill="#000" d="M72.4008193 10.5060529C73.2611434 10.1732449 74.004519 9.20502044 74.2042577 8.28979866 74.3200483 7.88611499 74.2042577 7.48058238 73.9888872 7.16256592 73.6085152 6.74039292 72.9155085 6.79339566 72.4349775 6.94993864 71.6082327 7.37334427 70.6651183 8.18256056 70.5157485 9.20440412 70.448011 9.7319663 70.5991177 10.1726286 70.9627001 10.5066692 71.4241257 10.6829341 71.937078 10.6650611 72.4008193 10.5060529M50.5579422 10.6321839C51.7598688 10.5641661 52.839896 9.34417323 53.2062033 8.21445863 53.3110366 7.82428352 53.2244882 7.41864982 52.9806897 7.11875295 51.9878203 6.42929932 50.7176302 7.10020263 50.0544984 8.01844356 49.6711253 8.60092367 49.3395593 9.29161398 49.5833578 10.0311535 49.7735206 10.4027783 50.1575032 10.6148703 50.5579422 10.6321839"/>
    <polygon fill="#000" points="142.5 5.319 135.011 5.316 135 31.893 142.489 31.897"/>
    <polygon fill="#000" points="174 23.959 168.184 23.956 168.191 5.319 160.51 5.316 160.5 31.891 173.996 31.897"/>
    <polygon fill="#000" points="158.25 23.958 152.434 23.956 152.442 5.319 144.761 5.316 144.75 31.89 158.247 31.897"/>
    <polygon fill="#000" points="121.715 21.968 125.033 21.97 125.028 31.893 132.739 31.897 132.75 5.324 125.04 5.321 125.037 14.473 121.718 14.471 121.72 5.319 114.01 5.316 114 31.888 121.709 31.891"/>
    <path fill="#000" d="M67.3318981,25.8388304 C69.6300456,22.3292988 72.78018,19.4018077 75.8942079,16.3667447 C77.0166768,15.5080908 78.0669328,14.4842373 79.4231438,14.2108255 C79.6948928,14.1928969 79.9666418,14.3209586 80.0211183,14.6116588 C80.0211183,15.9479829 79.2052379,17.0998981 78.534417,18.1602492 C75.874571,21.9470345 72.5432706,25.4943444 69.3931363,28.512119 C68.1623478,29.350283 67.2400483,30.7596023 65.7565142,30.8338781 C65.5025018,30.8498858 65.2484894,30.6667575 65.2301194,30.429203 C65.4486588,28.6901248 66.4431713,27.3032163 67.3318981,25.8388304 M48.1333716,27.9159916 C46.8835797,29.0128403 45.7598439,30.4016698 44.1325173,30.8236331 C43.4978029,30.2371104 44.2237337,29.5244469 44.4029994,28.9398451 C45.7991176,26.6904409 47.4454477,24.5313202 49.2203675,22.4490365 L59.1224187,10.3574482 L61.8734811,6.88569474 C61.9285911,6.73842375 61.9824341,6.46501196 61.7651616,6.42915468 C60.6065862,6.33695023 59.6114401,6.46373134 58.4002885,6.29917202 C58.2368591,6.33502931 58.0917996,6.39137647 57.966377,6.51815758 L50.6329554,16.0625981 L44.8584481,23.670105 C42.7756728,26.2306993 40.3318324,28.5140399 37.6890894,30.4163969 C37.1829649,30.6008057 36.6204635,31.2596833 36.0801328,30.7813728 C35.9711798,29.8484431 36.6755734,29.1351393 37.1652284,28.4051874 L43.3932841,20.8533874 L48.3715479,14.7640522 C48.4450278,14.6167812 48.6071904,14.3600175 48.3721813,14.2332364 C47.4739528,14.3004688 46.2216271,14.2466828 45.0237779,14.2454022 L38.2167512,23.0451638 C37.2203383,24.2899238 36.4247282,25.640975 35.7912808,27.1053609 C35.4093119,28.2950543 34.7942344,30.0322117 35.788747,31.1476293 C36.1688155,31.3666149 36.71168,31.2391935 37.0923819,31.1104914 C39.3917963,29.9777854 41.4004583,27.9307187 43.3191707,26.1942017 C42.8117793,27.4549694 42.5400303,29.1562695 43.0626245,30.4919533 C43.3001673,30.8390006 43.6428624,31.2609639 44.130617,31.1508309 C46.2666019,30.6219359 47.8780923,28.6100862 49.5795323,27.1834785 C49.3977328,28.4455269 48.9809244,30.0194055 49.9399639,31.0624683 C50.2832924,31.373018 50.8628969,31.3538087 51.2790719,31.225747 C53.5056398,30.3318761 55.3869788,28.4122308 57.2689513,26.8575614 C57.0903191,28.1010408 56.6177673,29.729986 57.5400669,30.8639726 C57.773809,31.1924509 58.1367744,31.2289485 58.515576,31.1930912 C60.5077683,30.3895039 62.2288452,28.6517062 63.8542714,27.2263792 C63.8732749,28.3417969 64.0183343,29.6954093 64.6511484,30.7019745 C64.9767404,31.1053689 65.4480253,31.3237142 65.9896229,31.2699283 C68.4689364,30.5566244 70.2254863,28.3078605 72.2164117,26.6622673 C71.8192402,27.9608132 71.0046267,30.0834364 72.3069947,31.2359919 C72.7396394,31.4729061 73.2096574,31.3634133 73.6258324,31.1617161 C75.5458117,29.9195174 76.9767696,27.8346724 78.6421031,26.1724312 L83.981432,19.8461819 C85.609392,18.1263129 86.9313969,16.0952539 88.9229558,14.8165575 C89.2308113,14.6526385 89.7198328,14.3958747 89.9371053,14.8536954 C89.8832622,15.9332558 89.1212249,16.7009858 88.5960969,17.6345558 L78.8004649,30.6347421 L78.8023653,31.0016389 L79.0551108,31.0368559 C79.6340818,30.9087942 80.2320563,30.6898086 80.8648703,30.8377199 C81.2633088,30.8729369 81.5515274,31.277612 81.9683358,31.1297007 L86.3663618,25.6089596 C89.4265466,21.9681647 92.5760475,17.9470264 96.3957359,14.9471805 C96.6484814,14.7839018 97.1026633,14.4739924 97.3364054,14.8210397 C97.3186688,15.6822548 96.6307449,16.3757091 96.2684129,17.1607274 L89.7325017,25.8477947 L86.164292,30.6020864 C86.0933459,30.7109388 86.019866,30.9305647 86.1661924,31.0406978 C86.8528494,31.0771954 87.431187,30.638584 88.2286974,30.8037836 C88.7177188,30.7493573 89.0781505,31.2987422 89.5684388,31.0419784 L97.0450195,21.8068069 C99.1442645,19.2481336 101.604575,16.7253176 104.320797,14.952303 C105.099304,14.6417533 106.129923,13.7818188 106.87169,14.587327 C106.90843,14.9516626 106.855221,15.3729857 106.546732,15.6476781 C104.790815,17.439902 102.6732,19.3595473 101.007234,21.1146333 C98.9624651,23.5471658 96.4274082,26.0328439 96.4261413,29.4905106 C96.5338274,30.3517257 96.9677389,31.173882 97.7646159,31.613774 C100.026023,32.5281347 101.908629,31.0278916 103.628439,29.9150352 C106.958473,27.2443079 109.202777,23.6233625 110.940957,20.0594046 C112.86347,16.3833928 113.135853,10.9510143 111.035974,7.27180084 C110.4418,6.33951147 109.66456,5.48021728 108.779001,4.85655666 C106.499223,3.42930871 103.422569,3.5029442 101.087048,4.72529339 C98.734424,5.93227517 96.7783381,8.18103911 97.0127137,10.9785475 C97.1045636,11.7123412 97.8285941,12.3705785 98.4620416,12.6644802 C100.723449,13.1767271 102.731478,12.1720828 104.197909,10.5444183 C104.59508,9.97774515 105.158215,9.46613854 105.248798,8.78869201 L105.140478,8.78933231 C103.872317,10.5431377 102.315303,11.848727 100.397857,12.3430453 C99.4217145,12.471107 98.2796087,12.5159286 97.6125885,11.5119246 C96.9962441,10.4855099 97.5942185,9.24331114 97.974287,8.29117219 C99.4419848,5.82214209 102.082827,4.30525093 104.851626,4.4518816 C107.42279,4.61900216 109.845093,6.35808042 110.749656,8.82711052 C112.882474,14.4624668 110.673642,20.5345137 107.433558,24.9949036 C105.277937,27.8474786 102.906943,30.7371915 99.3767397,31.449855 C98.9415613,31.4671433 98.5095501,31.4120768 98.2910107,30.9728251 C98.166855,29.893905 98.9263586,29.107606 99.4331166,28.2662404 L105.044828,21.3720373 C105.986764,20.1849051 106.874224,18.9228568 107.471565,17.5692444 C107.83263,16.5646001 108.231069,14.8812287 107.274563,14.0584321 C106.822282,13.7638901 106.190101,13.6908949 105.663073,13.8554543 C102.803057,14.7134678 100.54165,17.2554931 98.3315514,19.4491905 C98.2777083,19.4312619 98.1877588,19.4677595 98.1339158,19.3954046 C98.5684607,18.4816842 98.9643654,17.4936879 99.0207423,16.3769897 C99.0030057,15.5356241 98.8402097,14.6936183 98.1345492,14.2178689 C97.720908,13.9258882 97.2122497,14.0539499 96.7599682,14.2172286 C94.4808241,15.5695605 92.9751194,17.4898461 90.9499878,19.2814296 C90.6776054,19.5010555 90.5870224,19.9217383 90.2981703,19.8852407 C90.7327153,18.6590497 91.4219062,17.379713 91.2591102,16.0459501 C91.2052671,15.2762991 90.9157816,14.4707909 90.1746481,14.1231033 C89.3232946,13.8484109 88.6360041,14.3958747 87.9841866,14.8556163 C85.3230737,17.1940235 83.2605687,20.2117981 80.8325645,22.8620355 L75.0035807,29.4085511 L73.5567866,30.6699591 C73.3034076,30.7429543 72.9594456,31.0714326 72.7409063,30.7058164 C72.8143862,29.754958 73.6638393,29.1338587 74.1167542,28.3475596 L85.3965537,14.6500773 C85.4674998,14.4867986 85.6486658,14.1762489 85.3591802,14.0840444 C84.1714662,13.9867175 83.1332458,14.1749683 81.9772041,14.120542 C81.4343396,14.3580965 81.0713742,15.0169741 80.7090422,15.5093715 C80.6368292,15.5458691 80.6007227,15.4722336 80.5462462,15.4370166 C80.5462462,15.3998787 80.5646162,15.38195 80.6013562,15.3441718 C80.6729357,14.906841 80.6735692,14.3753849 80.2757641,14.0821235 C79.9495387,13.8996356 79.5339971,13.7530049 79.1355587,13.8804263 C73.0373597,15.5612365 66.3576559,19.6732985 64.0949815,26.1288902 L62.8445561,27.51836 C61.3781252,28.7067728 60.1460698,30.2793708 58.3559472,30.8281153 C57.9042992,29.9304026 58.7721222,29.1633129 59.1705607,28.4135114 L64.945068,21.4290248 L70.4129867,14.7730165 C70.5225732,14.6443145 70.5586797,14.3337648 70.3591437,14.242841 L66.8036029,14.2543665 L63.2100553,18.9042879 C61.0005905,21.5910229 58.8829755,24.701002 56.3301821,27.1143252 C54.7725348,28.5953591 53.0172518,30.1135309 51.0801694,30.8979089 C50.8806334,30.9356872 50.6095179,30.8979089 50.4663587,30.6603544 C50.3947792,29.8542059 50.9363768,29.1966089 51.3164453,28.537091 L57.272752,21.1882688 L68.9503565,6.92667449 C69.058676,6.8165414 69.1137859,6.52392036 68.9136165,6.43235622 L65.512637,6.30365418 C64.6429136,6.85047776 64.2451085,7.85704294 63.5400815,8.60556374 L51.4817751,24.2034821 C50.3947792,25.5385257 49.3445232,26.765357 48.1333716,27.9159916"/>
    <mask id="williamhill-b" fill="#fff">
      <use xlink:href="#williamhill-a"/>
    </mask>
    <path fill="#000" d="M4.40030182,23.6876104 C4.05799636,17.7694011 6.53702182,11.5582871 12.1227382,9.00400484 C12.4739018,8.84795955 13.1755964,8.54162475 13.9000691,8.36895169 C14.7048982,8.1764532 15.5337709,8.12593034 15.8286218,8.14511624 L15.7564909,8.31011494 C11.1458073,11.267301 7.70946545,16.4180745 8.03342182,22.2275637 C8.21185091,23.122266 8.44722545,23.9824337 8.91670909,24.7498695 C8.91670909,25.2244007 8.37382909,25.3145744 8.06758909,25.5345726 C7.07294182,26.0084643 5.89670182,26.3007294 4.84890545,26.0615452 C4.5066,25.3516671 4.48825091,24.5106853 4.40030182,23.6876104 L4.40030182,23.6876104 Z M18.6657709,9.24318901 C19.1352545,9.09673667 19.3877127,9.68190649 19.62372,9.93835796 C21.4282582,13.7576303 19.2953345,17.7387037 17.4123382,20.9165275 C15.5881855,22.9611045 13.74252,26.0314873 10.6168473,25.6452113 C10.4339891,25.4993985 10.0556182,25.5364912 10.0562509,25.2071334 C12.8750509,23.142731 15.0275891,20.1490917 15.7153636,16.878536 C15.7881273,16.6041777 15.7337127,16.3125521 15.6261491,16.0554611 L15.51732,16.054182 C14.7207164,19.4724691 12.2967382,22.6138398 9.44124,24.6392308 C9.02680364,24.3117915 9.02680364,23.7451681 8.88127636,23.2879042 C8.43204,16.9667911 13.4577927,11.7808435 18.6657709,9.24318901 L18.6657709,9.24318901 Z M17.1794945,35.6065284 C12.0126436,35.4408902 7.17924,32.9882931 5.24625818,27.8906006 C5.21145818,27.5075223 4.79575636,27.0496189 5.12034545,26.7029937 C6.60282545,26.5028208 8.04987273,26.2303811 9.33304364,25.5358517 C9.78544364,25.5729444 10.1815309,25.9202091 10.6516473,26.0103829 C14.1759382,26.4152053 17.1060982,22.9623835 18.8220545,20.113278 C20.2532836,17.2091729 21.5560691,13.5389111 20.2020327,10.1935304 C20.02044,9.71899922 19.5686727,9.31737447 19.5148909,8.84348285 C22.6785273,7.51070262 26.4748909,7.14553107 29.9618509,7.58680667 L30.0890291,7.65907355 C28.0459527,9.28347939 26.2186364,11.310789 24.7899382,13.5753643 C22.0413709,17.9401556 20.3235164,22.726397 18.1349127,27.329733 C17.3933564,28.6452459 16.77708,30.1052925 15.5476909,31.036448 C14.5713927,30.9999948 13.81212,30.6335442 12.87252,30.9993553 C12.6384109,31.1087149 12.3486218,31.3651664 12.4745345,31.6938847 C12.8908691,32.2048691 13.6855745,32.2426013 14.2816036,32.1498695 C15.6577855,31.5295255 17.5363527,31.8972552 18.8549564,31.0377271 C24.6583309,27.9360073 27.9693927,21.5234414 31.0071164,16.1904019 C31.0621636,16.1904019 31.1153127,16.1910414 31.1330291,16.2268551 C30.0668836,18.6922427 29.0526218,21.1595489 27.8219673,23.5334837 C26.4660327,25.9988713 25.1645127,28.5742581 23.1739527,30.7665664 C22.5962727,31.6791755 21.4219309,30.8394728 20.6632909,31.3319108 C20.5373782,31.49627 20.2830218,31.5870832 20.3912182,31.8972552 C21.0960764,32.4805064 22.0363091,32.1888808 22.8132982,31.8620811 C28.7236036,32.192718 33.4057855,26.7867721 36.4624909,22.1130879 L41.5072255,14.6785533 C44.3475382,10.6968404 48.2527309,6.67995333 52.7912836,5.25572034 C56.1346145,3.9613119 60.3827455,4.12758966 63.0370364,6.77844093 L63.20028,6.77908046 C63.2186291,6.59553539 63.1831964,6.44908305 63.075,6.32117708 C60.3087164,2.95788955 55.5556691,2.77434448 51.6878073,3.99648604 C46.2469855,6.11396941 41.7065345,10.8062 38.6529927,15.8290675 C35.9215091,19.8107804 33.8240182,24.2497572 30.3686945,27.7000207 C28.5806073,29.1958811 26.7887236,30.9322046 24.4577564,31.0972034 C24.3856255,31.1873771 24.1869491,31.2231907 24.1502509,31.0422038 C24.1686,30.9872042 24.3134945,30.9322046 24.3849927,31.0044715 L24.3856255,30.9315651 C27.2594727,29.1255328 29.3392473,26.5495065 31.1304982,23.7368542 C34.4934436,18.9333454 34.7851309,12.8322306 37.7519891,7.8637231 C38.1132764,7.27855328 38.6548909,6.76820845 38.9617636,6.1651318 C38.9440473,5.92786622 38.7460036,5.89077349 38.5283455,5.90868032 C35.70828,7.68081756 33.46716,10.3828312 31.62276,13.1411235 C28.0782218,18.6928822 25.2910582,24.8848103 20.3020036,29.2854153 C19.28964,29.9978515 18.25956,30.8202869 17.0289055,30.8740074 C17.2104982,30.5625564 17.5553345,30.4538363 17.8065273,30.2357566 C23.1416836,25.2864351 25.2043745,18.8188696 27.95484,12.7196733 C28.89444,10.9456175 29.6549782,8.88249417 31.3728327,7.5318071 C32.5838727,7.4224475 33.9189273,7.36936652 34.9325564,6.63710483 C35.0597345,6.47402472 35.0413855,6.1823991 34.8964909,6.0346677 C33.5234727,5.50577651 32.2953491,6.54757065 31.1013927,7.05727595 C29.1304473,7.01954369 27.4859891,6.19646876 25.6415891,5.86647135 C22.4804836,5.31839426 19.4965418,6.44780399 16.8390873,7.74604961 C14.2809709,7.79017717 11.9772109,8.27238268 9.97146545,9.56807018 C4.78373455,12.7817077 2.90137091,18.9934612 3.63913091,25.038937 C3.65748,25.2768421 3.80047636,25.7149201 3.51258545,25.8613724 C0.657087273,24.6002195 0.297065455,21.1844905 0.40716,18.4971861 C1.09556727,11.7571809 7.31464364,6.46315271 13.1357345,4.01631147 C21.0910145,0.711860686 31.0507745,0.460525452 38.7282873,4.5567142 C39.5609564,4.90397891 40.2999818,5.67205427 41.1149345,5.83577392 C40.6258364,5.21415089 40.0139891,4.90397891 39.4166945,4.52090053 C32.1529855,-0.0140057039 21.6876764,-1.07818339 13.4628545,2.09900095 C7.00840364,4.39747126 1.65679636,10.2408556 0.245181818,16.9616749 C-0.243916364,19.7768853 -0.138250909,23.0640688 1.84914545,25.2013776 C2.42745818,25.8811978 3.26139273,26.1728234 3.91120364,26.6665405 C4.36107273,27.779962 4.59581455,28.9682085 5.28169091,29.9729099 C8.28018545,34.9068827 13.3717418,36.6502411 19.0827382,36.3758828 L173.859851,36.4532659 L173.862382,35.6698418 L17.1794945,35.6065284 Z" mask="url(#williamhill-b)"/>
  </g>
</svg>
